<?xml version="1.0" encoding="UTF-8"?>
<svg id="Layer_1" data-name="Layer 1" xmlns="http://www.w3.org/2000/svg" viewBox="0 0 222.97 111.66">
  <g>
    <path d="M38.38,5.46c8.42,0,15.63,2.31,21.42,6.85,5.99,4.75,9.71,11.33,11.08,19.58.42,2.29.63,4.67.63,7.08,0,6.22-1.34,12.84-3.97,19.66-3.74,9.45-9.57,18.19-17.32,25.97-7.76,7.78-16.46,13.62-25.87,17.36l-4.35,1.73h51.4c-.39,1.4-1.68,2.44-3.21,2.44H6.04l2.07-2.44h.12c5.06-.13,10.39-1.56,15.81-4.26,5.66-2.76,11-6.73,15.88-11.78,5.12-5.25,9.38-11.19,12.65-17.64,3.36-6.45,5.71-13.22,7.01-20.12,1.17-6.65,1.23-13.01.19-18.9-.87-4.67-2.43-8.74-4.62-12.11-2.16-3.3-4.78-5.89-7.79-7.71-3.05-1.81-6.55-2.89-10.38-3.2-.71-.05-1.44-.08-2.16-.08-3.31,0-6.86.58-10.56,1.73-4.47,1.52-15.36,6.28-19.79,9.51-.11.07-.22.14-.33.22v-3.75C13.9,10.26,28.98,5.65,37.36,5.46h1.03M38.38,4.56h-1.03c-9.18.21-24.76,5.28-34.12,10.49v6.09c.55-.47,1.13-.9,1.73-1.28,4.31-3.16,15.05-7.86,19.57-9.4,3.61-1.12,7.03-1.68,10.27-1.68.71,0,1.41.03,2.09.08,3.72.3,7.05,1.32,9.99,3.08,2.9,1.75,5.4,4.23,7.5,7.43,2.14,3.29,3.63,7.22,4.48,11.79,1.03,5.81.96,12-.19,18.58-1.28,6.83-3.59,13.45-6.92,19.86-3.25,6.41-7.41,12.22-12.49,17.43-4.83,5-10.04,8.86-15.63,11.6-5.34,2.65-10.49,4.04-15.44,4.17h-.51l-3.59,4.23h64.07c2.34,0,4.23-1.89,4.23-4.23H24.67c9.57-3.8,18.29-9.65,26.17-17.56,7.88-7.9,13.72-16.66,17.52-26.27,2.69-6.96,4.04-13.62,4.04-19.99,0-2.48-.21-4.89-.64-7.24-1.41-8.5-5.21-15.21-11.4-20.12-5.98-4.7-13.31-7.05-21.98-7.05h0Z"/>
    <path d="M97.95,5.39c9.49,0,17.4,3.1,23.52,9.22,6.08,6.12,9.16,14.03,9.16,23.52,0,2.8-.25,5.79-.76,8.88-2.35,13.67-9.29,26.36-20.63,37.7-11.43,11.35-24.16,18.27-37.83,20.57-3.1.5-6.09.76-8.89.76-9.45,0-17.34-3.06-23.45-9.09-6.04-6.12-9.1-14.03-9.1-23.52,0-2.76.25-5.73.76-8.82,2.31-13.67,9.25-26.38,20.64-37.77,11.34-11.34,24.03-18.29,37.71-20.64,3.1-.54,6.08-.82,8.88-.82M54.4,100.55c3.61,2.08,7.77,3.13,12.37,3.13.19,0,.38,0,.57,0,5.07-.09,10.37-1.52,15.75-4.25,5.62-2.73,10.97-6.71,15.88-11.84,4.95-5,9.23-10.91,12.72-17.58,3.36-6.45,5.71-13.22,7.01-20.12,1.17-6.69,1.21-13.05.13-18.9-.87-4.62-2.4-8.69-4.55-12.12-2.16-3.26-4.77-5.85-7.79-7.71-3.09-1.81-6.61-2.89-10.45-3.2-.64-.04-1.3-.06-1.95-.06-3.46,0-7.05.6-10.69,1.77-4.56,1.48-9.12,3.87-13.57,7.11-4.45,3.15-8.67,7.17-12.54,11.95-3.83,4.65-7.11,9.82-9.73,15.37-2.58,5.47-4.44,11.13-5.52,16.8-1.08,5.53-1.39,10.92-.91,16.02.48,4.87,1.72,9.29,3.67,13.12,1.76,3.66,4.16,6.64,7.1,8.83.89.71,1.73,1.28,2.5,1.69M97.95,4.5c-2.86,0-5.87.28-9.03.83-13.93,2.39-26.65,9.35-38.19,20.89-11.58,11.58-18.54,24.33-20.89,38.25-.51,3.16-.77,6.15-.77,8.97,0,9.78,3.12,17.83,9.35,24.15,6.32,6.24,14.35,9.35,24.09,9.35,2.86,0,5.87-.26,9.03-.77,13.92-2.35,26.69-9.29,38.31-20.82,11.53-11.53,18.49-24.26,20.89-38.19.51-3.16.77-6.17.77-9.03,0-9.78-3.14-17.83-9.42-24.15-6.32-6.32-14.37-9.48-24.15-9.48h0ZM66.77,102.79c-4.47,0-8.45-1.01-11.94-3.02-.73-.38-1.52-.92-2.37-1.6-2.86-2.14-5.15-4.98-6.86-8.52-1.92-3.76-3.12-8.03-3.59-12.81-.47-5.04-.17-10.29.9-15.76,1.07-5.64,2.88-11.17,5.45-16.59,2.6-5.51,5.81-10.57,9.61-15.18,3.84-4.74,7.97-8.67,12.37-11.79,4.4-3.2,8.84-5.53,13.33-6.98,3.56-1.15,7.03-1.73,10.41-1.73.63,0,1.26.02,1.89.06,3.72.3,7.07,1.32,10.06,3.08,2.9,1.79,5.4,4.27,7.5,7.43,2.09,3.33,3.57,7.26,4.42,11.79,1.07,5.77,1.03,11.96-.13,18.58-1.28,6.83-3.59,13.45-6.92,19.86-3.46,6.62-7.65,12.41-12.56,17.36-4.87,5.08-10.08,8.97-15.63,11.66-5.3,2.69-10.42,4.08-15.38,4.16-.19,0-.37,0-.55,0h0Z"/>
    <path d="M126.64,5.46c8.42,0,15.63,2.31,21.42,6.85,5.99,4.75,9.71,11.33,11.08,19.58.42,2.29.63,4.67.63,7.08,0,6.22-1.34,12.84-3.97,19.66-3.74,9.45-9.57,18.19-17.32,25.97-7.76,7.78-16.46,13.62-25.87,17.36l-4.35,1.73h51.52v2.44h-65.47l2.07-2.44h.12c5.06-.13,10.39-1.56,15.81-4.26,5.66-2.76,11-6.73,15.88-11.78,5.12-5.25,9.38-11.19,12.65-17.64,3.36-6.45,5.71-13.22,7.01-20.12,1.17-6.65,1.23-13.01.19-18.9-.87-4.67-2.43-8.74-4.62-12.11-2.16-3.3-4.78-5.89-7.79-7.71-3.05-1.81-6.55-2.89-10.38-3.2-.71-.05-1.44-.08-2.16-.08-3.31,0-6.86.58-10.56,1.73-4.6,1.56-21.71,10.23-26.07,13.41-.11.07-.22.14-.33.22v-3.75c9.09-4.96,30.38-13.81,39.49-14.02h1.03M126.64,4.56h-1.03c-9.18.21-31.04,9.18-40.39,14.39v6.09c.55-.47,1.13-.9,1.73-1.28,4.31-3.16,21.32-11.76,25.85-13.3,3.61-1.12,7.03-1.68,10.27-1.68.71,0,1.41.03,2.09.08,3.72.3,7.05,1.32,9.99,3.08,2.9,1.75,5.4,4.23,7.5,7.43,2.14,3.29,3.63,7.22,4.48,11.79,1.03,5.81.96,12-.19,18.58-1.28,6.83-3.59,13.45-6.92,19.86-3.25,6.41-7.41,12.22-12.49,17.43-4.83,5-10.04,8.86-15.63,11.6-5.34,2.65-10.49,4.04-15.44,4.17h-.51l-3.59,4.23h68.3v-4.23h-47.73c9.57-3.8,18.29-9.65,26.17-17.56,7.88-7.9,13.72-16.66,17.52-26.27,2.69-6.96,4.04-13.62,4.04-19.99,0-2.48-.21-4.89-.64-7.24-1.41-8.5-5.21-15.21-11.4-20.12-5.98-4.7-13.31-7.05-21.98-7.05h0Z"/>
    <path d="M216.08,5.46v2.44h-66.31v43.54l1.58-1.9c6.96-8.34,15.28-14.35,24.74-17.87,5.11-1.9,9.98-2.86,14.48-2.86,3.78,0,7.4.68,10.76,2.02,7.28,2.91,11.95,8.39,13.88,16.29.58,2.44.87,4.96.87,7.48,0,5.86-1.59,12.11-4.72,18.58-4.52,9.38-11.29,17.28-20.11,23.46-8.33,5.83-16.8,9-25.2,9.43l1.53-3.36c2.35-.07,4.82-.56,7.33-1.45,3.4-1.13,6.81-2.95,10.13-5.39,3.29-2.51,6.42-5.6,9.32-9.19,2.85-3.63,5.24-7.55,7.09-11.64,1.9-4.07,3.24-8.33,3.98-12.66.69-4.12.83-8.11.39-11.87-.48-3.55-1.44-6.69-2.86-9.34-1.34-2.45-3.06-4.47-5.15-6.01-2.15-1.48-4.52-2.42-7.04-2.77-.89-.13-1.83-.2-2.79-.2-1.9,0-3.94.27-6.11.8-3.4.96-6.78,2.53-10.06,4.67-3.38,2.25-6.61,5.11-9.6,8.48-3.02,3.46-5.61,7.27-7.69,11.33-2.03,4.01-3.6,8.23-4.68,12.55l-.03.11v.11s0,.06,0,.09l-11.02,8.42V5.46h77.27M216.98,4.56h-79.06v75.99l12.75-9.74c.04-.21.06-.41.06-.58,1.07-4.27,2.61-8.39,4.61-12.37,2.05-4.01,4.57-7.73,7.56-11.15,2.95-3.33,6.09-6.11,9.42-8.33,3.2-2.09,6.47-3.61,9.8-4.55,2.08-.51,4.03-.77,5.87-.77.92,0,1.8.06,2.66.19,2.39.34,4.61,1.22,6.66,2.63,1.96,1.45,3.59,3.35,4.87,5.7,1.37,2.56,2.28,5.57,2.76,9.03.43,3.67.3,7.54-.38,11.6-.73,4.27-2.03,8.41-3.91,12.43-1.84,4.06-4.16,7.88-6.98,11.47-2.86,3.55-5.92,6.56-9.16,9.03-3.25,2.39-6.53,4.14-9.87,5.25-2.65.94-5.19,1.41-7.62,1.41l-2.37,5.19c9.1-.13,18.14-3.34,27.13-9.64,8.99-6.3,15.79-14.23,20.41-23.8,3.2-6.62,4.81-12.94,4.81-18.96,0-2.6-.3-5.17-.9-7.69-2.01-8.24-6.81-13.88-14.42-16.91-3.48-1.39-7.18-2.08-11.09-2.08-4.63,0-9.56.97-14.79,2.92-9.65,3.59-18.03,9.63-25.12,18.13V8.79h66.31v-4.23h0Z"/>
  </g>
  <path d="M67.48,18.95c-.96-1.6-2.06-3.1-3.31-4.49-2.89,1.89-5.71,4.03-8.47,6.41,1.13,2.17,2.02,4.57,2.67,7.21,2.88-3.49,5.91-6.54,9.1-9.13Z"/>
  <path d="M72.41,102.04h0s-5.08,0-5.08,0h-22c4.97,2.77,10.7,4.16,17.19,4.16,2.53,0,5.18-.21,7.95-.61,1.17-.75,1.94-2.06,1.94-3.55Z"/>
  <path d="M45.76,89.2c-.05-.1-.1-.19-.15-.29-1.08-2.11-1.92-4.39-2.54-6.82-1.2,1.44-2.46,2.84-3.78,4.2-1.72,1.78-3.49,3.41-5.31,4.91.95,1.53,2.03,2.99,3.26,4.37,2.94-1.89,5.78-4.01,8.53-6.36Z"/>
  <path d="M103.47,9.91c.88.37,1.73.79,2.56,1.28.44.27.87.57,1.3.87,2.36-1.1,4.32-1.95,5.48-2.35,1.26-.39,2.49-.71,3.7-.96-1.25-.79-2.56-1.49-3.91-2.09-2.95.94-6.06,2.06-9.12,3.25Z"/>
  <path d="M137.93,5.37v7.82c1.76,1.49,3.34,3.3,4.74,5.44,2.14,3.29,3.63,7.22,4.48,11.79,1.03,5.81.96,12-.19,18.58-1.28,6.83-3.59,13.45-6.92,19.86-.66,1.31-1.37,2.58-2.11,3.84v7.12l12.67-9.68s.06-.1.09-.14c.03-.18.05-.35.05-.49,1.07-4.27,2.61-8.39,4.61-12.37,1.06-2.08,2.25-4.08,3.57-6,1.13-4.32,1.71-8.53,1.74-12.61-3.57,2.77-6.9,6-9.98,9.7V12.66c-.65-.62-1.34-1.21-2.06-1.78-3.18-2.5-6.75-4.33-10.69-5.5Z"/>
</svg>