<?xml version="1.0" encoding="UTF-8"?>
<svg id="Layer_1" data-name="Layer 1" xmlns="http://www.w3.org/2000/svg" viewBox="0 0 395.57 395.57">
  <path d="M305.16,309.2l-.13-.13c-28.8,27.92-67.64,43.8-107.91,43.8s-79.47-16.05-108.13-43.99l-1.79,1.79s.06.06.09.09l-70.56,70.56h360.73l-72.2-72.2s-.06.06-.09.09Z"/>
  <path d="M310.04,87.99c-.1-.11-.2-.22-.31-.32l-1.76,1.76c.1.11.2.22.31.33l-.33.33c4.27,4.38,8.29,9.01,12.03,13.87-.35,1.63-.42,3.24-.16,4.71.23,1.31.7,2.49,1.15,3.64.57,1.44,1.1,2.8,1.09,4.24-.01,1.73-.82,3.27-1.67,4.89-.86,1.65-1.76,3.36-1.96,5.45-.18,1.82.21,3.58.59,5.29.43,1.93.83,3.75.3,5.3-.18.52-.47,1.01-.79,1.53-.47.79-1.01,1.68-1.22,2.83-.47,2.54.84,4.52,1.99,6.26.86,1.3,1.67,2.54,1.81,3.94.13,1.4-.43,2.78-1.03,4.24-.65,1.59-1.32,3.22-1.26,5.13.06,1.72.72,3.16,1.34,4.55.6,1.32,1.16,2.57,1.09,3.87-.05.83-.35,1.68-.67,2.58-.5,1.41-1.07,3-.62,4.72.23.91.7,1.59,1.11,2.2.3.44.56.82.7,1.24.34.99.09,2.3-.15,3.56l-.09.48c-.71,3.93-.65,8.04.19,11.92h-1.22l-1.18-.33c-.1-.43-.15-.86-.16-1.29,0-.79.19-1.61.39-2.48.29-1.25.59-2.54.37-3.95-.17-1.1-.64-2.05-1.05-2.88-.42-.84-.78-1.57-.83-2.36-.05-.89.31-1.8.7-2.77.43-1.08.92-2.31.89-3.69-.04-1.74-.85-3.12-1.58-4.34-.59-.99-1.14-1.91-1.23-2.93-.08-.91.2-1.88.5-2.9.35-1.19.72-2.43.6-3.81-.11-1.3-.63-2.4-1.1-3.38-.41-.86-.8-1.68-.86-2.52-.07-1.01.31-2.06.72-3.17.46-1.25.98-2.67.87-4.23-.07-1-.4-1.9-.68-2.69-.3-.85-.57-1.57-.54-2.3.03-.59.25-1.17.51-1.84.25-.63.49-1.28.61-1.97.23-1.31.03-2.56-.17-3.76-.06-.36-.12-.73-.17-1.09-.22-1.71-.11-3.59-.01-5.41.17-3.24.36-6.58-1.16-9.42l-1.29-2.42-1.02,2.55c-1.4,3.49-1.92,7.54-1.46,11.41l.12.9c.15,1.09.29,2.12.14,3.07-.09.58-.29,1.12-.48,1.67-.12.36-.25.72-.36,1.1l-.46-15.86-2.25,3.66c-1.53,2.49-3.01,5.19-2.82,8.31.05.82.22,1.64.39,2.46.26,1.2.5,2.32.22,3.26-.15.49-.46.97-.79,1.47-.45.68-.95,1.44-1.17,2.42l-1.03-8.59-2.55.06-.74,10.18c-.13,1.8-.26,3.67-.85,5.25-.18.48-.4.95-.61,1.42-.66,1.43-1.41,3.05-1.14,4.91.11.73.36,1.38.58,1.94.24.61.45,1.14.44,1.65,0,.62-.32,1.23-.69,1.95-.48.92-1.01,1.95-.97,3.25.05,1.38.72,2.39,1.31,3.28.22.33.44.66.62,1.01.67,1.34.67,3.26.68,4.81v1.04c0,1.73.01,3.47,0,5.2l-.03,3.88c-.01,1.25-.02,2.5.09,3.75.06.77.18,1.54.29,2.3.16,1.11.32,2.16.32,3.22,0,.33,0,.67-.03,1h-1.05c.11-1.64.07-3.27.04-4.75-.04-1.46-.08-3.12-.63-4.65-.25-.68-.58-1.29-.92-1.9-.39-.69-.75-1.34-.9-2.04-.2-.91-.05-1.95.12-3.05l.13-.95c.23-1.89.18-3.84.13-5.56l-.84-31.82-2.13,2.28c-2.56,2.75-2.98,7.14-3.19,11.41l-.31,6.26c-.08,1.61-.17,3.43.21,5.19.13.61.33,1.21.52,1.8.35,1.07.68,2.08.56,3.04-.1.78-.5,1.52-.92,2.3l-.39.73c-.89,1.76-1.09,3.45-.55,4.77.06.16.14.3.21.44-.3-.43-.65-.81-.98-1.18-.5-.55-1.02-1.12-1.09-1.58-.05-.38.19-.93.45-1.5.37-.83.8-1.77.66-2.88-.13-1.02-.71-1.81-1.21-2.5-.36-.5-.7-.97-.74-1.34-.05-.43.29-1.03.64-1.65.51-.91,1.09-1.93.95-3.19-.09-.79-.44-1.44-.76-2.01-.23-.42-.47-.85-.45-1.11.01-.22.22-.57.42-.9.25-.42.53-.88.68-1.44.29-1.04.05-1.99-.17-2.83-.06-.22-.11-.44-.16-.67-.2-1.02-.11-2.15,0-3.34.18-2.15.38-4.58-1.29-6.63l-1.14-1.39-.94,1.53c-1.49,2.43-2.04,5.25-1.55,7.94l.12.61c.13.63.26,1.22.15,1.68-.07.28-.24.6-.42.94-.15.28-.31.58-.44.92l-.46-10.49-2.07,2.21c-1.28,1.36-3.21,3.41-2.97,5.93.06.64.26,1.23.43,1.76.26.78.4,1.28.25,1.62-.11.23-.4.52-.69.81-.49.48-1.09,1.08-1.34,1.93l-2.62-14.22-1.69,15.31c-.13,1.16-.25,2.26-.78,3.18-.17.3-.38.59-.58.89-.7.99-1.58,2.22-1.23,3.75.13.58.41,1.05.66,1.46.14.24.36.59.35.72,0,.17-.34.59-.56.87-.52.65-1.16,1.46-1.1,2.57.05,1.16.84,1.93,1.47,2.55.2.2.42.4.58.62.51.66.55,1.59.55,2.74,0,1.36,0,2.71,0,4.08l-.03,2.52c-.01.85-.02,1.71.1,2.56.07.52.19,1.04.3,1.57.15.69.3,1.34.31,1.95,0,.16,0,.31-.02.48l-1.03-.25c.06-.92.03-1.82,0-2.71-.04-.98-.08-2.21-.72-3.35-.26-.47-.62-.9-.98-1.32-.35-.41-.68-.79-.79-1.14-.13-.41-.01-.96.13-1.6l.14-.66c.24-1.3.19-2.57.14-3.79l-.85-21.08-1.92,1.34c-2.73,1.91-3.18,5.07-3.42,8.16l-.29,3.8c-.08,1.12-.18,2.4.25,3.67.14.42.35.84.56,1.26.29.59.57,1.15.5,1.53-.06.34-.43.79-.79,1.22l-.39.49c-.1.12-.19.25-.27.38l-.34-10.02-1.85,1.07c-2.93,1.7-3.91,6.64-3.87,10.36.02,1.98.25,3.93.48,5.81.2,1.73.42,3.52.45,5.27.02,1.08-.01,2.16-.12,3.22h-2.03c-.06-2.04.23-4.09.53-6.25.1-.69.19-1.39.28-2.08.53-4.41.24-7.72-.9-10.13l-1.31-2.78-3.76,10.48-1.21,10.76h-.28c.77-3.18.66-6.86-.31-9.92-.77-2.4-1.93-2.89-2.8-2.8-1.83.11-2.43,2.43-2.68,3.42l-1.2,4.67c0-.51-.04-1.04-.14-1.56-.34-1.81-1.65-3.26-3.11-3.43-1.13-.13-2.09.46-2.61,1.6-.18.39-.29.82-.36,1.23-.14-.63-.28-1.26-.43-1.88l-1.42-6.17-1.82,10.43c-.11-.22-.23-.43-.37-.61-.47-.62-1.12-.97-1.82-.99l-1.12-.02-.91,6.03h-.56c-.4-.6-.92-.97-1.5-1.07-.66-.12-1.29.13-1.76.67l-.31.35-57.54.05c-.3-.2-.65-.31-1-.31h0c-.35,0-.7.11-1.02.31h-1.31l-.76-5.25-1.13.02c-.68.02-1.3.35-1.76.95-.12.15-.22.32-.31.5l-1.76-10.56-1.42,6.46c-.12.54-.24,1.08-.35,1.61-.07-.32-.16-.65-.29-.95-.5-1.14-1.46-1.72-2.55-1.62-1.43.17-2.71,1.62-3.04,3.45-.07.38-.11.77-.12,1.15l-1.05-4.27c-.24-.99-.82-3.32-2.62-3.43-.82-.08-2.01.39-2.74,2.81-.63,2.08-.88,4.44-.74,6.75l-.93-7.87-3.59-10.33-1.32,2.93c-1.08,2.4-1.36,5.7-.85,10.1.08.69.17,1.38.26,2.07.25,1.89.49,3.69.51,5.48h-1.9c-.05-.82-.07-1.63-.05-2.44.04-1.75.24-3.54.43-5.27.21-1.89.43-3.84.45-5.81.05-3.89-.9-8.65-3.71-10.34l-1.87-1.13-.82,25-1.65-.62c-.69-.28-.72-1.35-.72-1.55,0-.32.03-.63.06-.95.07-.79.14-1.68-.11-2.61-.07-.27-.18-.54-.29-.81-.1-.26-.27-.69-.24-.81.06-.11.39-.33.59-.47.44-.3.99-.67,1.35-1.28.66-1.09.45-2.49-.55-3.84l-.38-.49c-.36-.45-.7-.88-.76-1.23-.07-.4.2-.97.48-1.56.2-.42.39-.83.53-1.26.41-1.27.32-2.54.24-3.65l-.3-4.09c-.16-2.17-.42-5.79-3.26-7.87l-1.94-1.42-.62,16.17c-.17-.73-.61-1.32-.99-1.81-.23-.3-.54-.71-.54-.89,0-.14.19-.47.34-.74.24-.41.5-.88.63-1.46.32-1.51-.51-2.74-1.19-3.73-.2-.29-.4-.58-.56-.87-.5-.92-.62-2.08-.74-3.19l-1.67-15.66-2.53,14.35c-.27-.73-.79-1.27-1.22-1.71-.27-.28-.55-.57-.66-.8-.15-.36-.01-.86.24-1.66.17-.52.35-1.11.41-1.75.23-2.5-1.62-4.56-2.85-5.91l-2.09-2.32-.44,10.36c-.1-.24-.22-.46-.32-.67-.18-.34-.34-.67-.41-.94-.11-.47.01-1.07.14-1.71l.11-.6c.47-2.69-.06-5.5-1.48-7.92l-.95-1.61-1.16,1.47c-1.59,2.04-1.4,4.46-1.23,6.6.1,1.2.18,2.33,0,3.35-.04.23-.1.45-.15.67-.2.83-.43,1.77-.16,2.8.14.55.41,1.02.65,1.43.2.36.39.69.41.92.02.28-.2.69-.44,1.13-.3.57-.65,1.22-.73,2-.13,1.24.42,2.26.91,3.16.34.63.66,1.23.61,1.67-.04.38-.37.85-.72,1.35-.48.69-1.03,1.48-1.16,2.49-.14,1.1.27,2.03.63,2.85.25.58.49,1.12.43,1.52-.06.47-.54,1.02-1.04,1.59-.22.25-.44.5-.66.78.01-.02.02-.05.04-.08.66-1.67.08-3.49-.53-4.74l-.36-.71c-.41-.79-.8-1.53-.9-2.33-.11-.96.2-1.97.54-3.05.19-.6.37-1.2.5-1.81.37-1.75.29-3.57.21-5.17l-.3-6.26c-.2-4.26-.61-8.65-3.06-11.39l-2.15-2.41-.62,24.38c-.15-.86-.52-1.6-.86-2.27-.36-.72-.67-1.34-.67-1.97,0-.52.19-1.05.43-1.67.21-.56.45-1.21.55-1.92.26-1.85-.45-3.46-1.09-4.88-.21-.47-.42-.94-.59-1.42-.57-1.6-.7-3.47-.83-5.27l-.71-10.18-2.55-.06-.96,8.3c-.23-.83-.66-1.51-1.04-2.11-.32-.5-.62-.98-.76-1.48-.27-.95-.04-2.09.21-3.29.17-.81.34-1.63.38-2.45.19-3.1-1.23-5.79-2.69-8.28l-2.26-3.84-.43,15.65v.05c-.08-.26-.16-.51-.25-.77-.18-.55-.37-1.09-.46-1.67-.15-.95-.01-1.98.13-3.08l.12-.91c.43-3.87-.06-7.91-1.4-11.39l-1.03-2.67-1.3,2.55c-1.45,2.82-1.27,6.16-1.1,9.39.09,1.83.19,3.71-.02,5.43-.05.36-.1.72-.16,1.08-.19,1.21-.39,2.45-.16,3.76.03.18.07.35.11.52-.25-.86-.66-1.57-1.03-2.21-.3-.52-.59-1.01-.76-1.53-.51-1.56-.13-3.39.29-5.33.36-1.7.73-3.46.57-5.27-.19-2.08-1.05-3.79-1.88-5.43-.82-1.63-1.59-3.17-1.6-4.92-.01-1.45.5-2.81,1.05-4.25.43-1.14.88-2.32,1.1-3.63.24-1.42.19-2.97-.11-4.54,4.41-6.07,9.25-11.81,14.48-17.16L13.53,17.39v360.88l70.62-70.62s.01.01.02.02l1.83-1.83c-5.82-5.99-11.24-12.45-16.1-19.42.42-.02.84-.05,1.26-.07l1.31-.07c5.52-.27,11.17-.06,16.63.14,2.65.1,5.39.19,7.89.66.85.16,1.68.35,2.52.55,2.04.49,4.17.99,6.5.9,1.82-.07,3.44-.49,5-.89,1.64-.42,3.16-.83,4.87-.8,1.65.01,3.13.42,4.7.84,1.4.38,2.84.77,4.47.9,2.85.24,5.48-.38,8.02-.97,2.02-.47,3.93-.91,5.99-.97,2.78-.08,5.25.51,7.91,1.15,2.78.66,5.6,1.36,8.79,1.2,2.07-.09,3.92-.54,5.72-.97,1.32-.31,2.56-.61,3.9-.78,2.41-.32,5.09-.2,7.46-.1l14.2.63c3.23.14,6.55.28,9.78-.08,1.35-.15,2.65-.38,3.95-.62,1.27-.23,2.54-.46,3.86-.6,1.82-.19,3.74-.22,5.61-.23,1.42-.02,2.83-.03,4.24-.12,2.58-.16,7.17-.74,8.92-2.9l1.2-1.48-1.83-.55c-3.83-1.14-8.36-.87-12.74-.61-3.53.21-7.18.43-10.39-.09-1.2-.19-2.38-.49-3.55-.78-2.64-.66-5.38-1.35-8.28-.91-1.38.2-2.53.63-3.64,1.04-1.27.47-2.46.92-3.89.96-1.23.05-2.39-.22-3.61-.5-.91-.2-1.82-.41-2.78-.51-3.23-.34-6.21.44-9.08,1.21-2.71.72-5.27,1.42-7.98,1.17-2.02-.17-3.73-.81-5.54-1.5-2.3-.87-4.66-1.77-7.63-1.6-2.1.11-3.79.74-5.41,1.35-1.55.58-3.02,1.13-4.78,1.19-1.88.07-3.47-.39-5.22-.86-1.81-.49-3.71-1.02-5.8-.96-1.96.04-3.65.54-5.29,1.02-1.58.47-3.07.9-4.73.9h-.07c-2.33-.02-4.07-.87-5.91-1.78-1.95-.96-3.97-1.95-6.76-2.07-2.52-.05-4.63.57-6.68,1.22-1.56.5-3.04.97-4.69,1.11-2.76.25-5.27-.41-7.95-1.09-1.42-.36-2.86-.73-4.34-.97-3.58-.59-7.68-.37-11.18.55-5.5-8.99-10.08-18.54-13.63-28.44,1.43.12,3.08.1,4.65-.29,1.4-.35,2.54-.94,3.65-1.51.86-.44,1.68-.86,2.58-1.15,3.07-.99,6.55-.43,10.25.16,2.71.43,5.51.88,8.29.73,2.98-.17,5.76-1.02,8.46-1.84,3.52-1.08,6.84-2.09,10.28-1.52,1.61.27,3.04.87,4.55,1.51,1.19.5,2.42,1.03,3.78,1.39,3.53.95,7.4.73,10.82.53l11.94-.68c3.06-.17,6.54-.36,9.53.34.86.2,1.67.47,2.48.74,1.18.39,2.4.79,3.75,1.01,2.69.44,5.44.05,7.8-.34,6.36-1.06,12.52-2.62,18.31-4.63l3.25-1.14-3.21-1.26c-4.46-1.75-9.65-1.05-14.66-.38-4.16.57-8.45,1.15-12.22.3-1-.23-1.93-.54-2.87-.86-1.02-.35-2.04-.69-3.12-.93-3.4-.77-7.07-.51-10.32-.29l-12.12.85c-1.53.11-3.42.24-4.83-.25-.66-.23-1.23-.6-1.84-1-.89-.58-1.89-1.23-3.26-1.5-1.58-.31-3.07,0-4.51.3-.91.19-1.78.36-2.62.38-1.45.14-2.75-.38-4.16-.81-1.02-.31-2.08-.63-3.22-.81-3.3-.49-6.45.29-9.5,1.05-1.2.3-2.39.6-3.6.82-5.07.92-10.56.35-15.87-.21l-1.82-.19c-4.45-.45-9.56-.79-14.22,0-1.32-4.84-2.41-9.79-3.25-14.77.87.08,1.78.23,2.73.37,2.04.32,4.14.67,6.24.37.8-.11,1.56-.31,2.32-.52.91-.25,1.77-.48,2.66-.51,1.3-.1,2.61.37,3.94.81.47.15.93.3,1.4.44,4.43,1.26,9.66.99,13.87.76,5.47-.29,11.11-.77,14.67-3.13l3.8-2.52-21.8.87c-1.85.08-3.93.16-5.69-.25-.87-.2-1.69-.53-2.54-.88-1.35-.54-2.74-1.1-4.46-1.21-2.14-.14-3.99.46-5.79,1.04-1.4.45-2.72.87-4.13.95-1.38.07-2.75-.19-4.2-.47-.98-.19-1.96-.37-2.95-.47-.24-.02-.49-.04-.73-.06-.08-.56-.16-1.12-.23-1.69-.02-.14-.04-.29-.06-.43-.03-.24-.05-.48-.08-.72.39.21.79.35,1.1.46,1.28.44,2.73.93,4.4,1.05,1.59.12,3.8-.21,4.86-1.47l1.09-1.3-.26-.12c1.23-.1,2.45-.27,3.62-.51.78-.16,1.54-.36,2.3-.55,1.83-.47,3.5-.88,5.38-.88,1.14.01,2.25.22,3.42.43.74.14,1.49.27,2.25.36.93.12,3.83.33,5.7-.77l5.79,2.64.48-.17c2.55-.89,5.6-.28,8.83.35,3,.59,6.11,1.21,9.14.68,1.28-.22,2.43-.63,3.54-1.03,1.54-.55,3.01-1.04,4.58-.99.88.04,1.74.27,2.65.51,1.08.29,2.19.58,3.45.6,1.64,0,3.18-.47,4.59-.95l1.08-.35c1.72-.54,3.53-.57,4.28-.1.26.16.41.42.66.85.35.61.85,1.49,2.01,1.93-1.47-.13-2.87.33-4.22.76-.66.22-1.33.43-2.01.57-1.4.28-2.93.17-4.56.06-1.17-.08-2.33-.16-3.5-.11-2.16.1-4.19.62-6.14,1.14-2.11.55-4.1,1.05-6.03,1.03l-1.36-.12-.29,2.54c.51.07,1.01.12,1.43.12l8.58.75c2.38.22,5.33.47,7.95-.17.78-.19,1.52-.45,2.26-.72,1.28-.45,2.48-.85,3.76-.81,1.25.07,2.21.59,3.33,1.18,1.09.58,2.32,1.24,3.89,1.45,2.33.33,4.37-.4,6.33-1.09,1.2-.43,2.33-.83,3.53-1.01,2.57-.37,5.09.32,7.77,1.06,2.73.75,5.55,1.53,8.57,1.18,1.7-.2,3.15-.72,4.54-1.23.71-.26,1.42-.51,2.16-.73,2.87-.81,6.11-.88,9.53-.94,3.05-.06,6.21-.12,9.13-.76l5.72-1.26-5.72-1.24-.53-.07c-3.55-1.73-8.55-1.39-12.96-.92-2.47.26-5.02.53-7.34,1.24-.48.15-.94.31-1.4.48-.86.31-1.67.6-2.56.75-2.37.41-4.97-.17-7.65-.85-4.51-1.15-9.31-2.19-13.87-1.3l-1.02.22c-1.23.28-2.38.53-3.35.29-.41-.1-.77-.31-1.18-.54-.42-.24-.9-.51-1.49-.71,1.1.08,2.18-.33,3.28-.73,3.02-1.06,6.84-1.19,10.21-1.31l14.45-.5c3.32-.12,6.27-.15,8.59.71l.7.27c.82.34,1.75.72,2.9.77,1.22.01,2.36-.35,3.31-.7l.5-.18c3.47-1.2,8.05-1.16,11.67-1.14l45.09.3.11-2.45.76.05.86.32c.98.37,2.14.47,3.22.32,1.46.08,3.09-.05,4.96-.39.68-.12,1.36-.26,2.04-.4,1.67-.34,3.25-.67,4.91-.75,1.3-.06,2.63.02,4.02.12,1.59.11,3.23.22,4.88.09,1.11-.09,2.17-.29,3.19-.52l6.63.83h.2s.14.05.14.05c6.21,2.34,14.09,2.97,21.19,1.65.75-.14,1.54-.29,2.08-.15.22.05.4.14.59.23.27.13.55.25.85.34,1.39.42,2.81.11,4.07-.17.45-.1.9-.2,1.34-.26,1.61-.23,3.26.07,5.01.39.33.06.66.12.99.17-1.05.04-2.07.11-3.02.18-8.12.59-16.19,1.69-24.05,2.82l-3.97-3.06-.79.68c-.22.19-.47.37-.73.54-1.38.15-2.74.4-4.09.66-2.31.43-4.54.87-6.73.74-.97-.04-1.92-.16-2.87-.29-1.14-.15-2.33-.31-3.55-.32-1.33-.02-2.57.14-3.79.29-1.62.2-3.14.38-4.61.19-1.02-.13-1.96-.43-2.97-.74-1.25-.39-2.55-.8-4.05-.9-2.21-.15-4.18.45-6.08,1.02-1.56.47-3.03.91-4.6.96-1.52.09-2.81-.26-4.27-.57-.64-.13-1.28-.27-1.92-.38-3.72-.63-7.68-.41-11.16-.2-3.9.22-8.74.49-12.75,2.14-.02.01-.05.02-.07.03-.02.01-.05.02-.07.03l1.23,2.26c1.04-.41,2.7-.4,4.95.02l.47.09c1.86.36,3.97.77,5.98.35.79-.16,1.51-.44,2.21-.73.81-.33,1.52-.61,2.33-.66,1.2-.05,2.43.45,3.64,1,.41.19.81.37,1.21.53,3.05,1.23,7.19,1.45,10.54.57.77-.2,1.52-.47,2.27-.73,1.62-.56,3.14-1.1,4.78-.96.76.06,1.48.27,2.25.49.7.2,1.41.4,2.16.52,1.72.26,3.42.06,5.08-.14l1.1-.12c2.6-.27,5.31-.25,7.95-.23,1.78,0,3.56.02,5.33-.04,3.26-.13,7.77-.65,10.93-2.4.47-.04.95-.07,1.42-.08l.13,2.44c4.86.19,9.66-.23,14.3-.63l9.81-.84c1.98-.18,4.02-.34,5.92-.05,1.05.17,2.02.47,3.05.79.54.17,1.07.34,1.62.49,3.44.94,7.26,1.13,10.65,1.15l.43,1.24c1.85-.51,3.71-.96,5.38-1.33,6.19-.22,12.32-.85,18.21-1.87.25-.04.51-.1.76-.17,2.82-.04,5.67.05,8.38.15-.27,1.94-.56,3.88-.9,5.8-.19-.03-.37-.05-.58-.03h-.03c-3.84.28-17.71.38-21.5.17-1.92-.11-3.77-.42-5.72-.75-1.75-.29-3.56-.6-5.41-.74-3.1-.24-6.21-.02-9.23.19l-2.04.14c-4.23.26-8.5.31-11.74.33-4.61.02-9.2-.03-13.79-.07l-21.09-.23c-4.44-.05-9.01-.1-13.53.05-5.73.19-11.47.68-17.07,1.49l-2.71.39,2.03,1.83c2.46,2.22,6.96,2.03,8.78,1.84,1.15-.12,2.29-.3,3.42-.49,1.67-.28,3.25-.54,4.87-.57,1.67-.02,3.2.17,4.88.37.75.09,1.5.19,2.26.26,3.07.3,6.12.26,9.51.18,4.02-.09,8.05-.2,12.07-.34,6.17-.21,12.33-.48,18.49-.76,2.24-.09,4.56-.19,6.78.08.69.09,1.38.21,2.06.34,1.45.26,2.94.51,4.55.48,1.32-.05,2.55-.31,3.74-.56.84-.18,1.67-.36,2.54-.45,2.44-.28,5,.2,7.48.66l.98.18c8.93,1.61,18.5,1.97,27.64,1.05.47-.05.96-.1,1.44-.2-.21,1.01-.43,2.01-.66,3.01-1.53.04-3.09.14-4.65.24-3.38.21-6.89.43-10.13.05-1.1-.13-2.2-.33-3.31-.53-2.83-.51-5.76-1.04-8.67-.45-.85.17-1.67.44-2.49.71-1.29.43-2.49.86-3.76.75-.99-.06-1.9-.42-2.87-.79-.69-.27-1.39-.54-2.13-.72-3.1-.78-6.24-.11-9.27.55-2.28.49-4.62,1.02-6.88.84-1.74-.12-3.38-.63-5.12-1.17-2.33-.72-4.76-1.47-7.41-1.23-1.51.13-2.85.57-4.14.99-1.24.4-2.4.78-3.65.88-1.61.14-3.19-.2-4.89-.56-1.22-.26-2.48-.52-3.8-.62-2.96-.21-5.7.44-8.37,1.06-1.72.4-3.5.82-5.27.98-2.26.2-4.53.02-6.93-.18-1.19-.1-2.38-.19-3.57-.24-2.69-.1-7.51.05-10.36,2.26l-12.38,2.93,49.3.11c2.39-.01,4.85.01,7.26-.35,1.12-.17,2.22-.41,3.32-.66,1.69-.37,3.28-.73,4.95-.79,1.8-.08,3.67.23,5.61.56,1.85.3,3.61.56,5.74.6,1.71-.02,3.36-.3,4.95-.56,1.05-.17,2.09-.35,3.16-.45,2.12-.2,4.35-.09,6.51.01l1.05.05c3.78.17,7.56.2,11.35.23,3.46.02,6.91.05,10.37.04,5.17-.02,10.35-.13,15.43-.33-.18.71-.37,1.42-.56,2.12-.06.21-.12.43-.18.64-.24.87-.5,1.73-.75,2.59-.22.74-.45,1.47-.68,2.21-.1.33-.21.66-.31.99-8.27-.2-16.64-.1-24.74,0l-41.95.5c-5.06.06-10.3.13-15.45.33l-.54.02c-2.56.1-5.19.21-7.67-.14-.7-.1-1.39-.24-2.08-.37-1.4-.28-2.85-.56-4.38-.56-1.89-.1-3.87.46-5.67.91-1.65.42-3.22.81-4.85.84-1.63,0-3.23-.31-4.95-.66-2.36-.49-4.79-.99-7.27-.49-1.32.27-2.44.79-3.52,1.29-1.39.64-2.53,1.16-4.01,1.17-1.45-.03-2.63-.65-3.99-1.36-1.18-.62-2.41-1.26-3.91-1.55-2.62-.53-5.06.14-7.43.79-1.43.38-2.78.75-4.15.88-2.36.2-4.73-.3-7.23-.83-1.06-.23-2.12-.45-3.19-.63-2.78-.45-7.85-.53-10.14,1.85h-.06c-.48.05-.96.11-1.44.18l.18,2.54,1.75.05.84-.1.09-.16c2.98.01,5.99.83,9.15,1.68,4.12,1.11,8.37,2.26,12.69,1.54.78-.13,1.55-.32,2.31-.5,1.6-.39,3.1-.75,4.54-.51.75.13,1.44.43,2.17.75.62.28,1.25.54,1.92.74,1.92.56,3.96.49,5.92.42.61-.02,1.13-.06,1.83-.05,2.74,0,4.56.68,4.95,1.36l.96,1.66,1.16-1.53c1.79-2.34,8.1-2.39,10.48-2.41l16.98-.14c7.93-.06,16.13-.14,24.18-.05l3.34.05c3.01.04,6.05.06,9.05.08,5.48-.01,11.03-.2,16.39-.38l30.84-1.03c1.59-.05,3.19-.11,4.78-.19-6.49,17.46-16,33.46-28.29,47.6-1.91-.26-4.08-.37-6.29-.36-1.29.01-2.59.05-3.9.1-3.6.12-7.32.24-10.71-.35-1.25-.22-2.45-.52-3.65-.83-2.05-.52-4.17-1.06-6.54-1.15-2.56-.06-4.94.35-7.25.78-2.26.43-4.43.86-6.68.74-1.96-.07-3.79-.5-5.73-.95-2.3-.54-4.65-1.06-7.28-1-2.49.09-4.59.76-6.62,1.41-2.13.68-4.02,1.35-6.49,1.26-1.23-.03-2.42-.25-3.68-.48-1.39-.26-2.83-.52-4.36-.53h-.02c-2.84,0-5.01.86-7.12,1.69-1.57.62-3.04,1.2-4.81,1.46-3.18.47-6.47-.21-9.95-.92-3.4-.69-6.91-1.4-10.44-1.02-1.65.18-3.11.59-4.52.99-1.62.45-3.15.89-4.9.96-1.97.08-3.9-.3-5.93-.69-1.89-.37-3.85-.76-5.92-.77h-.02c-2.94,0-5.41.75-7.8,1.48-1.98.61-3.86,1.18-6.02,1.36-2.14.18-4.33-.06-6.64-.31-.95-.1-1.89-.21-2.84-.28-1.68-.13-7.32-.39-9.56,1.76l-1.57,1.5,2.08.65c7.12,2.2,16.11,1.84,23.96,1.19l2.46-.21c3.34-.29,6.78-.59,10.22-.69,3.71-.12,7.54,0,11.23.1l2.88.08c17.52.42,35.23-.41,52.34-1.22,4.48-.21,8.96-.43,13.47-.51,7.11-.13,14.44.05,21.51.23,6.25.15,12.65.28,18.99.22l.58-.58.58.58c.6,0,1.2.01,1.79,0-.29.31-.6.59-.9.89l1.79,1.79c.07-.07.13-.13.2-.2l70.51,70.51V17.49l-70.5,70.5ZM75.61,280.65c1.4.23,2.76.57,4.12.92,2.77.71,5.63,1.46,8.81,1.15,1.94-.17,3.62-.71,5.24-1.22,1.92-.61,3.74-1.22,5.8-1.1,2.25.09,3.94.92,5.73,1.81,2.02.99,4.11,2.02,7.02,2.05h.09c2.03,0,3.77-.51,5.46-1.01,1.54-.45,2.99-.88,4.61-.91,1.81-.07,3.38.41,5.09.87,1.86.51,3.84,1.01,5.99.95,2.17-.08,3.9-.73,5.57-1.35,1.52-.57,2.95-1.1,4.66-1.2,2.36-.11,4.44.63,6.58,1.44,1.9.72,3.86,1.46,6.24,1.66,3.14.26,6.05-.51,8.85-1.25,2.78-.74,5.4-1.44,8.15-1.14.86.09,1.68.28,2.49.46,1.33.3,2.68.63,4.25.56,1.85-.06,3.3-.6,4.71-1.12,1.03-.38,2.01-.74,3.12-.91,2.41-.36,4.78.23,7.29.86,1.24.31,2.49.62,3.76.83,3.49.56,7.28.34,10.96.12,2.89-.17,5.67-.34,8.2-.14-1.09.26-2.45.47-4.06.57-1.36.08-2.74.1-4.11.11-1.93.02-3.92.04-5.86.25-1.38.15-2.71.39-4.04.63-1.24.22-2.49.45-3.78.59-3.03.34-6.26.2-9.4.07l-14.18-.62c-2.47-.11-5.27-.23-7.91.11-1.47.19-2.83.52-4.16.84-1.76.42-3.42.81-5.24.9-2.85.11-5.36-.49-8.08-1.14-2.71-.64-5.45-1.23-8.58-1.22-2.3.07-4.43.56-6.49,1.04-2.45.57-4.77,1.12-7.24.91-1.39-.11-2.66-.45-4.01-.82-1.66-.45-3.37-.91-5.35-.93-2.07.11-3.81.44-5.53.89-1.5.38-2.92.75-4.46.81-1.95.1-3.85-.36-5.81-.83-.88-.21-1.76-.41-2.65-.58-2.69-.5-5.65-.6-8.26-.7-5.51-.2-11.21-.41-16.85-.13l-1.33.07c-.99.05-1.99.1-2.98.13-.65-.97-1.28-1.95-1.9-2.93,3-.69,6.5-.82,9.46-.35ZM61.54,241.29l1.81.19c5.48.58,11.16,1.17,16.59.18,1.26-.23,2.51-.54,3.76-.85,2.94-.73,5.72-1.43,8.49-1,.96.14,1.88.43,2.86.73,1.55.47,3.1.99,4.96.92,1.08-.02,2.09-.23,3.08-.43,1.25-.25,2.43-.5,3.52-.29.87.17,1.55.61,2.34,1.12.68.44,1.45.94,2.4,1.28,1.91.67,4.1.52,5.86.39l12.12-.85c3.07-.21,6.54-.45,9.58.23,1,.23,1.93.54,2.87.86,1.02.35,2.04.69,3.12.93,4.21.95,8.75.33,13.12-.26,3.09-.42,6.09-.81,8.81-.69-4.27,1.26-8.71,2.28-13.26,3.04-2.16.36-4.67.7-6.97.34-1.15-.18-2.22-.54-3.35-.91-.88-.29-1.77-.58-2.7-.8-3.36-.79-7.02-.59-10.26-.4l-11.94.68c-3.23.18-6.88.39-10.01-.44-1.19-.32-2.28-.79-3.44-1.28-1.58-.67-3.22-1.36-5.13-1.68-4.02-.66-7.8.48-11.45,1.6-2.55.78-5.19,1.59-7.86,1.74-2.52.13-5.17-.29-7.74-.7-3.83-.62-7.79-1.25-11.45-.07-1.1.36-2.04.84-2.96,1.31-1.02.53-1.98,1.02-3.09,1.3-1.69.42-3.57.29-5.03.09-.7-2.08-1.35-4.19-1.96-6.31,4.3-.69,9.09-.38,13.3.04ZM61.3,221.12c1.31.08,2.45.55,3.67,1.03.87.35,1.78.72,2.8.97-1.19-.13-2.36-.34-3.44-.65-.44-.12-.87-.27-1.31-.41-1.07-.35-2.17-.71-3.37-.86.55-.08,1.1-.12,1.66-.08ZM117.44,221.48c-1.99.49-4.4.34-6.45.17,1-.22,2.01-.38,3.03-.42,1.06-.04,2.14.03,3.21.11.21.01.42.03.63.04-.14.04-.28.08-.42.11ZM219.05,218.91c-.08-.04-.16-.07-.24-.1.3.04.59.08.88.13.61.1,1.22.23,1.82.36.97.2,1.95.41,2.98.53-1.9.04-3.85-.29-5.44-.92ZM260.87,227.12c-3.3.08-6.28.11-9.21-.17-.33-.03-.65-.07-.98-.11,2.59,0,5.21.02,7.77.05l8.01.08c-1.86.05-3.73.1-5.59.14ZM304.79,226.92c-.21,0-.41,0-.61,0,.36-.02.73-.04,1.09-.06l.72-.05c-.4.05-.8.1-1.2.11ZM331.67,228.13c3.68.02,8.6,0,12.45-.09-4.11.29-8.3.32-12.45.09ZM236.87,236.38c1.14-.12,2.41-.17,3.76-.11.68.02,1.35.07,2.02.12h-5.78ZM282.74,234.65c-1.9.07-3.69.47-5.42.85-1.04.23-2.08.46-3.14.62-2.21.33-4.61.31-6.88.32l-13.88-.03c1.25-.21,2.47-.5,3.66-.78,2.6-.61,5.04-1.19,7.61-1,1.14.08,2.27.32,3.46.57,1.8.38,3.67.76,5.62.61,1.54-.13,2.91-.57,4.23-1,1.21-.39,2.36-.77,3.58-.87,2.19-.17,4.24.45,6.42,1.12.09.03.18.06.26.08-1.79-.29-3.66-.57-5.53-.49ZM308.91,234.81c-1.1-.05-2.22-.11-3.35-.12,1.22-.12,2.42-.12,3.58.14h-.23ZM321.25,235.09c.17-.04.35-.08.53-.12,1.9-.38,3.9-.18,5.98.16-2.17,0-4.33-.02-6.51-.04ZM162.53,305.12c-2.76,0-5.5-.14-8.07-.53,1.03-.06,2.17-.05,3.35.04.92.07,1.84.17,2.76.27.67.07,1.35.15,2.03.21h-.06ZM185.5,303.72c-3.5.11-6.99.41-10.36.7l-2.45.21c-.71.06-1.42.12-2.15.17,1.3-.29,2.52-.66,3.72-1.03,2.31-.71,4.48-1.37,7.05-1.37h.02c1.83,0,3.58.35,5.43.72,1.04.2,2.1.41,3.19.56-1.48-.01-2.96,0-4.44.04ZM199.76,303.9l-2.87-.08c-.79-.02-1.59-.05-2.39-.06,1.55-.19,2.93-.58,4.28-.96,1.37-.38,2.67-.75,4.11-.91,3.12-.36,6.3.3,9.65.98,2.11.43,4.25.87,6.41,1.04-6.4.12-12.81.13-19.19-.02ZM311.59,302.54c-8.06.27-16.43.06-24.51-.15-7.09-.18-14.43-.37-21.62-.23-4.53.08-9.04.3-13.54.52-9.39.44-18.96.9-28.57,1.14.01,0,.02,0,.03,0,2.06-.3,3.74-.97,5.38-1.61,1.97-.78,3.83-1.51,6.18-1.51h.02c1.3,0,2.56.24,3.9.48,1.3.24,2.65.49,4.09.53,2.79.04,5.09-.67,7.32-1.39,1.95-.62,3.79-1.21,5.93-1.28,2.27-.08,4.37.41,6.61.93,1.97.46,4.01.93,6.21,1.02,2.58.07,4.95-.35,7.25-.78,2.27-.42,4.41-.87,6.68-.74,2.1.08,4,.56,6.01,1.08,1.26.32,2.52.64,3.85.87,3.64.62,7.51.5,11.22.38,1.28-.04,2.56-.08,3.84-.09,1.58-.02,3,.04,4.34.16-.2.22-.4.45-.61.67ZM343.37,249.29c-1.94.11-3.89.18-5.82.24l-30.84,1.03c-5.35.18-10.87.37-16.31.38-2.95,0-6-.04-9.01-.08l-3.35-.05c-8.1-.08-16.29-.02-24.24.05l-16.98.14c-4.27.04-8.85.37-11.45,2.38-1.78-1.29-4.66-1.47-6.1-1.47-.62-.02-1.27.02-1.91.05-1.84.06-3.59.13-5.11-.32-.57-.16-1.09-.39-1.61-.62-.84-.36-1.7-.74-2.75-.92-1.98-.34-3.8.11-5.58.54-.7.17-1.41.35-2.12.47-3.78.62-7.58-.4-11.61-1.49-1.68-.45-3.39-.91-5.12-1.25,1.13-.07,2.41-.01,3.67.19,1.02.17,2.04.39,3.06.61,2.57.55,5.25,1.14,8,.87,1.6-.14,3.12-.56,4.59-.96,2.18-.59,4.23-1.15,6.25-.75,1.15.23,2.16.75,3.23,1.31,1.52.79,3.08,1.61,5.13,1.65,2.1-.05,3.6-.7,5.13-1.4.99-.46,1.93-.89,2.95-1.1,1.97-.41,4.04.03,6.25.49,1.78.37,3.74.7,5.5.72,1.94-.03,3.72-.48,5.44-.91,1.71-.43,3.3-.92,5.03-.83,1.29,0,2.56.25,3.9.51.73.14,1.46.29,2.21.39,2.7.38,5.46.26,8.13.16l.54-.02c5.11-.21,10.32-.27,15.37-.33l41.95-.5c7.82-.09,15.89-.18,23.86-.01-.1.28-.19.55-.29.83ZM343.32,148.76c.09-.31.18-.63.27-.94,5.27,15.29,8.2,31.67,8.39,48.71h-9.77c.26-.56.56-1.17.92-1.82,1.41-2.59,3.35-6.14,2.66-9.96-.28-1.52-.93-2.78-1.56-3.99-.61-1.19-1.2-2.32-1.35-3.58-.24-2,.61-3.89,1.52-5.9.93-2.09,1.9-4.24,1.81-6.76-.09-2.32-1.07-4.19-2.01-6-.81-1.55-1.58-3.02-1.72-4.68-.14-1.66.34-3.32.86-5.08ZM325.66,124.64c1.24-3.3,1.35-7.08,1.45-10.41,0-.06,0-.13,0-.19.36.55.72,1.1,1.07,1.66-.56,1.49-1.05,3.05-.89,4.82.15,1.77.9,3.18,1.62,4.54.65,1.22,1.26,2.37,1.34,3.65.1,1.54-.57,3.01-1.27,4.56-.79,1.72-1.59,3.5-1.52,5.62.08,2.07.97,3.72,1.83,5.33.81,1.51,1.58,2.94,1.48,4.5-.08,1.26-.72,2.4-1.39,3.62-.36.65-.74,1.34-1.05,2.08,0-.03,0-.06,0-.08.13-2.2-.81-4.05-1.65-5.68-.73-1.42-1.42-2.77-1.4-4.23.01-1.09.42-2.17.86-3.31.57-1.48,1.16-3.02.98-4.81-.17-1.61-.92-2.88-1.59-4.01-.62-1.05-1.17-1.96-1.24-3.03-.08-1.15.4-2.28.9-3.47.17-.39.33-.78.48-1.17ZM329.47,181.81l.27.55c1.1,2.23,1.42,4.03.97,5.35-.26.75-.8,1.4-1.36,2.09-.56.68-1.17,1.42-1.55,2.31.11-.74.23-1.48.36-2.22.24-1.44.52-3.06.19-4.65-.24-1.15-.76-2.13-1.23-2.98-.49-.91-.92-1.69-1.01-2.59-.13-1.21.37-2.42.89-3.71.56-1.36,1.18-2.91,1.11-4.64-.08-1.85-.93-3.35-1.69-4.68-.68-1.2-1.32-2.33-1.34-3.59-.02-1.37.66-2.53,1.45-3.87.42-.71.87-1.48,1.22-2.32-.02.29-.02.58,0,.88.14,1.8,1.03,3.16,1.82,4.35.63.95,1.23,1.85,1.4,2.89.28,1.7-.52,3.25-1.44,5.04-.89,1.71-1.8,3.48-1.87,5.62-.07,2.36.94,4.38,1.83,6.17ZM328.05,196.53h-.85c.07-.61.15-1.22.23-1.83.09.69.32,1.29.62,1.83ZM317.18,191.37c.02-.18.04-.36.04-.55.03-1.51-.54-2.82-1.03-3.98-.44-1.01-.85-1.97-.82-2.93,0-.31.06-.62.14-.94,0,.13,0,.27.01.4.07,1.31.61,2.39,1.09,3.35.36.73.71,1.42.81,2.13.12.78-.03,1.62-.23,2.51ZM317.09,176.83c.01.65-.18,1.31-.44,1.99.02-.38.01-.77-.05-1.17-.18-1.1-.72-1.95-1.19-2.69-.41-.64-.75-1.19-.83-1.8-.06-.46.04-.96.2-1.48.31.76.71,1.44,1.09,2.07.64,1.08,1.2,2.02,1.22,3.09ZM313.9,140.78c.09-.6.29-1.16.48-1.73.16-.47.32-.93.44-1.41.15.94.27,1.82.13,2.62-.1.52-.29,1-.48,1.49-.16.42-.34.88-.48,1.38-.13-.83-.21-1.61-.1-2.35ZM315.02,149.69c.04.53-.05,1.08-.2,1.63-.04-1.03-.08-2.07-.16-3.13.18.51.32,1.01.36,1.5ZM313.89,159.05c.19.52.43,1.01.65,1.47.41.86.79,1.66.86,2.5.06.69-.09,1.41-.3,2.17-.25-.43-.53-.82-.79-1.18-.46-.63-.85-1.17-.99-1.8-.21-.95.17-2.02.59-3.16ZM313.23,167.45c.02.17.02.34,0,.51-.06-.51-.2-1.01-.36-1.49.18.32.31.63.35.98ZM313.24,176.33c.39.62.73,1.16.83,1.74.02.14.03.28.03.42-.02-.07-.05-.14-.08-.22-.48-1.18-1.38-1.92-2.16-2.57-.95-.78-1.33-1.17-1.31-1.79.02-.54.37-.94.98-1.61.2-.22.41-.45.62-.71-.13.59-.2,1.22-.11,1.88.15,1.17.71,2.06,1.21,2.85ZM313.74,196.53h-.09c-.12-.21-.2-.41-.23-.61-.05-.38.07-.75.32-1.23-.02.12-.03.25-.04.37-.04.51-.02,1.01.05,1.47ZM311.01,154.91c.07-.59.18-1.17.28-1.75.11-.64.22-1.28.3-1.93.25-2.01.24-4,.18-5.94.33,2.1.41,4.28.49,6.39.06,1.61.14,3.43-.27,4.98-.13.49-.31.97-.49,1.46-.19.51-.38,1.05-.54,1.61-.18-1.59-.17-3.22.04-4.82ZM310.01,166.17c.43,1.03.87,2.1.65,2.93-.14.51-.55.96-1.02,1.47-.71.77-1.6,1.73-1.65,3.24-.07,1.95,1.21,3.01,2.24,3.86.61.5,1.18.98,1.42,1.57.33.79.12,1.82-.13,3.01-.21,1.05-.44,2.13-.33,3.27.1,1.04.46,1.99.79,2.83l-4.49-1.14c-.28-.2-.5-1.53-.12-2.67.14-.43.32-.85.5-1.27.49-1.15,1.04-2.46.96-3.97-.1-1.94-1.16-3.38-2.11-4.66-.87-1.18-1.63-2.2-1.53-3.41.07-.94.65-1.71,1.32-2.61.71-.96,1.52-2.04,1.79-3.5.23-1.25,0-2.41-.22-3.53-.15-.75-.29-1.45-.27-2.11.02-.73.22-1.47.48-2.23-.03,2.97.51,5.94,1.59,8.59l.13.32ZM305.15,183.17l.02-.63c.07-1.58.15-3.55-.47-5.32-.2-.55-.46-1.06-.72-1.57-.22-.42-.44-.83-.6-1.29-.04-.1-.07-.2-.1-.3.39.76.9,1.45,1.37,2.09.8,1.08,1.55,2.1,1.61,3.27.05.92-.35,1.85-.76,2.85-.13.3-.25.6-.37.9ZM305.19,188.36c-.11.18-.21.37-.29.57l.05-1.08c.06.16.13.3.21.45.01.02.02.04.03.06ZM304.85,192.73c.19.57.45,1.12.7,1.66.36.77.68,1.44.77,2.14h-.24c-.16-.46-.37-.86-.56-1.22-.12-.22-.23-.43-.33-.65-.26-.61-.36-1.34-.39-2.09.01.06.03.11.05.16ZM308.87,133.07l.12,4.28s0-.01,0-.01c-.15-.69-.3-1.39-.35-2.08-.05-.74.04-1.47.23-2.19ZM308.05,144.02c.38-.58.81-1.23,1.07-2.04l.07,2.59c.06,2,.12,4.07-.11,6.07-.26-.75-.63-1.43-.96-2.05-.56-1.04-1.05-1.93-.91-2.85.08-.59.43-1.12.84-1.73ZM305.88,149.81c.44.81.86,1.58.97,2.37.16,1.09-.26,2.24-.69,3.44-.08.22-.16.45-.24.67.05-1.12-.08-2.23-.21-3.25l-.56-4.71c.22.52.48,1,.73,1.47ZM303.65,168.18l.1-.49c.38-1.9.73-4.48-.02-6.67.64-.44,1.17-1.11,1.53-1.86,0,.08,0,.17-.01.26-.02.94.15,1.82.32,2.67.18.93.36,1.81.22,2.58-.16.87-.7,1.59-1.32,2.42-.28.37-.56.75-.83,1.17,0-.02.01-.05.01-.07ZM301.28,154.43c.25-.53.49-1.06.69-1.6.38-1.02.6-2.1.75-3.17l.44,3.7c.16,1.36.33,2.77.04,4-.24,1.03-.82,1.71-1.18,1.65l-1.37-.1c-.13-.35-.25-.69-.29-1.02-.16-1.11.34-2.2.93-3.46ZM302.62,182.43l-.28,6.52c-.04-.89-.03-1.78-.02-2.66l.03-3.89c0-1.39,0-2.77,0-4.16.39,1.27.33,2.82.27,4.19ZM299.74,166.96c-.02-.62.31-1.26.68-1.98.42-.81.89-1.71.97-2.81.33,1.2.27,2.87-.16,5.03l-.1.48c-.1.51-.21,1.03-.3,1.56-.07-.11-.14-.22-.22-.33-.46-.69-.86-1.29-.88-1.94ZM296.39,188.01c.41,1.13.44,2.51.47,3.84.03,1.23.06,2.48.01,3.73l-3.22-1.22c.65-1.3.74-2.85.74-3.64,0-.56-.04-1.13-.07-1.69-.06-1.06-.12-2.06.05-2.98.06-.31.15-.63.23-.95.04-.16.08-.31.12-.47.25.69.6,1.3.91,1.87.28.49.56.98.75,1.52ZM293.43,161.9l.31-6.26c.08-1.63.19-3.28.45-4.8l.52,19.78c-.11-.95-.4-1.84-.66-2.65-.17-.52-.34-1.04-.46-1.56-.31-1.42-.23-2.99-.16-4.51ZM293.14,175.98l.36-.67c.5-.91,1.06-1.95,1.21-3.21.01-.1.02-.2.03-.3l.05,1.89c.05,1.71.1,3.48-.11,5.18l-.12.89c-.05.32-.09.64-.13.96-.3-.49-.68-.87-1-1.19-.32-.33-.61-.61-.74-.92-.25-.6-.07-1.59.46-2.64ZM290.29,184.89c.46-.74,1.02-1.67.99-2.79-.02-.64-.23-1.2-.52-1.7.28.38.58.69.85.96.4.4.65.66.76.99.17.54-.03,1.29-.24,2.09-.1.38-.2.75-.27,1.13-.23,1.23-.16,2.44-.09,3.61.03.51.06,1.03.06,1.55,0,1.48-.39,2.76-.96,3.1l-.06.04c.02-.37.18-.81.34-1.27.3-.83.66-1.86.39-2.98-.2-.86-.71-1.53-1.16-2.12-.33-.44-.68-.89-.71-1.2-.03-.35.3-.88.61-1.39ZM292.16,196.53h-.41c-.02-.06-.05-.12-.07-.18l.48.18ZM288.73,190.33l.35-.02c.03.31-.08.71-.24,1.15,0-.04,0-.08,0-.12.01-.36-.04-.69-.12-1ZM288.63,190.01c-.23-.62-.59-1.18-.93-1.69-.38-.57-.73-1.11-.72-1.51,0-.14.06-.31.14-.5,0,.06,0,.12.01.18.09,1.05.69,1.84,1.21,2.53.29.38.56.74.67,1.04l-.39-.07ZM287.66,180.58c.52.57,1.05,1.16,1.06,1.6.01.28-.19.67-.42,1.06,0-.23-.03-.48-.09-.73-.23-.88-.84-1.52-1.33-2.02-.29-.3-.64-.66-.68-.87-.02-.14.07-.38.21-.65.34.61.81,1.12,1.25,1.61ZM285.51,158.76c.06-.28.24-.61.42-.96.18-.34.38-.72.53-1.14.13.54.25,1.04.15,1.41-.06.23-.23.51-.41.81-.19.33-.42.7-.57,1.14-.12-.47-.19-.91-.12-1.26ZM286.66,164.51c.03.24-.06.53-.21.85-.04-.56-.07-1.12-.12-1.69.17.31.31.6.33.83ZM285.45,170.85s.05-.08.07-.12c.23.43.5.81.77,1.17.36.49.69.96.74,1.33.04.3-.1.68-.28,1.11-.31-.39-.67-.72-1-1.02-.36-.32-.76-.69-.85-.95-.11-.33.23-.94.55-1.52ZM285.33,194.81c-.13-.13-.27-.27-.3-.27.02-.08.15-.25.29-.42-.02.24-.01.46.01.69ZM284.88,176.17s0,.1-.01.16c-.02-.11-.04-.23-.07-.33.05.06.07.12.08.18ZM284.44,181.62c-.37-.26-.78-.48-1.16-.68-.38-.2-1.02-.55-1.12-.6.07-.15.52-.48.79-.67.22-.16.46-.33.7-.53-.05.3-.05.62.02.96.12.6.42,1.1.76,1.51ZM282.63,167.99c.07-.37.17-.74.27-1.11.11-.43.23-.86.31-1.3.26-1.33.25-2.65.2-3.93.32,1.32.41,2.68.49,4.13.06,1.02.12,2.08-.23,2.94-.12.3-.29.59-.45.89-.22.39-.45.81-.63,1.27-.16-.96-.15-1.93.04-2.88ZM280.51,153.72l.11,2.51s-.02-.06-.03-.09c-.14-.44-.28-.85-.31-1.2-.04-.39.06-.8.24-1.22ZM279.52,161.17c.43-.43.91-.91,1.21-1.56.01-.02.02-.05.03-.07l.07,1.57c.06,1.33.11,2.59-.09,3.79-.29-.62-.73-1.14-1.12-1.62-.38-.45-.85-1.02-.79-1.27.05-.2.4-.56.69-.84ZM279.9,174.71c.29-1.02,0-1.96-.22-2.71-.13-.43-.25-.83-.24-1.15.01-.38.22-.82.48-1.3.01,2.02.62,4.07,1.83,6.02.24.37.68,1.07.59,1.27-.08.19-.54.51-.87.75-.75.54-1.78,1.27-1.85,2.56-.1,1.67,1.37,2.46,2.44,3.04.5.27,1.14.61,1.32.91.15.24.02.68-.2,1.38-.23.73-.49,1.55-.36,2.46.06.42.2.81.37,1.17l-4.33-.72c-.09-.18-.1-.57.06-.88.13-.26.3-.52.47-.78.51-.8,1.16-1.79,1.06-3.02-.12-1.53-1.27-2.55-2.28-3.45-.66-.59-1.41-1.25-1.36-1.68.04-.37.63-.88,1.14-1.33.76-.67,1.63-1.43,1.94-2.55ZM276.26,182.09c-.04-.07-.08-.15-.13-.22.12.11.24.21.35.31.65.57,1.39,1.23,1.43,1.73.03.36-.31.89-.66,1.43-.16.24-.31.49-.45.73v-.14c.08-1.13.18-2.53-.54-3.85ZM276.66,189.67s-.05.08-.07.12c-.01.02-.02.04-.04.06l.02-.33s0,.02.01.02c.02.05.05.09.07.13ZM276.56,192.87c.2.39.47.77.74,1.15.33.46.65.9.68,1.23.01.12-.01.27-.06.44-.06-.83-.55-1.43-.91-1.88-.11-.12-.21-.25-.3-.38-.14-.22-.23-.48-.26-.79.03.08.07.15.11.23ZM277.65,164.92c.38.45.77.93.85,1.29.1.45-.25,1.09-.63,1.76-.1.19-.21.38-.31.59.01-.74-.11-1.45-.23-2.06l-.48-2.63c.25.38.54.73.8,1.06ZM275.55,172.11c.55-.32,1.01-.77,1.34-1.26-.01.7.18,1.33.35,1.88.15.5.3.98.21,1.28-.11.39-.65.86-1.16,1.31-.27.24-.56.49-.84.78.25-.86.63-2.48.11-3.99ZM272.8,167.92c.26-.37.51-.73.72-1.1.44-.77.68-1.57.84-2.35l.45,2.49c.14.79.3,1.61.07,2.24-.16.44-.69.8-1.25.88l-1.49-.07c-.08-.14-.14-.27-.16-.37-.09-.41.37-1.07.82-1.71ZM274.26,185.77l-.29,4.27c-.04-.56-.03-1.14-.02-1.7l.03-2.54c0-.85,0-1.69,0-2.54,0,.01.02.03.02.05.34.62.32,1.41.25,2.46ZM272.08,176.53c-.24-.24-.7-.69-.71-.86,0-.14.36-.6.55-.85.44-.55.98-1.23,1.09-2.11.26.49.37,1.34-.12,2.94l-.1.31c-.1.32-.2.65-.3,1-.14-.15-.29-.29-.43-.43ZM268.1,189.79c.33.6.36,1.41.39,2.2.02.68.05,1.35.03,1.99l-2.93-.72c.28-.6.43-1.29.42-2.03,0-.39-.03-.79-.07-1.18-.06-.65-.11-1.2.03-1.67.05-.19.13-.37.21-.56.05-.12.11-.26.16-.41.29.58.7,1.06,1.07,1.49.25.29.51.58.69.9ZM268.13,196.52h0s-5.24,0-5.24,0l-.05-1.31,5.28,1.3ZM265.06,172.46l.31-4.09c.08-1.09.19-2.16.45-3.12l.51,12.78c-.12-.74-.45-1.4-.73-1.97-.16-.31-.32-.62-.42-.94-.26-.78-.2-1.7-.13-2.66ZM264.64,182.01l.34-.42c.54-.65,1.16-1.39,1.35-2.39.02-.1.03-.2.04-.3l.05,1.23c.05,1.14.09,2.21-.1,3.23l-.12.56c-.04.18-.08.36-.12.55-.36-.47-.84-.78-1.23-1.04-.23-.15-.56-.36-.63-.49-.05-.07.03-.44.43-.95ZM263.45,185.59c.21.13.56.37.62.46.02.13-.15.54-.25.79-.11.28-.22.55-.3.81-.27.93-.19,1.83-.12,2.62.03.32.06.63.06.96,0,.28-.05,1.2-.7,1.52l-.27-7.88c.31.3.66.53.96.73ZM259.65,176.75l.58,16.99-.44.17c0-.22,0-.44,0-.66-.04-1.88-.26-3.72-.47-5.51-.23-1.9-.44-3.7-.46-5.54-.02-2.04.27-3.96.8-5.45ZM123.61,168.75c.19.86.27,1.78.35,2.74l.3,4.09c.07.93.14,1.88-.12,2.68-.11.32-.26.63-.41.95-.2.42-.42.88-.57,1.39l.45-11.84ZM123.06,183.26l.02-.72c.22.88.76,1.55,1.24,2.15l.33.42c.42.56.46.92.42.99-.08.12-.37.32-.6.48-.35.24-.77.53-1.1.93-.03-.15-.06-.3-.09-.44l-.12-.57c-.18-1.02-.14-2.1-.1-3.24ZM118.79,182.07c.16-.21.36-.41.55-.61.48-.49,1.05-1.07,1.29-1.86l-.14,3.56c-.05,1.22-.1,2.49.14,3.78l.13.66c.14.65.26,1.2.13,1.62-.11.34-.42.73-.76,1.14-.35.43-.69.86-.95,1.33-.61,1.14-.65,2.35-.68,3.33-.02.5-.03,1-.04,1.51h-.76c.05-.32.12-.64.2-.98.11-.52.22-1.04.29-1.57.11-.84.1-1.7.09-2.55l-.02-2.53c-.01-1.36,0-2.71,0-4.07,0-1.16.05-2.1.53-2.76ZM117.67,177.93c.2.27.54.71.54.87-.01.18-.42.59-.69.87-.11.11-.21.22-.32.34-.08-.31-.17-.61-.26-.9l-.1-.32c-.36-1.21-.42-2.13-.19-2.77.15.78.62,1.4,1.02,1.91ZM115.01,170.07l.39-2.2c.15.69.37,1.39.74,2.06.2.37.44.73.69,1.09.46.67.9,1.31.8,1.75-.02.1-.08.23-.15.36l-1.39.07c-.55.02-.99-.43-1.14-.86-.22-.63-.07-1.46.06-2.26ZM115.73,191.89l-.19-3c-.06-.92-.09-1.69.15-2.3,0,.78,0,1.55,0,2.32l.02,2.55c0,.14,0,.29,0,.43ZM114.21,175.23c-.49,1.45-.18,2.99.06,3.87-.22-.23-.45-.43-.66-.62-.5-.45-1.01-.92-1.12-1.33-.08-.31.05-.78.2-1.3.15-.51.31-1.09.33-1.72.31.43.71.82,1.18,1.11ZM112.99,189.01c-.1-.17-.21-.35-.32-.52-.34-.55-.66-1.08-.64-1.46.04-.51.72-1.14,1.38-1.75.05-.04.09-.08.14-.13-.01.02-.03.05-.04.07-.68,1.3-.59,2.73-.52,3.78ZM113.27,196.11c-.04.15-.09.29-.17.41h-.08c.09-.14.17-.28.24-.41ZM111.48,169.32c.08-.37.46-.84.82-1.3.2-.26.42-.53.62-.83l-.43,2.43c-.1.56-.21,1.19-.22,1.85-.06-.12-.13-.25-.19-.37-.38-.71-.7-1.32-.6-1.79ZM109.54,157.08c.11.33.16.66.13.98-.03.28-.11.59-.21.92l.08-1.89ZM109.24,164.23l.06-1.36c.29.58.71,1.02,1.09,1.41.29.3.62.64.66.85.06.28-.37.83-.76,1.31-.34.43-.72.9-.99,1.44-.17-1.16-.12-2.37-.06-3.64ZM108.49,178.44c1.03-1.72,1.58-3.64,1.62-5.58.2.4.35.78.36,1.1.01.32-.11.73-.23,1.16-.22.75-.48,1.67-.22,2.68.3,1.12,1.13,1.89,1.87,2.56.51.47,1.05.96,1.09,1.33.05.46-.64,1.09-1.3,1.71-.97.9-2.08,1.92-2.19,3.43-.09,1.21.52,2.2,1.01,2.99.16.26.32.51.45.78.16.33.16.74-.02.98l-3.98.67c.17-.37.31-.77.37-1.21.12-.9-.12-1.72-.34-2.44-.22-.72-.34-1.17-.19-1.42.17-.29.74-.61,1.25-.89,1.03-.58,2.44-1.37,2.35-3.03-.07-1.27-1.06-2-1.78-2.54-.31-.24-.75-.56-.83-.75-.09-.23.32-.9.7-1.53ZM106.29,168.88c.07-1.23.14-2.39.35-3.53-.03,1.09,0,2.21.21,3.33.08.44.19.88.3,1.31.09.37.19.73.26,1.1.17.89.19,1.79.06,2.69-.16-.37-.35-.73-.52-1.05-.16-.3-.32-.59-.43-.89-.35-.88-.28-1.94-.22-2.97ZM106.51,183.22c.06-.3.06-.59.03-.87.19.16.38.3.56.43.26.19.69.51.76.56-.1.18-.7.52-1.06.73-.31.17-.63.35-.94.56.3-.39.55-.86.66-1.41ZM103.8,159.96c.13.34.29.66.44.94.18.35.35.68.41.97.07.32.02.7-.07,1.11-.14-.35-.32-.67-.48-.95-.17-.3-.33-.59-.39-.81-.09-.34-.01-.77.1-1.26ZM103.85,167.03c-.04.41-.06.82-.08,1.23-.09-.24-.13-.45-.11-.65.02-.17.1-.37.2-.59ZM104.01,175c.23-.33.47-.68.68-1.06t0,0c.33.62.65,1.22.54,1.57-.09.26-.46.61-.82.95-.29.27-.61.57-.88.92-.16-.39-.27-.75-.23-1.04.05-.38.37-.85.72-1.34ZM102.7,183.68c.39-.45.81-.94,1.14-1.49.11.23.18.44.15.57-.04.22-.37.57-.66.88-.47.51-1.06,1.14-1.27,2.01-.05.19-.07.37-.08.55-.18-.34-.31-.65-.3-.9.01-.46.5-1.02,1.03-1.62ZM102.03,192.13c.49-.67,1.05-1.44,1.16-2.45.02.09.04.18.04.25.02.41-.33.96-.69,1.53-.32.51-.67,1.06-.89,1.69l-.27.05c.1-.32.37-.68.65-1.07ZM101.55,193.51c-.05.23-.09.46-.1.71-.07-.26-.12-.51-.12-.72h.22ZM98.18,185.45c.11-.33.35-.59.73-.99.17-.18.35-.37.53-.58-.18.41-.3.85-.32,1.34-.03,1.1.49,1.99.94,2.77.32.54.62,1.05.59,1.41-.02.33-.34.77-.68,1.23-.43.59-.92,1.26-1.11,2.1-.25,1.11.08,2.09.38,2.95.1.29.2.57.26.84h-.26c-.33-.58-.55-1.59-.54-2.69,0-.51.03-1.03.06-1.55.07-1.17.13-2.37-.09-3.6-.07-.37-.17-.75-.26-1.13-.2-.8-.4-1.56-.23-2.11ZM96.42,154.55c.18,1.35.27,2.78.34,4.2l.3,6.26c.07,1.52.15,3.1-.16,4.52-.11.53-.28,1.06-.44,1.58-.19.6-.38,1.21-.51,1.85l.47-18.41ZM95.86,176.82l.03-1.21c.2,1.09.68,2.01,1.11,2.83l.33.65c.53,1.08.68,2.06.44,2.67-.13.32-.38.59-.71.93-.27.29-.59.62-.86,1.03-.03-.28-.07-.55-.11-.82l-.12-.88c-.2-1.72-.15-3.49-.11-5.2ZM91.09,189.38l-.03-10.12c0-1.55,0-3.48.66-4.83.17-.35.38-.68.6-1.02.43-.68.91-1.43,1.13-2.36l-.14,5.7c-.04,1.72-.09,3.66.13,5.56l.12.94c.16,1.1.3,2.14.11,3.07-.14.71-.49,1.36-.86,2.05-.33.61-.65,1.23-.88,1.9-.53,1.52-.57,3.17-.6,4.64-.01.54-.02,1.08-.03,1.62h-.71c.05-.37.1-.74.15-1.11.11-.76.21-1.52.28-2.29.1-1.24.09-2.5.08-3.75ZM91,170.09c-.02.66-.4,1.27-.85,1.96-.04.06-.08.13-.12.19-.09-.49-.18-.98-.27-1.46l-.09-.46c-.38-1.99-.45-3.55-.22-4.73.13.95.53,1.76.89,2.48.37.74.68,1.37.66,2.01ZM87.82,156.47l.38-3.3c.14.93.34,1.87.66,2.76.19.54.43,1.07.66,1.6.54,1.21,1.05,2.36.89,3.48-.05.32-.15.66-.28,1.01l-1.28.1c-.14.05-.82-.54-1.07-1.64-.28-1.24-.12-2.72.03-4.02ZM88.54,190.21l-.19-4.65c-.05-1.23-.11-2.61.16-3.8l.03,7.65c0,.27,0,.54,0,.8ZM86.13,196.08c-.01.15-.02.3-.04.45h-.13c.06-.15.12-.3.17-.45ZM85.88,191.49s.01-.02.01-.02c.05-.08.09-.17.13-.26l.02.59c-.05-.11-.11-.21-.17-.31ZM85.79,185.66v.33c-.06-.19-.14-.38-.21-.58-.4-.99-.78-1.93-.73-2.87.06-1.18.75-2.15,1.55-3.29.36-.51.74-1.04,1.06-1.62-.15.4-.33.77-.52,1.14-.25.51-.5,1.03-.69,1.59-.59,1.75-.51,3.71-.45,5.29ZM85.83,162.52c.34.65.8,1.23,1.36,1.63-.73,2.18-.39,4.76-.03,6.66l.07.35c-.21-.32-.43-.63-.64-.92-.6-.84-1.12-1.56-1.27-2.44-.13-.78.03-1.66.21-2.6.16-.85.33-1.72.31-2.66v-.02ZM84.29,155.3c.11-.8.51-1.57.94-2.39.19-.36.38-.73.56-1.12l-.5,4.39c-.11.91-.22,1.9-.2,2.91-.04-.11-.08-.22-.12-.33-.42-1.21-.82-2.36-.67-3.46ZM82.35,136.63c.11.57.16,1.16.12,1.76-.03.49-.11.99-.21,1.48l.09-3.24ZM82.04,147.68l.06-2.3c.25.67.61,1.23.92,1.74.39.61.72,1.14.81,1.74.13.93-.34,1.83-.88,2.87-.29.55-.6,1.15-.84,1.81-.19-1.91-.13-3.91-.08-5.85ZM81.26,169.29l.13-.34c.99-2.54,1.51-5.39,1.52-8.25.2.65.34,1.27.36,1.9.02.67-.12,1.38-.26,2.13-.21,1.12-.43,2.27-.21,3.51.25,1.45,1.03,2.54,1.71,3.49.64.9,1.2,1.67,1.27,2.62.08,1.23-.64,2.25-1.48,3.44-.9,1.27-1.92,2.72-2.01,4.64-.07,1.5.45,2.8.91,3.95.17.42.34.84.48,1.28.37,1.17.14,2.48-.07,2.67l-4.21,1.05c.31-.82.64-1.73.73-2.73.1-1.14-.11-2.21-.32-3.26-.23-1.15-.44-2.23-.12-3.04.23-.59.75-1.04,1.36-1.56.99-.85,2.22-1.91,2.15-3.85-.05-1.49-.9-2.45-1.58-3.22-.45-.51-.84-.96-.97-1.47-.22-.85.21-1.91.62-2.95ZM79.1,154.81c.07-1.79.13-3.63.35-5.44-.02,1.65,0,3.32.2,4.98.08.65.19,1.29.29,1.93.1.58.19,1.16.27,1.75.19,1.51.21,3.04.07,4.55-.13-.46-.29-.9-.43-1.32-.17-.49-.34-.97-.47-1.47-.4-1.54-.33-3.29-.27-4.98ZM79.32,176.59c.07-.6.03-1.17-.08-1.72.16.19.31.36.45.53.59.67.92,1.07.94,1.62.02.65-.32,1.01-1.26,1.82-.73.63-1.55,1.34-2.02,2.44,0-.04.01-.07.01-.1.1-.6.42-1.14.8-1.76.47-.78,1.01-1.67,1.15-2.83ZM76.61,141.01c.11.39.23.77.36,1.15.19.56.38,1.13.47,1.73.09.67.04,1.38-.07,2.12-.11-.39-.25-.77-.38-1.11-.18-.49-.37-.97-.46-1.5-.13-.74-.05-1.54.08-2.38ZM76.67,151.73c-.05.78-.08,1.56-.11,2.33-.08-.42-.13-.84-.1-1.25.02-.36.11-.71.21-1.08ZM76.93,163.62c.19-.41.38-.85.56-1.32.38,1.08.7,2.11.51,3.03-.13.63-.51,1.18-.96,1.81-.23.32-.47.67-.68,1.04-.18-.71-.31-1.4-.26-2.06.07-.85.44-1.66.83-2.51ZM75.65,176.85c.33-.59.69-1.22.98-1.91.13.47.2.92.16,1.34-.08.62-.41,1.17-.8,1.82-.45.75-.96,1.59-1.14,2.68-.05.29-.07.56-.06.84-.19-.57-.31-1.12-.3-1.66.02-1.08.55-2.02,1.17-3.1ZM76.04,187.04c.02.97-.37,1.93-.79,2.94-.46,1.11-.98,2.36-.99,3.79-.11-.62-.16-1.22-.07-1.79.11-.72.43-1.41.78-2.14.45-.94.95-2,1.04-3.28.02.16.04.32.04.48ZM72.35,151.18c1.1-1.74,2.35-3.71,1.9-6.23-.02-.13-.05-.26-.08-.39.12.42.26.82.42,1.22.25.67.47,1.26.49,1.85.03.73-.22,1.47-.51,2.31-.28.79-.59,1.69-.66,2.68-.11,1.56.39,2.97.83,4.22.39,1.11.76,2.16.69,3.18-.06.85-.43,1.67-.83,2.54-.44.97-.94,2.08-1.05,3.37-.11,1.37.24,2.6.57,3.79.29,1.03.56,2,.49,2.91-.09,1.03-.62,1.96-1.18,2.95-.69,1.21-1.47,2.59-1.51,4.32-.02,1.38.44,2.59.85,3.67.37.97.72,1.89.67,2.79-.05.8-.39,1.53-.8,2.39-.39.83-.84,1.77-1,2.86-.2,1.4.08,2.69.36,3.93.08.34.15.67.21.99h-1.71c.3-2.93.2-5.94-.3-8.79l-.08-.45c-.23-1.28-.47-2.61-.14-3.62.14-.42.39-.81.68-1.25.39-.6.84-1.28,1.06-2.18.42-1.7-.12-3.29-.6-4.69-.31-.91-.6-1.76-.65-2.6-.07-1.32.47-2.57,1.05-3.9.6-1.39,1.22-2.82,1.28-4.53.06-1.9-.58-3.53-1.2-5.11-.57-1.47-1.12-2.85-.99-4.27.13-1.41.91-2.64,1.74-3.95ZM63.93,119.07c.28-.47.57-.93.85-1.4.09,3.25.23,6.89,1.38,10.07.14.38.29.77.45,1.15.49,1.21.95,2.34.87,3.5-.07,1.08-.59,2-1.2,3.05-.64,1.12-1.37,2.39-1.52,3.99-.17,1.78.39,3.31.93,4.79.42,1.15.82,2.22.83,3.32.02,1.47-.65,2.82-1.35,4.26-.81,1.66-1.65,3.37-1.59,5.46-.27-.63-.58-1.22-.88-1.78-.65-1.22-1.26-2.36-1.34-3.63-.1-1.58.64-3.01,1.42-4.52.82-1.6,1.68-3.26,1.75-5.32.07-2.11-.7-3.89-1.45-5.61-.68-1.55-1.32-3.02-1.23-4.58.08-1.29.67-2.45,1.29-3.67.69-1.36,1.41-2.76,1.55-4.52.14-1.7-.3-3.24-.77-4.57ZM64.89,179.06c.5,1.29.98,2.51.86,3.74-.09.91-.5,1.7-.98,2.61-.44.85-.95,1.82-1.18,2.97-.31,1.58-.05,3.2.19,4.68.1.62.19,1.24.29,1.86-.37-.74-.86-1.38-1.33-1.97-.55-.69-1.06-1.34-1.31-2.09-.44-1.34-.13-3.15.93-5.39l.27-.56c.85-1.78,1.81-3.79,1.75-6.13-.06-2.13-.94-3.9-1.79-5.61-.89-1.79-1.66-3.34-1.39-5.06.17-1.05.74-1.96,1.35-2.91.75-1.19,1.61-2.54,1.74-4.33.01-.2.02-.41.01-.6.31.72.69,1.39,1.05,2.02.76,1.35,1.41,2.51,1.39,3.9-.02,1.27-.64,2.4-1.29,3.61-.72,1.32-1.53,2.81-1.61,4.65-.07,1.72.5,3.19,1.06,4.62ZM42.21,196.27c.01-1.47.06-2.93.11-4.39.56-13.87,2.94-27.27,6.92-39.96.49,1.74.95,3.38.81,5.04-.14,1.67-.87,3.14-1.65,4.7-.91,1.81-1.84,3.67-1.93,5.98-.1,2.5.83,4.66,1.73,6.74.86,2.01,1.68,3.91,1.45,5.91-.14,1.27-.7,2.4-1.29,3.59-.6,1.21-1.22,2.46-1.49,3.98-.56,3.21.67,6.23,1.88,8.66h-6.54c0-.08,0-.17,0-.25ZM45.54,214.66c-.01.07-.02.14-.02.21-.1-.04-.2-.07-.31-.11-.14-.05-.26-.1-.36-.13.03-.12.06-.25.06-.38,0-.12,0-.32-.05-.55.14.02.29.04.43.06.19.02.38.05.57.07-.18.24-.29.51-.33.83ZM46.76,204.83c-.73.28-1.23.77-1.64,1.17-.28.28-.55.54-.77.61-.34.11-.9-.13-1.44-.34l-.31-.12s-.04-.02-.07-.03c.54-.24,1.05-.52,1.53-.84l1.35-.9,3.61.14c.14,0,.55.02.64.07.04.04.12.17.17.27.04.07.08.15.13.22-.95-.39-2.04-.69-3.19-.26ZM74.01,202.48c-.09.27-.15.55-.17.82h-.17c-1.35.04-2.7.06-4.05.08.02,0,.05-.01.07-.01l.47-.2c1.18-.81,2.64-1.24,4.11-1.27-.1.19-.19.38-.26.59ZM74.29,205.72l.25-.13c.21.24.45.45.74.61.02.01.05.03.08.04-.98.09-1.96.21-2.96.33.65-.24,1.28-.53,1.89-.85ZM76.63,210.72c-1.79.45-3.77.12-5.86-.29l.39-.03c2.68-.2,5.41-.39,8.2-.37l-2.72.69ZM76.46,203.23c.17-.4.53-.8.9-1.17-.22.33-.37.7-.45,1.12l-.45.05ZM104.04,213.49c-1.06.38-2.06.73-3.12.92-.04,0-.08.01-.13.02.65-.19,1.28-.4,1.9-.61.97-.32,1.9-.64,2.85-.85-.51.16-1.02.34-1.51.52ZM115.68,213.45c-.15,0-.3,0-.45-.01.82-.08,1.58-.26,2.32-.43.5-.11.99-.23,1.51-.31.07-.01.13-.02.2-.03-1.21.41-2.35.78-3.58.78ZM129.71,220.57c.5.29,1.08.61,1.83.8,1.54.39,3.13.03,4.53-.28l.95-.2c.93-.18,1.88-.27,2.85-.28-1.1.24-2.13.61-3.13.97-1.74.62-3.39,1.21-5.11.97-1.12-.16-2.05-.65-3.04-1.18-.77-.41-1.61-.86-2.6-1.16.92-.25,1.76-.38,2.54-.18.41.1.77.3,1.17.54ZM131.92,214.5l-.3.11c-.79.29-1.6.57-2.27.45-.47-.08-.58-.25-.94-.87-.19-.34-.44-.76-.81-1.16,2.86.28,5.75.42,8.63.48-1.49.2-2.95.51-4.31.99ZM172.59,213.55l-.54.19c-.81.3-1.59.62-2.35.55-.69-.02-1.3-.28-2.01-.57-.22-.09-.44-.18-.67-.27,1.99-.01,3.98-.02,5.98-.04-.14.04-.27.09-.41.13ZM181.84,207.58l-1.69,3.17c-5.18.11-10.36.13-15.55.15l-19.93.08c-5.69.03-11.58.05-17.27-.55l-1.15-.12c-2.5-.28-5.09-.56-7.61-.15-.57.09-1.12.22-1.67.34-.83.19-1.61.37-2.42.41-1.07.05-2.14-.15-3.28-.36-1.04-.19-2.11-.39-3.26-.42-2.27-.01-4.25.61-6.15,1.25-1.2.4-2.33.78-3.54.99-1.46.25-3.09.26-4.66.27l-15.66.05,2.68-2.63c.24,0,.48.02.71.03.83.05,1.65.12,2.46.19,1.13.1,2.26.2,3.4.24,4.44.11,8.91-.65,12.85-1.38l-.38.45,18.57-.38c.94-.02,2.24-.05,3.3-.76.32-.22.6-.48.88-.75.21-.21.4-.39.56-.48.31-.16.86-.06,1.4.23.33.17.63.38.93.59.43.29.87.58,1.34.81,2.56,1.27,5.48.69,8.23,0l3.52-.89-2.38,1.04,4.31.69c2.89.46,6.49,1.05,9.77-.19.35-.13.69-.28,1.03-.44.6-.27,1.17-.53,1.73-.62,1-.16,2.11.18,3.28.55.49.16.99.31,1.48.43,2.39.6,4.9.47,7.12.35l6.93-.36c2.11-.11,4.21-.22,6.32-.35,1.7-.12,2.28-1.12,2.26-1.95-.01-.44-.22-1.51-1.89-1.87l-3.55-.79,5.47-.43,1.79.35c6.53,1.29,13.21,1.65,19.87,1.09,2.36-.2,4.7-.52,7.05-.84,1.07-.14,2.15-.29,3.22-.43,2.21-.28,4.51-.51,6.79-.51h0c-.3.23-.53.53-.68.86l-24.84,1.57c-3.67.23-7.48.47-11.17,1.33l-.57.13ZM80.04,206.12l2.98-.49-.05.65c-.97-.06-1.94-.13-2.93-.17ZM90.48,202.67c-.21.15-.42.3-.63.43-.19.13-.39.24-.61.34l-.4-.05c.36-.25.68-.56.94-.96l.69-1.06,1.91.18c-.74.28-1.35.72-1.9,1.1ZM94.6,205.79c.98-.05,2,.08,3.07.21.79.1,1.59.2,2.39.23,1.26.04,2.54-.07,3.77-.18.96-.09,1.92-.18,2.88-.18.14,0,.27,0,.42,0-1.65.06-3.3.26-4.87.94l-1.87,2.03-.26-2.29c-3.2.15-6.43.19-9.66.1.02,0,.05-.01.08-.02,1.41-.41,2.74-.79,4.07-.86ZM113.2,203.82s.01.01.02.02c-.35,0-.71-.01-1.09-.04-.67-.05-1.33-.13-1.99-.2-.13-.02-.26-.03-.39-.05.69-.12,1.45-.32,2.13-.75.38-.24.72-.57.98-.95-.06.14-.1.27-.12.39-.11.57.06,1.14.47,1.58ZM120.68,205.12c.39-.11.8-.16,1.22-.16-.51.26-.89.63-1.19.93-.16.15-.31.31-.49.44-.45.3-1.28.32-1.94.33h-.55c.2-.11.4-.23.6-.35.8-.5,1.56-.97,2.36-1.19ZM119.02,202.7l1.38-.15c-.13.03-.26.06-.39.1-.32.09-.62.19-.91.32-.02-.09-.05-.18-.08-.26,0,0,0,0,0,0ZM121.55,202.41l.26-.21c.2-.16.36-.37.47-.59l1.58.95c-.61-.1-1.23-.16-1.86-.16-.15,0-.3,0-.45.01ZM126.55,205.73c2.45.49,4.95.69,7.49.72-2.28.57-4.46.96-6.16.12-.37-.18-.7-.41-1.04-.64-.1-.06-.19-.13-.29-.19ZM148.5,206.39c.53-.23,1.03-.45,1.51-.55.72-.14,1.46-.06,2.25.12-.77.17-1.47.48-2.09.75-.29.13-.59.27-.88.38-1.17.44-2.37.67-3.74.57l2.95-1.28ZM146.53,204.46c.06-.22.1-.43.1-.65l.68-.08.7.1c-.19.08-.37.16-.55.23l-.92.4ZM162.04,203.16c.69-.24,1.35-.53,2-.81.08-.04.17-.07.25-.11-.06.1-.11.19-.17.29-.11.2-.21.38-.3.48-.32.31-1.27.22-1.78.16ZM164.46,205.55c.41-.15.81-.38,1.16-.72.29-.28.48-.59.63-.86.63.7,1.74,1.03,3.2.93l.33-.03.92.47c-2.08.23-4.17.29-6.24.22ZM182.27,201.66c.17,0,.34.02.5.03-.14.04-.29.07-.43.11-.02-.05-.05-.1-.07-.14ZM204.14,200.59c.07-.2.11-.42.11-.65v-.14l2.65.47c-.92.11-1.84.22-2.76.33ZM194.13,210.42c-2.76.02-5.53.1-8.29.18l-3.09.09c2.82-.31,5.7-.43,8.52-.43,2.21,0,4.4.07,6.51.17-1.22-.01-2.45-.02-3.66-.01ZM209.26,208.6c-2.31-.16-4.62-.33-6.93-.48l8.8-.55-1.87,1.03ZM238.99,209.5c-.44.21-.87.42-1.31.61-.85.36-1.78.61-2.42.71-.18-.01-.35-.02-.52-.04l.05-.34c-6.18-1.39-12.51-2.26-18.87-2.59l2.61-1.44c.57.89,1.61.98,2.06,1.03l14.5,1.34.3-1.77c.04.21.12.41.24.59.59.93,1.69.94,2.11.94l3.4.02c-.77.28-1.46.62-2.15.94ZM231.37,205.86l-1.77-.16c.65-.23,1.24-.53,1.81-.84-.08.33-.1.67-.04,1ZM233.88,205.53c.12-.1.68-.25,1.68-.1l.2.03c-.12.16-.22.33-.29.51-.03.08-.06.17-.08.26-.49-.13-.98-.26-1.29-.49-.13-.09-.2-.21-.23-.21ZM256.65,207.07c-.5.1-.99.22-1.49.33-.15.04-.3.07-.45.11.16-.34.22-.73.15-1.12,3.51-.39,7.08-.42,10.56-.09-3.28-.04-6.14.23-8.77.77ZM255.15,202.2s.07-.04.1-.06c.94-.51,1.76-.96,2.59-.96.11,0,.23.01.35.03-.99.39-2.01.72-3.04.98ZM267,199.55c-.87.31-1.64.75-2.38,1.18-.16.1-.33.19-.49.29.01-.01.03-.03.04-.04l.47-.49-.14-.66c-.05-.24-.14-.47-.28-.67h4.22c-.48.09-.97.22-1.44.39ZM270.88,210.33c.08,0,.16,0,.24.01l10.53.4c-3.45.22-7.11,0-10.76-.41ZM287.03,209.98c-1.12.26-2.27.46-3.44.6l.14-1.57c1.2.28,2.38.58,3.51.92-.07.02-.14.04-.21.05ZM294.34,211.8c-1.04.23-2.03.45-2.78.22-.19-.06-.35-.14-.51-.22-.32-.15-.65-.3-1.04-.39.34-.28.61-.61.75-1.02,0,0,0-.01,0-.01.25.25.59.44.97.57.47.15.94.19,1.36.23l.36.04c.59.07,1.15.23,1.72.41-.28.06-.56.12-.84.18ZM288.27,206.2l-.11-.03c.84.02,1.66,0,2.52-.04,2.76-.12,5.52-.44,8.2-.76,1.84-.22,3.68-.43,5.52-.58,5.27-.43,10.56-.33,15.78.3l-16.93,1.67-.04-.61c-4.95.11-9.96.13-14.95.05ZM290.61,201.34c1.55.28,3.12.21,4.54.14l7.35-.35-1.52.1c-3.13.21-6.3.42-9.48.55l-.89-.44ZM314.16,199.14h3.74c.27.05.37.11.38.11h0c.01.09-.08.36-.3.51-.52.37-1.4.43-2.18.48l-.41.03-1.24-1.12ZM320.86,202.26c.06.13.14.25.22.36-.84-.11-1.68-.2-2.53-.29.31-.12.61-.27.9-.47.55-.38.98-.94,1.21-1.57-.08.31-.11.64-.08.95l-1.54.91,1.83.1ZM307.39,217.89c-.51-.14-1.02-.3-1.53-.46-.32-.1-.66-.2-.99-.31.65.02,1.29.05,1.92.11,1.82.17,3.55.54,5.37.93,1.32.28,2.65.56,4.01.77-2.89-.06-6-.29-8.78-1.04ZM350.86,216.99c-2.87-.1-5.88-.18-8.93-.16l-.41.07c-.17.06-.37.1-.56.13-4.22.73-8.56,1.26-13.04,1.58.96-.36,1.92-.7,2.89-1.03,7.61-2.59,14.28-3.6,20.33-3.14-.09.85-.18,1.7-.28,2.54ZM351.39,211.88c-6.43-.51-13.44.58-21.4,3.28-1.37.47-2.73.96-4.07,1.48-3.41.26-6.38.19-9.08-.19-1.41-.2-2.77-.49-4.14-.79-1.54-.33-3.12-.67-4.77-.87.67-.08,1.32-.18,1.97-.29.86-.13,1.73-.27,2.6-.35,2.12-.18,4.23-.01,6.48.18.84.07,1.69.14,2.53.19,4.17.24,7.27-.18,9.42-1.3l4.41-2.31-32.85-.71c-1.44-.03-3.07-.06-4.48-.39-.41-.1-.81-.22-1.2-.35l6.23-.72.94.37c4.2,1.65,8.98,1.15,12.84.75l8.16-.85.05,1.22,20.38.63c.49,0,1.24.04,1.92-.46.62-.45.92-1.19.82-1.97-.06-.41-.22-.8-.46-1.15l4,.28c-.09,1.45-.19,2.89-.32,4.32ZM326.22,203.44c.29-.05.56-.1.83-.07.16.01.31.08.41.08-.05.02-.11.05-.18.06-.29.06-.67,0-1.06-.07ZM330.02,204.12c.02-.07.04-.14.05-.21.03-.17.04-.34.03-.51.65.16,1.29.33,1.94.52-.67.06-1.34.13-2.01.2ZM334.55,201.93c-.19-.02-.61-.1-1.02-.23-.37-.12-.74-.23-1.12-.34.69-.26,1.34-.58,1.96-.91,0,.01,0,.02,0,.03-.14.59,0,1.1.19,1.44ZM339.53,205.92c.31-.01.63-.02.94-.04,0,.12.02.24.04.36l-.62-.21c-.12-.04-.24-.08-.37-.12ZM342.27,208.21h.04-.04ZM351.98,199.09h-13.43l.45-1.36h0s0,0,0,0l.11-.32c.09-.26.21-.54.31-.8h-1.32c.02.39.07.78.08,1.17l.04,1.32h-4.79l-.8-.93-.65.93h-4.99v.07c-.9.1-1.75.14-2.57.14-.33,0-.66,0-.98-.02-.5-.02-.99-.06-1.48-.12v-.07s-.69,0-.69,0c-.21.27-.38.55-.5.86.04-.14.06-.29.07-.44.01-.15-.04-.28-.05-.42h-3.32l-.27-.92c-.15-.5-.29-1.02-.4-1.56h-.44c.05.27.1.52.19.84l.48,1.64h-4.82l-.38-.6c-.35-.55-.68-1.16-.86-1.88h-2.09s0,.01,0,.02c.03.46,0,.91-.07,1.36l-.16,1.1h-4.93v-1.28c0-.38-.2-.77-.44-1.2h-.34c-.03.47-.06.94-.13,1.4l-.17,1.08h-19.03l.32-1.54c.06-.28.04-.37.03-.38-.04-.1-.26-.32-.41-.48-.02-.02-.04-.05-.07-.07h-3.19c-.02.08-.04.17-.06.24-.06.2-.12.41-.16.62l.02,1.3-1.48.31-.27-.04-2.01-.5-.52.54h-5.48l.91-1.79-.66-.16c-.07.26-.13.53-.15.8l-.11,1.16h-9.93l-.08-2.44c-.28.04-.53.11-.72.2-.04.38-.04.76-.08,1.13l-.15,1.11h-6.77v-1.28c-.04-.38-.03-.76-.04-1.14-.24-.02-.46-.05-.71-.07h-.56l-.27,2.48h-5.83l.35-1.56c.07-.31.15-.62.23-.92h-2.87c-.11.48-.24.95-.33,1.43l-.19,1.05h-5.54l.9-2.48h-.69l-1,9.63-1.66-8.17c-.1-.49-.2-.97-.3-1.46h-.71l-.43,2.48h-18.07v.53c.03.6.4,1.31,1.37,1.61-1.1.07-2.18.18-3.25.31.23-.29.35-.66.36-1.04,0-.53-.24-1.04-.63-1.41h-22.49l.02.41s-.09,0-.14,0c.04-.14.05-.27.06-.41h-33.33l-.41-2.46h-.29c-.1.47-.19.95-.29,1.43l-.2,1.03h-2.21l-.35-1.15-.09-.89c-.23.01-.43.01-.65.01.01.03.02.06.03.09l.61,1.71-1.73.23h-3.46l-.21-1.02c-.07-.33-.15-.65-.23-.97-.07.01-.14,0-.21.02-.82.17-1.55.46-2.27.75l.3,1.23h-5.62l-.07-.64c-.11,0-.21-.02-.33-.01-.32.04-.6.12-.89.2l-.05.04-.02.4h-.42c-.23.25-.49.53-.85.77h0c-.65.44-1.37.59-2.08.59-.84,0-1.66-.22-2.31-.43-.25-.08-.49-.17-.74-.26-.8-.12-1.56-.35-2.31-.66h-6.89v.07c-1.58.14-3.18.15-4.74.04v-.04l-.09.16c-.19-.08-.38-.16-.58-.22l-.07-.02h-8.07l.52-1.66c.06-.21.17-.38.26-.57l-.81-.25h-1.59c.18.41.29.86.21,1.39l-.17,1.09h-5.25l.17-1.43c-.03-.44-.14-.75-.28-1.05h0c.02.16.02.33.02.5,0,.31-.04.64-.13,1l-.24.98h-3.64l-.37-.34c-.62-.57-.97-1.35-1.21-2.14h-2.7c0,.39-.02.79-.01,1.18v1.29s-11.73,0-11.73,0l.64-1.57c-.54.04-1.07.1-1.61.13l-.65.04-.12.19.44,1.21h-.94c-.02.26,0,.52.09.77.08.2.18.39.32.56-.7.1-1.39.33-1.95.71l.88-.86-.59-.16-1.42.31c-5.42,1.18-11.02,2.41-16.76,2.07-1.48-.08-2.97-.27-4.47-.46-.28-.03-.54-.06-.82-.09-.24.09-.47.22-.67.41-.37.35-.58.81-.59,1.31,0,.33.08.68.28,1-.88-.15-1.69-.41-2.12-1.05-.16-.28-.38-.66-.77-.97-.73-.6-1.64-.63-2.17-.65l-2.04-.08c-.52.11-1.04.19-1.55.36-.77.28-1.38.5-2.1.5h-.02c-.39,0-.78-.1-1.14-.27,0-.24-.01-.47-.02-.71.28-.03.54-.04.74-.04l4.09.16c2.54-.52,5.24-.31,8.07.04.62-.25,1.29-.25,1.61-.23,4.09.26,8.19,0,12.19-.79,2.36-1.51,5.36-1.96,8.11-1.22l1.56.43.38-.08-.51-.8c.25-.02.49-.05.74-.07v-.07h-3.9l-.17-1.08c-.06-.38-.17-.76-.28-1.14.04.29.06.59.07.89l.04,1.32h-7.4l.22-1.47c.05-.33.03-.67.07-1.01h-.06c-.3.05-.61.07-.91.11.04.31.1.62.13.93l.18,1.44h-5.41l.23-1.48c.02-.1.03-.21.03-.31-1.61.16-3.22.27-4.84.38l.69,1.41h-3.46l-.08-1.26c-.68.03-1.35.06-2.03.08l.6,1.19h-2.37v.08l-.03-.07v.07h-.42c-1.4.06-2.83.12-4.28.12-.99,0-2-.02-3.01-.09l-.43-.03v-.07s-.18,0-.18,0c0-.24,0-.48,0-.72.08-.04.14-.1.22-.13l.06-1.63h8.05v1.36c.61-.01,1.2-.05,1.8-.07l-.64-1.28c-1.18-2.26-2.8-5.37-2.29-8.31.2-1.15.72-2.19,1.26-3.28.66-1.34,1.35-2.72,1.55-4.44.3-2.68-.69-4.99-1.65-7.22-.82-1.9-1.59-3.7-1.52-5.63.07-1.76.84-3.3,1.66-4.94.85-1.71,1.73-3.47,1.92-5.63.18-2.14-.38-4.1-.91-6-.4-1.42-.76-2.78-.83-4.13,3.03-8.65,6.8-16.96,11.24-24.83.05.4.08.81.04,1.22-.11,1.26-.68,2.38-1.28,3.58-.71,1.4-1.45,2.85-1.56,4.68-.13,2.17.66,3.99,1.43,5.75.66,1.52,1.29,2.96,1.24,4.5-.05,1.48-.74,2.82-1.47,4.23-.9,1.76-1.84,3.57-1.7,5.85.11,1.82.92,3.34,1.63,4.68.74,1.39,1.39,2.59,1.28,3.97-.08,1.15-.67,2.07-1.35,3.15-.69,1.08-1.46,2.3-1.71,3.88-.41,2.52.62,4.59,1.62,6.6.76,1.53,1.48,2.97,1.52,4.54.05,1.72-.7,3.29-1.49,4.95l-.27.58c-1.35,2.85-1.7,5.3-1.04,7.28.39,1.18,1.1,2.08,1.73,2.88.84,1.06,1.35,1.77,1.32,2.73,0,.01,0,.02,0,.03,1.62-.16,3.23-.36,4.84-.57-.18-1.37-.36-2.74-.59-4.14-.21-1.27-.42-2.59-.2-3.72.16-.79.54-1.52.94-2.28.1-.2.2-.43.3-.63-.11-1.02-.12-2.06.21-3.08.18-.56.44-1.01.7-1.43-.16-1.18-.56-2.27-.97-3.32-.48-1.23-.93-2.4-.88-3.58.05-1.25.66-2.36,1.3-3.54.74-1.35,1.58-2.89,1.61-4.79.03-2.07-.9-3.73-1.72-5.19-.69-1.23-1.35-2.39-1.42-3.71-.08-1.51.6-2.91,1.32-4.38.8-1.64,1.63-3.33,1.61-5.41-.02-1.54-.51-2.88-.99-4.18-.47-1.27-.91-2.46-.79-3.66.1-1.05.63-1.98,1.2-2.97.66-1.16,1.42-2.48,1.53-4.15.12-1.75-.51-3.28-1.05-4.64-.14-.35-.29-.71-.42-1.06-.49-1.35-.76-2.86-.93-4.4-.28-.87-.48-1.79-.49-2.8,0-.67.08-1.29.2-1.9,0-.16-.01-.33-.02-.49-.04-1.36-.06-2.87.3-4.11.59-.89,1.18-1.77,1.79-2.65-.02.28-.04.56-.09.82-.18,1.06-.56,2.08-.97,3.15-.39,1.05-.78,2.12-1.01,3.28.04,1.53.11,3.13.28,4.7.37,1.14.87,2.21,1.39,3.24.75,1.5,1.47,2.92,1.61,4.52.13,1.42-.19,2.92-.53,4.5-.46,2.19-.94,4.45-.21,6.67.25.77.63,1.43.97,2.01.4.69.74,1.29.86,1.98.27,1.55-.57,2.88-1.55,4.42-.91,1.44-1.94,3.06-2.12,5.08-.19,2.02.49,3.76,1.16,5.44.55,1.4,1.07,2.72,1.02,4.08-.04,1.22-.54,2.38-1.07,3.6-.67,1.54-1.36,3.13-1.25,5.05.06,1.19.43,2.26.78,3.29.42,1.22.78,2.28.54,3.25-.12.48-.39.91-.72,1.4-.09.13-.18.29-.27.43.07.52.1,1.05.05,1.61-.11,1.13-.53,2.05-.95,2.9.07.61.16,1.21.26,1.78l.08.44c.48,2.73.49,5.62.17,8.44h.11s11.12,0,11.12,0l.12,2.48h.65c.02-.3.11-.59.28-.86l.23-.35-.18-.5c-.18-.5-.44-.99-.72-1.48-.31-.56-.61-1.1-.7-1.62-.11-.62.05-1.26.29-1.96l4.6.46c.22.22.43,1.35.12,2.28-.15.48-.36.93-.57,1.39-.13.29-.26.59-.38.88l-.08.19c3.63-.24,7.27-.52,10.82-.9h.29c0-.55,0-1.1.02-1.65.03-1.33.06-2.71.46-3.85.19-.54.46-1.04.72-1.53.27-.51.57-1.06.8-1.68.02.1.05.19.07.29.08.32.17.64.22.96.17.92.11,1.93.05,3-.03.56-.06,1.12-.06,1.69,0,.6.08,1.69.42,2.78h5.55s0,0,0,0h5.31c-.23-.53-.59-.98-.89-1.34-.25-.29-.53-.62-.58-.82-.04-.15.04-.38.17-.64l4.93.32c.08.08.13.44,0,.71-.14.29-.34.56-.53.83-.2.29-.4.6-.59.94h3.8l-.42-.29,4.25.29h3.48c0-.5,0-1,.02-1.49.02-.79.05-1.6.38-2.21.17-.33.42-.62.67-.91.32-.39.68-.83.95-1.35.04.1.07.19.11.28.07.19.15.38.2.57.13.48.08,1.08.03,1.7-.03.39-.06.78-.07,1.17,0,.75.15,1.44.42,2.04l-.83.22h.13,0s2.92,0,2.92,0h4.86l.62-18.79c.44,1.45.69,3.25.67,5.17-.02,1.85-.22,3.65-.44,5.56-.2,1.78-.41,3.63-.45,5.5-.02.85.05,1.71.1,2.57h6.91c-.02-2-.22-3.97-.47-5.89-.09-.68-.18-1.36-.26-2.03-.2-1.72-.27-3.24-.21-4.56l.96,2.72,1.05,9.77h1.17l-1.06.99.09.86c.57-.02,1.14,0,1.63.06.39.04.78.12,1.16.08.81-.02,1.64-.36,2.52-.71.02,0,.05-.02.07-.02l-.21-.87c-.71-2.81-.64-6.12.19-8.84.05-.18.11-.33.16-.46.08.23.18.54.28.95l1.8,7.31c.09.37.18.76.26,1.14,1.2-.21,2.37-.15,3.5-.08l.89.05c.17,0,.4,0,.6,0-.65-1.82-1.19-3.74-.88-5.47.15-.86.67-1.29.73-1.26.16.37.22.99.27,1.49l.53,5.23c.57-.03,1.16-.12,1.67-.34l.51-.11h.96c.05-.25.1-.52.16-.79l.13.81,3.06.04c1.19.38,2.38.3,3.63.22,1.57-.1,3.19-.21,4.78.42l.55.23c.27.12.93.4,1.04.34.41-.32.59-.46.78-.57.94-.55,1.94-.46,2.74-.39l.36.03c.99.07,1.96-.08,3.14-.31l9.32-.02,3.03.91c1.21.36,1.32,1.27,1.32,1.54,0,.01,0,.02,0,.03h.07l-.03-.92,4.74-.55.04-1.02h11.33v.96s4.87.85,4.87.85c.4.07,1,.18,1.52.62.02.01.02.04.04.05h2.15v-.02l.49-.63c.53-.53,1.32-.57,1.71-.57l12.73.46c1.05.05,2.15.04,3.09-.16v-1.57h.49l.32-1.85c.13.62.26,1.23.38,1.85h2.97l.58-5.56c.05-.52.11-1.11.25-1.59.18.02.73.48.9,1.37.33,1.76-.26,3.7-.95,5.53l-.09.25h5.16c.11-.47.21-.96.33-1.42l1.88-7.31c.13-.52.25-.87.33-1.11.07.16.16.36.24.62.86,2.71.94,6.01.2,8.82l-.1.38s0,.01,0,.02h5.52l1.04-9.45.05-.8,1.17-3.22c.08,1.37,0,2.95-.21,4.76-.08.68-.18,1.36-.27,2.04-.3,2.2-.59,4.46-.52,6.74,1.85.14,3.65.29,5.43.5l.99.11c.15-.16.36-.31.63-.44.08-.79.17-1.58.18-2.39l.48.12.07,2.07s.07-.03.12-.03h11.12c.08-.2.19-.39.25-.6l.37-1.13,2.33.58c.03-.18.1-.36.11-.54.12.18.26.35.4.51.05.06.11.13.16.19l3.22.79-.18.19h2.09c.13-.46.26-.99.21-1.59-.09-1.03-.66-1.81-1.15-2.5-.2-.27-.4-.54-.55-.83-.14-.26-.07-.61.04-.68l5.2-.36c.14.27.24.51.2.66-.06.2-.36.54-.61.82-.6.67-1.41,1.6-1.13,2.89.16.72.6,1.2.98,1.59h5.25c-.08-.16-.16-.32-.26-.53-.34-.64-.69-1.3-.63-1.79.03-.26.19-.59.36-.95.03-.06.06-.12.09-.18-.05.26-.08.54-.07.82.01,1.01.41,1.87.76,2.63h7.83s-.45.11-.45.11c.6.13,1.07.3,1.51.51l1.98.94-2.85-1.57h5.94c.01-.19.05-.37.05-.56.08.16.16.31.25.47.02.03.03.06.04.09h5.59c-.08-1.28-.59-2.35-1.03-3.3-.22-.45-.43-.91-.59-1.39-.31-.92-.1-2.04,0-2.2l5.06-.46c.24.68.39,1.29.28,1.89-.1.52-.4,1.05-.73,1.61-.54.93-1.2,2.08-1,3.52.02.12.08.22.1.33h5.38c-.1-.49-.15-.94-.12-1.34.05-.57.23-1.16.42-1.78.05-.15.09-.3.14-.46-.12.61-.2,1.24-.2,1.9,0,.58.08,1.15.19,1.69h1.38c.99.19,1.54.46,1.95.88.42.42.62,1,.66,1.6h.47c.15-.19.31-.38.5-.54.06-.05.16-.07.23-.12l.1-1.82h2.27l-.02-.1c-.87-3.71-.97-7.67-.29-11.45l.08-.47c.12-.62.23-1.28.29-1.94-.41-.8-.79-1.67-.9-2.72-.05-.51-.03-1,.02-1.49-.12-.2-.25-.4-.37-.57-.33-.49-.62-.91-.75-1.4-.25-.96.13-2.01.56-3.22.37-1.03.75-2.1.81-3.3.11-1.93-.61-3.53-1.31-5.07-.55-1.22-1.07-2.37-1.11-3.59-.05-1.35.49-2.67,1.06-4.07.69-1.69,1.41-3.43,1.21-5.46-.2-2.04-1.27-3.67-2.22-5.1-1.01-1.54-1.89-2.86-1.61-4.39.13-.69.48-1.28.9-1.97.35-.58.74-1.24,1.01-2.01.77-2.23.26-4.5-.22-6.69-.35-1.58-.68-3.07-.55-4.48.15-1.59.9-3.01,1.68-4.51.64-1.22,1.27-2.47,1.64-3.87.12-1.23.17-2.46.21-3.66-.21-1.34-.69-2.55-1.16-3.73-.42-1.07-.82-2.08-1.01-3.15-.07-.4-.1-.81-.1-1.24.61.83,1.2,1.67,1.79,2.51.02.04.04.07.06.11.54,1.32.49,3.11.45,4.56,0,.3-.02.62-.03.93.08.48.12.97.12,1.48,0,.78-.14,1.49-.33,2.18-.17,1.74-.46,3.46-1.04,4.99-.13.36-.29.72-.44,1.07-.57,1.36-1.22,2.89-1.1,4.65.12,1.68.9,3,1.6,4.17.59.98,1.14,1.91,1.25,2.95.12,1.18-.34,2.38-.82,3.64-.5,1.3-1.02,2.65-1.03,4.2-.02,2.09.88,3.86,1.68,5.43.75,1.47,1.46,2.86,1.37,4.36-.08,1.3-.76,2.46-1.48,3.69-.86,1.46-1.83,3.12-1.8,5.21.03,1.91.91,3.45,1.68,4.81.67,1.17,1.3,2.28,1.35,3.52.05,1.17-.42,2.33-.92,3.56-.43,1.05-.89,2.21-1.04,3.46.24.38.47.79.64,1.28.33.96.33,1.96.24,2.92.14.27.27.57.41.82.42.77.81,1.49.98,2.28.23,1.12.01,2.43-.22,3.76-.39,2.34-.73,4.7-1,7.07v.02s2.24,0,2.24,0l.05.88c.09,0,.19,0,.28,0,.79.03,1.57.07,2.36-.01.76-.07,1.44-.3,1.95-.62l-.14-.16c-.86-.98-1.38-1.63-1.41-2.54-.04-.97.5-1.66,1.37-2.73.66-.8,1.4-1.7,1.81-2.88.7-2.02.34-4.41-1.09-7.32l-.28-.56c-.83-1.66-1.62-3.23-1.56-4.94.05-1.56.79-3,1.58-4.52,1.04-2.01,2.12-4.09,1.7-6.63-.26-1.58-1.08-2.81-1.79-3.89-.71-1.07-1.32-1.99-1.4-3.13-.11-1.37.56-2.57,1.33-3.95.74-1.34,1.59-2.86,1.71-4.7.15-2.3-.83-4.11-1.77-5.87-.76-1.41-1.47-2.74-1.52-4.21-.06-1.52.6-2.95,1.29-4.47.81-1.77,1.64-3.6,1.5-5.78-.12-1.83-.89-3.28-1.63-4.69-.63-1.19-1.22-2.32-1.34-3.57-.05-.56.02-1.11.14-1.68,4.56,7.59,8.49,15.61,11.71,23.97.03.19.05.39.06.59.07,1.6-.39,3.18-.88,4.85-.56,1.91-1.14,3.88-.95,6.03.19,2.17,1.11,3.93,2,5.64.85,1.63,1.65,3.17,1.72,4.92.08,1.91-.73,3.71-1.58,5.61-1,2.24-2.04,4.54-1.72,7.24.2,1.73.92,3.11,1.61,4.46.57,1.09,1.1,2.13,1.31,3.27.53,2.93-1.15,6.02-2.39,8.28-.63,1.16-1.08,2.16-1.45,3.13h1.36l-1.78,1.12h0s.52-.21.52-.21c.95-.39,1.97-.68,3.11-.89l9.34-.02c0,.54.02,1.08.02,1.63,0,.28,0,.57-.01.85ZM61.04,199.95c2.34-.21,4.69-.47,7.01-.79h2.47c-3.14.56-6.31.92-9.48.79Z"/>
  <path d="M139.29,196.6h-1.06c0,.42.05.84.03,1.26l-.04.79s.03,0,.05,0l1.12-1.05-.11-.99Z"/>
  <path d="M136.23,199.39l.63-.25s.08-.03.12-.05h-5.49l-.12-1.15c-.05-.45-.03-.89-.05-1.33h-.5l-.08,2.48h-.8l.72.26c.38.14.77.27,1.15.41,1.5.22,3.04.16,4.43-.36Z"/>
  <polygon points="324.61 196.6 324.37 196.6 324.54 197.3 324.61 196.6"/>
  <path d="M141.54,227.73c-2.83.59-5.74,1.2-8.55.92-1.29-.12-2.55-.43-3.88-.75-2.19-.54-4.46-1.08-6.87-.77-1.09.14-2.07.45-3.03.74-1.17.36-2.24.77-3.44.69-.72-.01-1.45-.16-2.23-.33-.69-.14-1.39-.29-2.11-.35-2.29-.18-4.43.43-6.5,1.03-2.13.62-4.13,1.2-6.07.8-1.05-.22-1.94-.73-2.88-1.27-1.08-.62-2.2-1.26-3.67-1.56-2.29-.46-4.52.07-6.67.59-.71.17-1.41.34-2.11.47-3.32.62-6.97.3-10.49-.02-.88-.08-1.75-.16-2.62-.22-6.2-.47-10.64.24-13.48,2.1l-4.55,2.68,33.95.93c1.33.04,2.71.07,3.89.39.54.15,1.04.36,1.53.56.68.28,1.37.55,2.12.73.78.18,1.55.26,2.31.26,1.81,0,3.59-.42,5.33-.84,1.8-.43,3.51-.9,5.21-.79.89.02,1.76.16,2.62.29.85.13,1.7.26,2.56.31,1.94.11,3.81-.21,5.62-.52.55-.1,1.09-.19,1.64-.27,3.87-.57,7.98-.54,11.94-.51,1.69.01,3.37.02,5.03,0,7.52-.13,12.95-1.31,16.6-3.62l2.59-1.63-2.98-.7c-3.6-.85-7.27-.09-10.82.64ZM64.19,230.25c1.75-.17,3.77-.16,6.04,0,.86.06,1.72.14,2.59.22.06,0,.11.01.17.02l-8.79-.24ZM94.47,232.61c-.62-.15-1.18-.38-1.75-.61-.59-.24-1.18-.48-1.83-.66-1.47-.4-3.07-.45-4.49-.49l-4.4-.12c.67-.06,1.33-.15,1.99-.27.74-.14,1.49-.32,2.24-.5,1.96-.48,3.81-.93,5.56-.57,1.06.22,1.96.73,2.91,1.27,1.07.61,2.18,1.25,3.63,1.55.38.08.75.13,1.13.16-1.75.38-3.41.61-5,.24ZM118.8,231.01c-.56.08-1.13.18-1.7.28-1.75.3-3.43.57-5.05.49-.78-.04-1.54-.17-2.31-.28-.98-.15-1.96-.3-2.96-.32-.09,0-.18,0-.27,0-.06,0-.13,0-.19,0,1.69-.48,3.32-.86,4.89-.74.61.06,1.21.18,1.8.31.86.18,1.74.37,2.72.38,1.48.04,2.92-.39,4.23-.8.89-.28,1.73-.53,2.6-.65,1.94-.26,3.89.22,5.94.72.11.02.21.05.31.07-3.25.03-6.72.06-10.02.55Z"/>
  <path d="M114.64,198.74l.47-.12v-.15s-.21-.06-.21-.06c-.02.03-.04.05-.06.08l-.2.26Z"/>
  <path d="M191.92,236.24c1.43,0,2.88-.1,4.27-.42.64-.15,1.27-.34,1.89-.53,1.05-.32,2.03-.63,3.07-.68,1.36-.05,2.59.31,3.93.69,1.15.33,2.34.66,3.64.77,3.96.31,7.39-1.52,10.48-3.56l2.86-1.9-3.41-.44c-2.44-.31-4.89-.01-7.26.29-2.59.31-5.05.62-7.35.14-.76-.16-1.48-.4-2.19-.64-1.07-.36-2.18-.73-3.45-.87-1.9-.21-3.72.12-5.47.45-1.47.28-2.83.53-4.26.47-.89-.05-1.77-.22-2.69-.41-1.1-.22-2.23-.45-3.46-.47-1.54-.06-2.91.3-4.26.6-1.02.23-1.97.44-2.95.52-1.6.12-3.17-.13-4.86-.39-.64-.1-1.28-.2-1.93-.28-2.12-.26-4.99-.32-7.05.82-.6.01-1.17.02-1.76.08l.1,2.55,1.84.03.49-.08c1.8.08,3.64.43,5.43.78l1.22.23c6.27,1.16,12.78,1.62,19.07,2.07,1.29.09,2.66.19,4.05.19ZM211.7,232.99c.57-.07,1.13-.14,1.68-.2-1.39.54-2.86.86-4.45.72-.34-.03-.68-.08-1.02-.14,1.27-.07,2.54-.22,3.79-.38ZM178.83,232.22c1.26-.29,2.33-.46,3.67-.54.98.01,1.95.21,2.97.42.98.2,1.99.4,3.07.45,1.71.1,3.3-.22,4.86-.5,1.64-.31,3.18-.59,4.71-.42.73.08,1.42.27,2.13.49-1.04.14-1.99.43-2.92.72-.56.17-1.12.35-1.7.48-2.38.55-5.13.35-7.57.18-3.6-.26-7.28-.52-10.93-.91.58-.11,1.15-.24,1.7-.36Z"/>
  <path d="M282.31,269.23c4.44-.2,9.03-.43,13.5-.08,1.23.1,2.46.23,3.68.37,2.14.24,4.35.49,6.59.51,6.64-.03,12.89-1.89,18.37-3.61l7.3-2.3-68.4-1.84c-5.52-.14-11.22-.3-16.7.64-.76.13-1.51.28-2.27.43-2.43.49-4.71.96-7.08.73-1.89-.18-3.64-.79-5.5-1.43-2.32-.8-4.74-1.54-7.43-1.58-2.73.05-5.02.98-7.24,1.89-2.08.84-4.04,1.64-6.28,1.7-2.16.15-4.21-.6-6.38-1.29-2.12-.68-4.31-1.38-6.73-1.42-2.36-.05-4.64.57-6.78,1.17-2.11.59-4.12,1.14-6.22,1.06-2.28-.09-4.3-.91-6.45-1.78-2.14-.87-4.36-1.77-6.93-1.96-2.62-.19-5.03.39-7.37.95-1.58.38-3.06.73-4.61.87-2.78.25-5.53-.2-8.46-.67-1.24-.2-2.49-.4-3.73-.55-4.89-.57-9.84-.31-14.63-.05l-22.19,1.22-14.28-1.98,9.84,3.91c5.64,2.24,12.04,4.78,19.06,5.62,2.95.35,5.97.4,8.89.45l64.94,1.02c6.29.1,12.57.2,18.86.2h.89c5.07,0,10.13-.06,15.18-.17,10.87-.25,21.88-.76,32.53-1.26l15.99-.76ZM233.73,268.69c-5.33.12-10.62.2-16.01.17-6.27,0-12.54-.11-18.81-.2l-64.95-1.02c-2.85-.04-5.8-.09-8.62-.43-3.86-.47-7.57-1.48-11.07-2.68l18.47-.99c4.68-.25,9.52-.51,14.2.04,1.21.14,2.41.34,3.62.54,2.95.48,6,.97,9.1.69,1.73-.16,3.38-.55,4.97-.93,2.24-.54,4.35-1.04,6.58-.88,2.17.16,4.1.95,6.16,1.77,2.25.91,4.58,1.86,7.31,1.97,2.56.11,4.8-.54,7.01-1.16,2.05-.57,3.99-1.17,6.04-1.08,2.04.04,3.97.65,6,1.3,2.27.72,4.64,1.4,7.22,1.41,2.7-.07,4.97-.99,7.18-1.89,2.09-.85,4.08-1.65,6.33-1.7,2.32-.11,4.34.68,6.54,1.44,1.92.67,3.9,1.35,6.1,1.56,2.73.26,5.31-.26,7.82-.76.73-.14,1.47-.29,2.2-.42,5.24-.9,10.81-.75,16.2-.6l52.48,1.41c-3.01.71-6.15,1.22-9.37,1.22-.1,0-.19,0-.29,0-2.1-.02-4.25-.26-6.33-.49-1.26-.14-2.51-.28-3.77-.38-4.62-.36-9.3-.14-13.82.08l-15.99.75c-10.64.5-21.63,1.02-32.47,1.26Z"/>
  <path d="M331.88,196.6l-.32.21s-.05.02-.07.03l1.13,1.31,1.09-1.56h-1.84Z"/>
  <polygon points="122.51 196.71 122.92 196.61 122.5 196.61 122.51 196.71"/>
  <path d="M289.58,198.68l-.07-.75c-.1-.44-.29-.87-.5-1.32,0,0,0,0,0-.01h-.24c.14.28.25.53.34.76l.48,1.31Z"/>
  <polygon points="109.94 196.6 109 196.6 109.01 196.61 109.94 196.61 109.94 196.6"/>
  <rect x="121.05" y="196.6" width="1.45" height="0"/>
  <path d="M325.1,197.47c-.19,0-.32.06-.49.08l.38,1.54h2l-.08-1.61c-.6-.02-1.2-.05-1.8-.02Z"/>
  <path d="M274.67,196.61l.37-.37c.29-.29.34-.41.35-.43h0s-.1-.08-.18-.17l-.67-.16c-.05.38-.11.76-.23,1.15h.37Z"/>
  <path d="M337.41,189.66l-1.92,4.1c-.48,1.02-1.11,1.91-1.77,2.85h4.38c-.04-.83-.07-1.66-.17-2.48l-.52-4.47Z"/>
  <path d="M334.1,166.37c-.52,1.07-.75,2.1-.69,3.17.02.48.11.94.25,1.42l1.95,6.62.56-6.88c.1-1.2.21-2.41.36-3.6l.91-7.15-.07-.22-3.26,6.64Z"/>
  <path d="M337.12,147.93l-2.45-3.73-.42,3.5c-.06.47-.08.96-.08,1.45.05,2.18.82,4.15,1.58,6.06.26.65.51,1.3.73,1.95l.87,2.58.14-.28-.06.5.51,1.51,1-4.44c.51-2.27.51-4.09-.01-5.74-.42-1.32-1.13-2.36-1.81-3.35Z"/>
  <path d="M55.03,162.86l.85-2.6c.21-.64.45-1.28.7-1.93.72-1.91,1.47-3.88,1.51-6.05.01-.49-.02-.97-.07-1.45l-.43-3.6-2.42,3.84c-.66,1-1.34,2.04-1.74,3.36-.5,1.64-.5,3.46-.01,5.71l1,4.63.49-1.48-.11-.94.25.53Z"/>
  <path d="M58.17,169.51l-3.14-6.65-.13.41.85,6.94c.14,1.2.26,2.4.35,3.61l.55,7.12,1.95-6.87c.14-.48.21-.94.23-1.42.06-1.06-.16-2.08-.66-3.15Z"/>
  <path d="M44.51,197.96c-.6,0-1.35-.02-2.09.27,0,0,0,0,0,0l-.03.86h8.17v-1.12c-2.03.04-4.04.04-6.04-.01Z"/>
  <path d="M54.99,191.35l-.65,6.33v.14c.96-.04,1.91-.09,2.87-.15l-.21-.43-2.01-5.9Z"/>
  <path d="M87.17,85.1l1.82,1.82c.05-.05.11-.1.16-.15l.2.2c27.88-27,65.87-43.63,107.75-43.63s79.87,16.63,107.75,43.63L377.5,14.3H16.68l70.65,70.65c-.05.05-.11.1-.16.15Z"/>
  <polygon points="123.34 197.76 123.32 196.85 122.52 197.02 122.55 197.79 123.34 197.76"/>
  <path d="M128.19,198.46c.42.26.85.44,1.3.63h.44l-1.74-.63Z"/>
  <path d="M136.98,199.09h.81l.43-.4v-.03c-.44.13-.86.28-1.24.43Z"/>
  <path d="M126.34,197l-.38-.4h-2.92s5.15,1.86,5.15,1.86c-.67-.41-1.31-.87-1.86-1.46Z"/>
  <path d="M324.52,197.56c-1.02.12-1.87.39-2.52.86l-.04.66h2.4l.15-1.52Z"/>
  <path d="M118.22,197.94l4.29-.92v-.31s-1.48.38-1.48.38c0-.16,0-.32,0-.49h-11.11c-.04.08-.07.17-.11.25l5.08,1.55c.06-.08.13-.16.18-.24l.02.3,2.02.62h5.48l-.05-1.3-4.33.16Z"/>
  <path d="M324.52,197.56s.06-.01.09-.02l-.06-.25-.03.27Z"/>
  <path d="M274.67,196.61l-.51.52.11-.32c.02-.07.02-.13.04-.2h-2.73c-.09.21-.16.41-.26.62l-.03.07,2.61.65h0s2.47.61,2.47.61l1.88-1.94h-3.57Z"/>
  <path d="M395.57,395.57H0V0h395.57v395.57ZM2.83,392.74h389.9V2.83H2.83v389.9Z"/>
</svg>