<?xml version="1.0" encoding="UTF-8"?>
<svg id="Layer_1" data-name="Layer 1" xmlns="http://www.w3.org/2000/svg" viewBox="0 0 395.37 118.57">
  <path d="M280,95.12c0,1.1-.3,2.12-.89,3.06,2.93,1.38,6.75,2.08,11.39,2.08h18.56c-.02-.14-.04-.28-.04-.43V19.04c0-.15.02-.29.04-.43h-10.3c-.08,0-.16.01-.29.14-.12.12-.13.21-.13.29v71.05h-7.74V19.04c0-.08,0-.16-.14-.29-.13-.13-.21-.14-.29-.14h-10.21c.02.14.04.28.04.43v76.08Z"/>
  <path d="M190.11,24.19v25.89c0,.83-.22,1.88-1,2.88.44.07.89.12,1.37.12h17.44v38.04h-7.29v-21.99c0-.08,0-.16-.14-.29-.13-.13-.21-.14-.29-.14h-10.11s0,.06,0,.09v31.04c0,.06-.01.12-.02.18.77.14,1.57.24,2.43.24h23.87c2.26,0,4.2-.54,5.93-1.64h0c1.55-.99,2.3-2.09,2.3-3.37V23.85c0-1.27-.75-2.37-2.3-3.36-1.73-1.11-3.67-1.65-5.93-1.65h-23.87c-1.7,0-3.22.3-4.55.86,1.41,1.3,2.14,2.81,2.14,4.5ZM200.52,27.98h7.4v15.85h-7.4v-15.85Z"/>
  <path d="M81,39.66v-9.62h-2.78v11.83h3.83c-.06-.05-.11-.1-.17-.16-.57-.57-.88-1.28-.88-2.06Z"/>
  <rect x="78.22" y="56.27" width="2.78" height="31.22"/>
  <path d="M99.39,51.9c-.83,0-1.56.13-2.15.4-.21.09-.33.17-.39.21v9.72c.07.05.19.12.39.21h0c.59.26,1.32.4,2.15.4h.39v-10.94h-.39Z"/>
  <path d="M96.2,64.73c-1.57-.69-1.9-1.64-1.9-2.32v-10.09c0-.68.33-1.64,1.9-2.32.92-.41,1.99-.61,3.18-.61h.31c-.17-1.53-.8-2.69-1.97-3.47-1.51-1.01-3.75-1.52-6.64-1.52h-15.41v-16.86h7.85v12.13c0,.08,0,.16.14.29.13.13.21.14.29.14h15.38c.08,0,.16-.01.29-.13.13-.13.14-.21.14-.29v-16.25c0-1.29-.72-2.39-2.21-3.39-1.63-1.08-3.65-1.64-6.02-1.64h-23.87c-1.78,0-3.37.31-4.74.93,1.7,1.39,2.57,3.02,2.57,4.88v25.89c0,1.37-.57,3.3-3.28,4.7-.81.42-1.76.73-2.78.97v10.11h3.1c.78,0,1.5.3,2.08.87.58.58.88,1.29.88,2.07v30.94c.69.11,1.41.19,2.17.19h23.87c2.37,0,4.39-.55,6.02-1.64,1.49-.99,2.21-2.1,2.21-3.39v-29.56h-.39c-1.19,0-2.27-.21-3.19-.61ZM83.54,90h-7.85v-36.24h7.85v36.24Z"/>
  <path d="M44.19,31.16h-2.67v7.93c0,.78-.3,1.49-.88,2.06-.34.33-.72.57-1.14.72h4.68v-10.71Z"/>
  <path d="M168.79,31.16h-2.67v7.93c0,.78-.3,1.49-.88,2.06-.34.33-.72.57-1.13.72h4.68v-10.71Z"/>
  <rect x="203.06" y="30.49" width="2.33" height="10.82"/>
  <path d="M166.12,56.27v31.22h2.56v-18.69c0-.78.3-1.49.88-2.06.58-.57,1.3-.87,2.09-.87h15.5c.48,0,.92.12,1.33.34h11.73c.79,0,1.51.3,2.09.88.57.56.88,1.28.88,2.06v19.48h2.21v-33.01h-14.91c-1.36,0-2.63-.27-3.81-.75-1.9.94-4.35,1.42-7.34,1.42h-13.21Z"/>
  <rect x="102.31" y="51.9" width="42.38" height="10.94"/>
  <path d="M184.28,23.86v24.88c0,1.09.57,2.04,1.75,2.92.17.12.34.22.51.32.89-.71,1.02-1.4,1.02-1.9v-25.89c0-1.15-.62-2.17-1.87-3.11-.95.83-1.42,1.75-1.42,2.78Z"/>
  <path d="M150.38,62.44c.2-.09.33-.16.39-.21v-9.72c-.07-.05-.19-.12-.39-.21-.6-.26-1.32-.4-2.16-.4h-.99v10.94h.99c.84,0,1.56-.13,2.16-.39Z"/>
  <path d="M187.56,68.71h-2.85c-.08,0-.16.01-.29.14-.13.13-.14.21-.14.29v26.11c0,1.29.72,2.39,2.21,3.38.34.23.71.42,1.08.6v-30.43s0-.06-.02-.09Z"/>
  <path d="M181.74,95.24v-26.11c0-.26.05-.52.12-.76h-10.22c-.08,0-.16.01-.29.14-.12.12-.13.21-.13.29v21.2h-7.63v-36.24h15.75c1.78,0,3.31-.2,4.6-.56-1.45-1.27-2.19-2.76-2.19-4.46v-24.88c0-1.51.56-2.86,1.65-4.04-1.24-.49-2.59-.76-4.05-.76h-23.87c-2.36,0-4.38.57-6.01,1.68-1.5,1.03-2.23,2.16-2.23,3.45v14.9c0,.08.01.16.14.29.13.13.21.14.29.14h15.5c.08,0,.16-.01.29-.14.13-.13.14-.21.14-.29v-10.45h7.74v15.73h-14.96c-1.29,0-2.53.19-3.68.55-1.18.38-2.2.84-3.05,1.37-.79.5-1.41,1.07-1.83,1.7-.33.48-.51.94-.56,1.37h.97c1.19,0,2.26.21,3.19.61,1.57.69,1.9,1.64,1.9,2.32v10.09c0,.68-.33,1.63-1.9,2.32-.92.41-1.99.61-3.18.61h-.99v34.5c0,.08,0,.16.14.28.12.12.19.14.29.14h36.8c-1.8-1.39-2.72-3.08-2.72-5.02Z"/>
  <path d="M0,0v118.57h395.37V0H0ZM227.15,95.25c0,2.16-1.17,4.01-3.46,5.48-2.12,1.36-4.58,2.05-7.3,2.05h-23.87c-1.35,0-2.62-.17-3.79-.47-.47.31-1.01.47-1.58.47h-39.48c-.79,0-1.51-.3-2.09-.87-.57-.56-.88-1.28-.88-2.06v-34.5h-42.38v29.56c0,2.15-1.12,3.99-3.33,5.47h0c-2.05,1.37-4.56,2.06-7.44,2.06h-23.87c-1.16,0-2.23-.14-3.26-.36-.54.45-1.18.7-1.87.7H23.06c-.79,0-1.51-.3-2.08-.87-.57-.56-.88-1.28-.88-2.06v-50.24c0-1,.34-2.01,1.01-2.99.62-.92,1.49-1.74,2.57-2.42,1.03-.65,2.25-1.2,3.63-1.64.72-.23,1.48-.4,2.25-.52h-6.5c-.79,0-1.51-.3-2.08-.87-.58-.57-.88-1.28-.88-2.06v-14.9c0-2.15,1.12-4,3.32-5.51,2.06-1.41,4.56-2.13,7.45-2.13h23.87c2.09,0,4.02.42,5.76,1.25,2-1.26,4.41-1.92,7.18-1.92h23.87c2.88,0,5.38.69,7.44,2.06,2.21,1.47,3.33,3.31,3.33,5.47v16.25c0,.78-.31,1.5-.88,2.07-.57.57-1.29.87-2.08.87h-2.85c1,.31,1.89.72,2.65,1.23,1.89,1.26,2.93,3.13,3.12,5.56h42.44c.05-.92.37-1.85.99-2.77.62-.92,1.48-1.74,2.57-2.42,1.02-.65,2.25-1.2,3.63-1.64.72-.23,1.48-.4,2.25-.52h-6.5c-.79,0-1.51-.3-2.09-.87-.57-.57-.88-1.28-.88-2.06v-14.9c0-2.15,1.12-4,3.32-5.51,2.06-1.41,4.56-2.13,7.45-2.13h23.87c2.3,0,4.4.54,6.28,1.54,1.95-1.15,4.25-1.76,6.9-1.76h23.87c2.72,0,5.18.69,7.3,2.05,2.3,1.47,3.46,3.31,3.46,5.47v71.4ZM290.51,102.77c-5.37,0-9.8-.89-13.17-2.65-.23.18-.46.36-.72.53h0c-2.09,1.41-4.62,2.12-7.5,2.12h-31.56c-.78,0-1.51-.3-2.08-.87-.58-.57-.88-1.28-.88-2.07v-46.28c0-.78.31-1.5.88-2.07.58-.57,1.3-.87,2.08-.87h15.38c.79,0,1.51.3,2.09.87.57.57.88,1.28.88,2.06v34.05h2.9V19.04c0-.78.3-1.49.88-2.07.58-.57,1.3-.88,2.09-.88h13.02c-.79,0-1.51.3-2.08.87-.47.46-.75,1.03-.84,1.64h2.92c-.08,0-.16.01-.29.14-.13.13-.14.21-.14.29v72.04c0,2.47.86,4.37,2.59,5.78.34-.55.52-1.13.52-1.74V19.04c0-.08,0-.16-.14-.29-.13-.13-.21-.14-.29-.14h2.92c-.09-.61-.37-1.18-.84-1.64-.58-.57-1.3-.88-2.09-.88h13.13c.79,0,1.51.3,2.08.87.58.57.88,1.28.88,2.06v68.54h2.67V19.04c0-.78.3-1.49.88-2.06.58-.57,1.3-.88,2.09-.88h13.22c-.79,0-1.51.3-2.08.87-.47.46-.75,1.03-.84,1.64h2.92c-.08,0-.16.01-.29.14-.13.13-.14.21-.14.29v80.8c0,.08,0,.16.14.29.13.13.21.14.29.14h-2.92c.09.62.37,1.18.84,1.64.58.57,1.3.87,2.08.87h-21.48ZM336.09,102.77c-.79,0-1.51-.3-2.09-.88-.57-.56-.88-1.28-.88-2.06v-50.65c0-1.97-.47-3.98-1.41-5.97-.41-.88-.87-1.68-1.37-2.4v59.03c0,.78-.31,1.5-.88,2.07-.57.57-1.29.87-2.08.87h-13.11c.78,0,1.51-.3,2.08-.87h0c.47-.47.75-1.03.84-1.64h-2.92c.08,0,.16-.01.29-.14.13-.13.14-.21.14-.29V19.04c0-.08-.01-.16-.14-.29-.13-.13-.21-.14-.29-.14h2.92c-.09-.61-.37-1.17-.84-1.64-.58-.57-1.3-.87-2.08-.87h3.72c2.12,0,4.05.2,5.72.6,1.66.39,3.22.91,4.63,1.53,1.44.64,2.78,1.4,3.97,2.27.42.31.84.63,1.26.96v-2.42c0-.78.31-1.49.88-2.06.58-.57,1.3-.88,2.09-.88h12.43c-.79,0-1.51.3-2.08.87-.47.46-.75,1.03-.84,1.64h2.92c-.08,0-.16.01-.29.14-.13.13-.14.21-.14.29v80.8c0,.08.01.16.14.29.13.13.21.14.29.14h-2.92c.09.61.37,1.18.84,1.64.57.57,1.3.88,2.09.88h-12.88ZM377.27,99.84c0,.78-.3,1.49-.88,2.06h0c-.58.57-1.3.87-2.08.87h-22.83c.79,0,1.51-.3,2.09-.87.47-.46.75-1.02.84-1.64h-2.92c.08,0,.16-.01.29-.13h0c.13-.13.14-.21.14-.29V19.04c0-.08,0-.16-.14-.29-.13-.13-.21-.14-.29-.14h2.92c-.09-.61-.37-1.17-.84-1.63-.58-.57-1.3-.88-2.09-.88h21.93c.78,0,1.5.3,2.08.87.58.57.88,1.28.88,2.07v8.64c0,.78-.3,1.5-.88,2.07-.58.57-1.3.87-2.08.87h-6.09v27h6.31c.78,0,1.51.3,2.08.87.58.57.88,1.29.88,2.07v8.75c0,.78-.3,1.49-.88,2.06-.58.57-1.3.87-2.09.87h-6.31v15.33h6.99c.79,0,1.51.3,2.08.87.58.58.88,1.29.88,2.07v9.31Z"/>
  <path d="M59.44,23.41v29.76c.58-.17,1.13-.37,1.61-.61,1.72-.89,1.92-1.84,1.92-2.47v-25.89c0-1.27-.75-2.39-2.28-3.41-.84.79-1.25,1.66-1.25,2.63Z"/>
  <path d="M327.67,100.13c.13-.13.14-.21.14-.29V34.81l2.09,1.76c1.64,1.38,3.03,3.26,4.12,5.58,1.09,2.33,1.65,4.69,1.65,7.03v50.65c0,.08,0,.16.14.29.13.13.21.14.29.14h9.95c-.02-.14-.04-.28-.04-.43V19.04c0-.15.02-.29.04-.43h-9.5c-.08,0-.16.01-.29.14-.13.13-.14.21-.14.29v8.04l-2.13-1.96c-1.02-.94-2.09-1.81-3.17-2.6-1.04-.76-2.22-1.43-3.5-2-1.27-.56-2.69-1.03-4.19-1.39-1.48-.35-3.21-.53-5.13-.53h-.8c.02.14.04.28.04.43v80.8c0,.15-.02.29-.04.43h10.19c.08,0,.16-.01.29-.13Z"/>
  <path d="M56.91,94.91v-26.54h-9.86c-.08,0-.16.01-.29.14-.12.12-.13.2-.13.29v21.2h-7.63v-36.24h15.75c.77,0,1.49-.04,2.17-.11v-30.23c0-1.39.48-2.65,1.41-3.77-1.1-.37-2.28-.58-3.58-.58h-23.87c-2.36,0-4.38.57-6.01,1.68-1.5,1.03-2.23,2.16-2.23,3.45v14.9c0,.08,0,.16.14.29.13.13.21.14.29.14h15.5c.08,0,.16-.01.29-.14.12-.12.14-.21.14-.29v-10.45h7.74v15.73h-14.95c-1.29,0-2.53.19-3.68.55-1.18.38-2.2.84-3.05,1.37-.79.5-1.41,1.07-1.83,1.7-.39.57-.58,1.1-.58,1.59v50.24c0,.08,0,.16.13.28.13.13.21.14.29.14h37.02c-2.1-1.46-3.18-3.26-3.18-5.36Z"/>
  <path d="M261.48,18.75c-.13.13-.14.21-.14.29v71.07h-7.97v-36.56c0-.08,0-.16-.14-.29-.13-.13-.21-.14-.29-.14h-15.38c-.08,0-.16.01-.29.14-.13.12-.14.21-.14.29v46.28c0,.08,0,.16.14.29.13.13.21.14.29.14h31.56c2.33,0,4.34-.56,5.99-1.64-2.18-1.87-3.29-4.39-3.29-7.54V19.04c0-.15.02-.29.04-.43h-10.1c-.08,0-.16.01-.29.14Z"/>
  <path d="M374.59,100.13c.13-.13.14-.21.14-.29v-9.31c0-.08-.01-.16-.14-.29-.13-.13-.21-.14-.29-.14h-9.53v-20.35h8.85c.08,0,.16-.01.29-.14.12-.12.14-.21.14-.29v-8.75c0-.08-.01-.16-.14-.29-.13-.13-.21-.14-.29-.14h-8.85V28.11h8.62c.08,0,.16-.01.29-.14.11-.11.14-.19.14-.29v-8.64c0-.08,0-.16-.14-.29-.13-.13-.22-.14-.29-.14h-19c.02.14.04.28.04.43v80.8c0,.15-.02.29-.04.43h19.91c.08,0,.16-.01.29-.14Z"/>
  <path d="M41.53,56.27v31.22h2.55v-18.69c0-.78.3-1.49.88-2.06.58-.57,1.3-.87,2.09-.87h9.86v-9.68c-.69.06-1.41.09-2.17.09h-13.21Z"/>
  <path d="M62.83,68.5c-.12-.12-.21-.13-.29-.13h-3.1v26.54c0,1.29.72,2.39,2.21,3.39.41.28.85.52,1.32.72v-30.22c0-.08-.01-.16-.14-.29Z"/>
  <path d="M58.31,19.64c.82.28,1.6.63,2.34,1.12.01,0,.02.02.04.03.28-.26.6-.51.96-.76.4-.27.83-.51,1.28-.71-.27-.22-.56-.44-.88-.65-.5-.33-1.02-.62-1.56-.87-.08.05-.18.09-.26.14-.78.52-1.42,1.09-1.92,1.7Z"/>
  <rect x="56.91" y="65.86" width="2.54" height="2.51"/>
  <path d="M64.63,101.9c.58-.57.88-1.28.88-2.06v-.1c-.91-.15-1.76-.38-2.54-.72v.82c0,.08-.01.16-.14.29-.13.13-.21.14-.29.14h-2.46c.05.04.1.08.15.11,1.23.82,2.64,1.37,4.18,1.7.07-.06.14-.11.21-.17h0Z"/>
  <path d="M56.91,53.64v2.53c.91-.08,1.74-.23,2.54-.42v-2.59c-.76.22-1.6.38-2.54.48Z"/>
  <rect x="99.78" y="62.83" width="2.54" height="2.51"/>
  <path d="M99.78,50.19v1.7h2.54v-1.7c0-.28-.02-.54-.04-.81h-2.57c.03.27.07.52.07.81Z"/>
  <rect x="144.7" y="62.83" width="2.54" height="2.51"/>
  <path d="M144.7,51.9h2.54v-2.29c0-.07.01-.15.02-.22h-2.54c0,.07-.02.15-.02.22v2.29Z"/>
  <path d="M189.23,101.9c.53-.53.82-1.17.86-1.88-.91-.17-1.75-.43-2.52-.8v.61c0,.08-.01.16-.14.29-.13.13-.21.14-.29.14h-2.68c.2.15.39.3.61.45,1.09.73,2.31,1.25,3.65,1.59.18-.12.35-.25.5-.4h0Z"/>
  <path d="M188.47,66.19h-3.77c-.79,0-1.51.3-2.08.87-.38.38-.63.82-.77,1.31h5.28c.08,0,.16.01.29.13.08.08.11.15.13.2h2.54c-.02-.74-.32-1.42-.87-1.98-.23-.22-.48-.39-.75-.53Z"/>
  <path d="M183.39,19.82c.65.25,1.28.55,1.86.93.16.11.31.22.45.32.24-.21.49-.41.79-.61.46-.31.96-.56,1.48-.78-.39-.36-.82-.7-1.31-1.03-.33-.22-.69-.39-1.04-.58-.18.1-.37.19-.54.3-.66.44-1.22.92-1.68,1.43Z"/>
  <path d="M183.93,53.19c.18.16.37.32.58.47.67.5,1.4.87,2.16,1.18.05-.02.11-.04.15-.06,1.06-.55,1.78-1.18,2.28-1.82-.92-.16-1.77-.49-2.56-.99-.24.19-.53.39-.9.58-.5.26-1.09.46-1.72.64Z"/>
  <path d="M279.12,98.18c-.21-.1-.43-.19-.63-.3-.58-.3-1.08-.65-1.54-1.02-.38.6-.95,1.17-1.76,1.71-.03.02-.06.03-.08.05.64.55,1.36,1.05,2.19,1.48.01,0,.02.01.03.02.75-.6,1.34-1.25,1.78-1.94Z"/>
</svg>