<?xml version="1.0" encoding="UTF-8"?>
<svg id="Layer_1" data-name="Layer 1" xmlns="http://www.w3.org/2000/svg" viewBox="0 0 395.57 283.83">
  <rect width="2.83" height="283.83"/>
  <rect x="392.74" width="2.83" height="283.83"/>
  <g>
    <path d="M157.5,31.61h-12.06v24.86l12.06-.26v-24.6ZM154.64,34.47v18.94l-6.34.14v-19.08h6.34Z"/>
    <path d="M157.17,72.97h-11.73v50.48h11.73v-50.48ZM154.31,75.83v44.76h-6.01v-44.76h6.01Z"/>
    <path d="M209.65,31.77h-12.38v24.15h12.38v-24.15ZM206.79,34.63v18.43h-6.66v-18.43h6.66Z"/>
    <path d="M305.65,31.61h-12.55v91.35h12.55V31.61ZM302.79,34.47v85.63h-6.83V34.47h6.83Z"/>
    <path d="M379.95,15.95h-45.78c-1.78,0-3.45.21-5,.59-.52-.39-1.11-.59-1.75-.59h-100.24c-.67,0-1.28.22-1.81.64-1.55-.42-3.18-.64-4.9-.64h-115.89c-.82,0-1.53.31-2.14.91-.6.6-.91,1.32-.91,2.14v34.07h-6.17V19c0-.81-.31-1.53-.91-2.14-.6-.6-1.32-.91-2.14-.91h-39.91c-.81,0-1.53.31-2.14.91-.6.6-.91,1.32-.91,2.14v34.28h-7.15V19c0-.81-.31-1.53-.91-2.13-.61-.61-1.32-.91-2.14-.91h-21.91c-.81,0-1.53.31-2.14.91-.6.6-.91,1.32-.91,2.14v117.87c0,.82.31,1.54.91,2.14.6.6,1.32.91,2.14.91h21.91c.81,0,1.53-.31,2.14-.91.6-.6.91-1.32.91-2.14v-64.81h7.15v64.81c0,.81.31,1.53.91,2.14.6.6,1.32.91,2.14.91h22.07c.67,0,1.26-.22,1.79-.62,1.56.41,3.2.62,4.93.62h75.51c3.63,0,7.03-.36,10.11-1.08,1.75-.41,3.37-.92,4.88-1.5.1.62.38,1.19.86,1.67.6.6,1.32.91,2.14.91h22.73c.81,0,1.53-.31,2.14-.91.6-.6.91-1.32.91-2.14v-61.52l6.01.14v61.38c0,.81.31,1.53.91,2.14.6.6,1.32.91,2.14.91h95.34c3.63,0,7.03-.36,10.11-1.08,1.76-.41,3.4-.93,4.92-1.52.09.63.38,1.2.87,1.69.6.6,1.32.91,2.14.91h22.4c.81,0,1.53-.31,2.14-.91.6-.6.91-1.32.91-2.14v-64.48h6.17v64.48c0,.81.31,1.53.91,2.14.6.6,1.32.91,2.14.91h22.4c.81,0,1.53-.31,2.14-.91.6-.6.91-1.32.91-2.14V19c0-.81-.31-1.53-.91-2.13s-1.32-.91-2.14-.91ZM345.82,137.41l-.53-.35h-22.4l-.11-.07-.42.42s0,0,0,0l.35-.54v-.83c.14-.07.29-.14.42-.21,2.35-1.29,4.2-2.77,5.49-4.41,1.33-1.69,2.01-3.54,2.01-5.53l-.16-106.72c1.16-.24,2.39-.37,3.71-.37h45.78l.18.19v117.87l-.07.12-.11.07h-22.4l-.18-.18v-67.34h-11.89v67.34l-.07.11.42.42h0ZM208.98,137.41l.35-.53v-64.18l-11.73-.27v64.45l-.18.18h-22.73l-.11-.07-.42.42h0s.35-.54.35-.54v-.8c.15-.08.32-.15.47-.23,2.35-1.29,4.22-2.77,5.57-4.4,1.39-1.69,2.1-3.55,2.1-5.54v-55.99c0-1.31-.03-2.42-.08-3.31-.06-.99-.35-1.82-.86-2.46-.49-.61-1.25-1.16-2.25-1.64-.68-.32-1.52-.63-2.55-.95,1.06-.6,1.95-1.15,2.63-1.63.99-.7,1.73-1.45,2.21-2.22.48-.79.76-1.68.82-2.65.06-.89.08-2,.08-3.31V19c0-.06-.01-.12-.02-.19h37.84c1.28,0,2.5.14,3.67.41v12.2c0,.81.31,1.53.91,2.14.6.6,1.32.91,2.14.91h4.75v17.27c0,1.26-.03,2.31-.08,3.13-.03.51-.16.94-.4,1.33-.27.44-.75.91-1.42,1.38-.84.6-2.06,1.32-3.6,2.14l-4.94,2.64,5.38,1.54c1.41.4,2.48.77,3.18,1.1.49.23.86.49,1.07.75.21.26.36.63.45,1.08.14.7.26,1.67.37,2.82l.12,50.6h-4.88c-.82,0-1.53.31-2.14.91-.6.6-.91,1.32-.91,2.14v13.57c0,.06.01.12.02.18h-14.64l-.11-.07-.42.42h0ZM51.87,137.41l.35-.53v-67.66h-12.87v67.66l-.18.18h-21.91l-.11-.07-.42.42h0l.35-.54V19l.19-.19h21.91l.18.19v37.14h12.87V19l.07-.11-.42-.42h0s.53.34.53.34h14.48c0,.06-.02.12-.02.18v43.16c0,2.71,1.44,5.04,4.27,6.95,1.08.73,2.26,1.31,3.52,1.75v13.92h-4.75c-.81,0-1.53.31-2.14.91-.6.6-.91,1.32-.91,2.13v42.35c0,2.68,1.47,4.99,4.34,6.89h-18.81l-.11-.07-.42.42h0ZM104.04,18.46l.53.35h15.1c0,.06-.02.12-.02.19v117.87c0,.06.01.12.02.19h-38.48c-1.28,0-2.51-.14-3.67-.4v-49.02h14.79l.18.18v35.29h12.06v-54.07h-23.36c-1.3,0-2.53-.12-3.67-.36V19c0-.06-.01-.12-.02-.19h14.81l.18.18v36.93h11.89V19l.07-.11-.42-.42s0,0,0,0ZM231.91,137.06h-4.73l-.19-.18v-13.57l.07-.11-.42-.42h0s.53.35.53.35h4.88l.03,13.75h.59s0,0,0,0l-.66.12-.11.07ZM234.79,69.54c-.11-1.35-.25-2.42-.42-3.26-.18-.91-.52-1.68-1.02-2.3-.49-.61-1.2-1.14-2.09-1.56-.58-.27-1.32-.55-2.24-.85,1.08-.61,1.97-1.16,2.66-1.65.99-.7,1.73-1.45,2.21-2.22.48-.79.76-1.68.82-2.65.06-.89.08-2,.08-3.31v-17.27h1.93v85.79h-1.81l-.12-50.72ZM231.93,25.88v5.73h-4.75l-.19-.19v-11.21c.62.29,1.21.62,1.78,1,2.13,1.42,3.16,2.94,3.16,4.66ZM234.92,123.12h4.66V31.61h-4.79v-5.73c0-2.71-1.49-5.08-4.43-7.04-.01,0-.03-.02-.04-.02h37.34c0,.06-.02.12-.02.19v12.61h-5.78v91.51h5.78v13.75c0,.06.01.12.02.19h-32.72c0-.06.02-.12.02-.19l-.03-13.75ZM270.5,136.87v-13.75h4.09l.11.07.42-.42h0l-.35.53v13.57l-.19.18h-3.9l-.19-.19ZM270.68,18.81h3.9l.19.18v12.43l-.19.19h-4.09v-12.61l.19-.19ZM267.64,34.47v85.79h-2.92V34.47h2.92ZM276.72,121.17c-.6-.6-1.32-.91-2.14-.91h-4.09V34.47h4.09c.81,0,1.53-.31,2.14-.91.6-.6.91-1.32.91-2.14v-12.43c0-.06-.01-.12-.02-.18h46.42c-2.78,1.9-4.19,4.22-4.19,6.9v108.54c-1.65.72-3.5,1.33-5.53,1.8-2.86.67-6.05,1-9.46,1h-27.24c0-.06.02-.12.02-.18v-13.57c0-.81-.31-1.53-.91-2.14ZM322.7,25.71c0-1.72.98-3.22,3.01-4.59.59-.4,1.23-.75,1.9-1.04l.16,105.82c0,1.34-.45,2.57-1.39,3.75-.88,1.11-2.13,2.15-3.67,3.11V25.71ZM122.51,136.87V19s.07-.11.07-.11l.11-.08h4.27l.19.19v117.87l-.19.19h-4.27l-.18-.19ZM130,18.81h41.66c0,.06-.02.12-.02.19v42.14l-2.43,1.3,2.43.65v71.19c-1.64.71-3.47,1.32-5.48,1.78-2.86.67-6.05,1-9.46,1h-26.71c0-.06.02-.12.02-.19V19c0-.06-.01-.12-.02-.19ZM174.5,63.85l.26.07c1.5.4,2.66.79,3.46,1.17.83.39,1.14.71,1.24.83.1.12.22.37.25.86.05.82.08,1.88.08,3.13v55.99c0,1.32-.47,2.54-1.44,3.71-.94,1.14-2.24,2.2-3.83,3.17V63.85ZM179.78,19v32.74c0,1.26-.03,2.31-.08,3.13-.03.51-.16.94-.4,1.33-.27.44-.75.91-1.42,1.38-.8.57-1.94,1.25-3.38,2.02V19l.07-.11-.07-.07h5.09l.18.19ZM94.44,85.69c-.6-.6-1.32-.91-2.14-.91h-14.79v-13.19c1.17.2,2.39.31,3.67.31h20.5v48.35h-6.34v-32.43c0-.81-.31-1.53-.91-2.14ZM69.73,130.17v-42.35l.18-.18h4.75v48.07c-.62-.28-1.22-.61-1.8-.98-2.11-1.36-3.13-2.85-3.13-4.55ZM74.66,19v48.79c-.68-.3-1.32-.65-1.93-1.05-2.02-1.36-3-2.86-3-4.58V19l.18-.18h4.56l.18.19Z"/>
    <path d="M357.36,31.61h-11.89v24.48h11.89v-24.48ZM354.5,34.47v18.76h-6.17v-18.76h6.17Z"/>
    <path d="M184.53,147.12h-47.41c-.25,0-.49.04-.72.1h-42.51c-2.13,0-4.1.29-5.9.84-.07-.08-.13-.17-.21-.25-.61-.6-1.32-.91-2.14-.91h-35.31c-.4,0-.77.08-1.12.22H17.13c-.81,0-1.53.31-2.14.91-.6.6-.91,1.32-.91,2.14v117.87c0,.81.31,1.53.91,2.14.6.6,1.32.91,2.14.91h22.4c.82,0,1.53-.31,2.14-.91.6-.6.91-1.32.91-2.14v-64.73h4.71v64.51c0,.82.31,1.53.91,2.14.6.6,1.32.91,2.14.91h36.62c.53,0,1.02-.14,1.47-.41,1.68.48,3.51.72,5.47.72h34.5c3.92,0,7.33-.97,10.14-2.89,2.88-1.96,4.35-4.33,4.35-7.04v-68.31s0-.08,0-.1c.09-.12.16-.3.16-.55,0-2.41-1.4-4.35-4.17-5.77-2.64-1.35-6.06-2.03-10.16-2.03h-20.82v-18.76h6.5v4.97c0,.81.31,1.53.91,2.14.6.6,1.32.91,2.14.91h22.4c.81,0,1.53-.31,2.14-.91.6-.6.91-1.32.91-2.14v-5.06h3.79v102.41c0,.82.31,1.54.91,2.14s1.32.91,2.14.91h21.91c.81,0,1.53-.31,2.14-.91.6-.6.91-1.32.91-2.14v-102.41h9.87c.81,0,1.53-.31,2.14-.91.6-.6.91-1.32.91-2.14v-12.43c0-.81-.31-1.53-.91-2.14-.6-.6-1.32-.91-2.14-.91ZM40.06,268.57l-.53-.35h-22.4l-.19-.19v-117.87l.07-.11-.42-.42h0l.53.34h30.15v12.98h-7.57v24.34h7.57v13.15h-7.57v67.59l-.07.12.42.42h0ZM171.8,162.77v105.27l-.07.12.42.42h0s-.53-.35-.53-.35h-21.91l-.19-.19v-105.27h-6.65v-12.51c0-.1-.02-.19-.03-.28h41.68l.19.18v12.43l-.19.18h-12.73ZM140.01,170.69l-.07.11.42.42h0s-.53-.35-.53-.35h-22.4l-.18-.18v-7.83h-12.22v24.48h23.69c3.65,0,6.63.58,8.86,1.72,2.11,1.08,2.51,2.13,2.59,2.86-.14.45-.14.84-.14,1.02v68.31c0,1.73-1.01,3.26-3.1,4.68-2.33,1.59-5.2,2.39-8.53,2.39h-34.5c-1.39,0-2.69-.15-3.9-.42,0-.03,0-.05,0-.08v-13.42c0-.81-.31-1.53-.91-2.14-.61-.61-1.32-.91-2.14-.91h-4.53v-31.43l.07-.11-.42-.42.53.35h22.4l.11.07.42-.42h0s-.35.53-.35.53v34.48h12.06v-53.75h-21.23c-2.68,0-4.96-.32-6.83-.93v-12.43c0-.82-.31-1.54-.91-2.14-.6-.61-1.32-.91-2.14-.91h-3.71v-18.62h3.22c.81,0,1.53-.31,2.14-.91.6-.6.91-1.32.91-2.14v-11.72c1.57-.5,3.3-.76,5.2-.76h40.19s0,.06,0,.09v12.43c0,.81.31,1.53.91,2.14.6.6,1.32.91,2.14.91h2.9v5.06ZM79.56,219.91v31.43h-3.79v-48.25h10.36c.73,0,1.38-.26,1.94-.75,2.22.76,4.86,1.15,7.94,1.15h18.37v48.03h-6.34v-31.62c0-.81-.31-1.53-.91-2.14-.6-.6-1.32-.91-2.14-.91h-22.4c-.81,0-1.53.31-2.13.91s-.91,1.32-.91,2.14ZM82.42,187.08h3.71l.18.19v11.06c-.26-.18-.52-.37-.75-.57-2.12-1.85-3.15-3.7-3.15-5.65v-5.03ZM79.56,184.22h-3.79v-18.62h3.79v18.62ZM86.17,163.08h0l-.53-.35h-3.22v-5.77c0-1.72.98-3.22,3.01-4.58.13-.09.27-.16.4-.25v10.41l-.07.12.42.42ZM85.45,265.95c-2.04-1.41-3.03-2.94-3.03-4.68v-7.07h4.53l.19.19v12.53c-.59-.28-1.16-.6-1.69-.97ZM137.12,162.77l-.11-.07-.42.42s0,0,0,0l.35-.53v-12.43l.09-.09h2.81l.18.18v12.52s-2.89,0-2.89,0ZM52.44,149.98l.19.19v12.61l-.07.12-.11.07h-2.3v-12.98h2.3ZM47.28,165.82v18.62h-4.71v-18.62h4.71ZM52.93,187.3l.18.19v12.77l-.07.12.42.42h0s-.53-.35-.53-.35h-2.79v-13.15h2.79ZM49.79,268.35l.35-.54v-64.51h2.79c.81,0,1.53-.31,2.13-.91.6-.6.91-1.32.91-2.14v-12.77c0-.82-.31-1.54-.91-2.14-.6-.61-1.32-.91-2.13-.91h-2.79v-18.62h2.3c.81,0,1.53-.31,2.14-.91.6-.6.91-1.32.91-2.14v-12.61c0-.14-.02-.28-.04-.41h28.8c-.14.09-.28.17-.42.26-2.83,1.91-4.27,4.24-4.27,6.95v5.77h-6.65v24.34h6.65v5.03c0,2.78,1.39,5.41,4.13,7.8.13.11.27.21.4.31h-11.18v53.97h6.65v7.07c0,2.57,1.31,4.83,3.87,6.73h-33.11l-.11-.07-.42.42s0,0,0,0Z"/>
    <path d="M276.03,157.75c-1.4-1.57-2.94-3.04-4.63-4.38-7.23-5.68-16.2-8.56-26.65-8.56h-1.24c-11.37.27-37.93,11.35-48.6,17.29l-.29.16v8.85l.94-.79c.64-.54,1.32-1.05,2.04-1.51,5.1-3.74,25.34-13.99,30.77-15.83,5.17-1.61,10.09-2.24,14.58-1.89,4.34.35,8.28,1.56,11.71,3.6,3.39,2.04,6.34,4.98,8.79,8.72,2.5,3.85,4.28,8.53,5.28,13.9,1.21,6.85,1.13,14.27-.23,22.03-1.52,8.09-4.29,16.03-8.23,23.62-3.84,7.58-8.84,14.55-14.85,20.72-5.71,5.91-11.95,10.54-18.55,13.76-6.28,3.12-12.42,4.77-18.23,4.93h-.88l-5.26,6.2h83.53v-6.2h-54.85c10.46-4.57,20.17-11.3,28.88-20.04,6.44-6.46,11.77-13.48,15.97-20.95v16.1l16.34-12.48.04-.21c.05-.27.08-.51.09-.73,1.26-5.03,3.1-9.94,5.46-14.61,2.42-4.74,5.44-9.19,8.97-13.22,3.48-3.93,7.23-7.25,11.16-9.87,3.77-2.46,7.66-4.27,11.56-5.37,3.64-.9,7-1.13,9.98-.68,2.76.39,5.36,1.42,7.72,3.04,2.27,1.68,4.18,3.91,5.66,6.63,1.6,2.99,2.68,6.57,3.23,10.61.5,4.32.35,8.94-.46,13.72-.86,5.04-2.42,10-4.64,14.74-2.17,4.79-4.96,9.37-8.28,13.6-3.38,4.19-7.04,7.79-10.86,10.71-3.82,2.81-7.74,4.9-11.66,6.21-3.09,1.1-6.1,1.65-8.93,1.65h-.37l-3.36,7.36h.9c10.95-.17,21.99-4.08,32.79-11.66,10.79-7.56,19.07-17.22,24.61-28.7,3.85-7.96,5.81-15.68,5.81-22.94,0-3.15-.37-6.29-1.09-9.34-2.44-10.01-8.36-16.95-17.59-20.64-9.19-3.66-19.75-3.33-31.38.99-11.14,4.14-20.99,11.1-29.29,20.68v-45.96h79.36v-6.2h-95.75v12.93ZM369.57,147.03v1.78h-79.36v54.25l2.9-3.48c8.26-9.9,18.14-17.04,29.37-21.21,11.11-4.13,21.12-4.47,29.8-1.01,8.53,3.41,14,9.83,16.26,19.1.68,2.88,1.03,5.85,1.03,8.82,0,6.92-1.88,14.32-5.59,21.98-5.37,11.14-13.41,20.51-23.89,27.85-9.56,6.7-19.28,10.44-28.92,11.13l1.3-2.84c2.77-.12,5.65-.71,8.58-1.75,4.13-1.38,8.26-3.57,12.28-6.54,3.97-3.03,7.76-6.76,11.26-11.1,3.44-4.37,6.32-9.1,8.55-14.04,2.3-4.92,3.92-10.06,4.81-15.3.84-4.98,1-9.81.47-14.37-.58-4.31-1.76-8.14-3.48-11.38-1.64-3.01-3.77-5.49-6.34-7.39-2.65-1.82-5.56-2.97-8.66-3.41-3.26-.49-6.9-.25-10.89.73-4.13,1.16-8.23,3.07-12.2,5.66-4.09,2.72-7.99,6.17-11.6,10.25-3.65,4.17-6.77,8.78-9.28,13.68-2.45,4.84-4.35,9.93-5.65,15.14l-.03.13-12.07,9.29v-15.82c1.06-2.14,2.05-4.3,2.92-6.5,2.93-7.57,4.53-14.95,4.81-21.96,0-.11.02-.22.03-.33.07-1.14.06-2.3,0-3.48-.08-2.42-.32-4.81-.74-7.12-1.1-6.66-3.46-12.44-7.01-17.32v-13.46h91.33ZM227.73,261.41l-7.97,3.17h64.06v1.78h-76.55l1.51-1.78c6.11-.18,12.52-1.91,19.05-5.15,6.83-3.34,13.28-8.12,19.16-14.21,6.17-6.33,11.3-13.47,15.23-21.24,4.04-7.77,6.88-15.93,8.44-24.24,1.41-8.02,1.48-15.7.23-22.82-1.06-5.66-2.94-10.6-5.61-14.7-2.63-4.02-5.83-7.19-9.51-9.41-3.73-2.22-7.99-3.53-12.67-3.91-4.74-.37-9.97.3-15.45,2-5.35,1.82-24.94,11.72-30.83,15.76v-3.07c10.34-5.58,35.73-16.29,46.7-16.55h1.23c9.95,0,18.46,2.72,25.28,8.08,2.29,1.82,4.28,3.89,6.01,6.17v55.4c-4.34,8.65-10.2,16.73-17.53,24.09-9.23,9.25-19.58,16.2-30.77,20.64Z"/>
  </g>
</svg>