<?xml version="1.0" encoding="UTF-8"?>
<svg id="Layer_1" data-name="Layer 1" xmlns="http://www.w3.org/2000/svg" viewBox="0 0 255.45 111.66">
  <defs>
    <style>
      .cls-1 {
        fill: none;
        stroke: #000;
        stroke-width: 1.42px;
      }
    </style>
  </defs>
  <path class="cls-1" d="M55.07,106.07c-.41.41-.88.61-1.42.61H6.3c-.54,0-1.02-.2-1.42-.61-.41-.41-.61-.88-.61-1.42v-60.82c0-.9.31-1.83.95-2.77.63-.94,1.51-1.78,2.64-2.5,1.13-.72,2.47-1.33,4-1.82,1.54-.5,3.17-.74,4.88-.74h16.41v-16.01h-6.24v11.12c0,.54-.21,1.02-.61,1.42-.41.41-.88.61-1.42.61H6.3c-.54,0-1.02-.2-1.42-.61-.41-.41-.61-.88-.61-1.42V13.07c0-2.08,1.1-3.89,3.32-5.43,2.22-1.54,4.91-2.31,8.07-2.31h28.63c2.98,0,5.63.77,7.94,2.31,2.3,1.54,3.46,3.35,3.46,5.43v31.34c0,1.81-1.04,3.26-3.12,4.34-2.08,1.08-4.84,1.63-8.28,1.63h-17.36v40.84h6.11v-24.15c0-.54.2-1.02.61-1.42.41-.41.88-.61,1.42-.61h18.59c.54,0,1.02.2,1.42.61.41.41.61.88.61,1.42v37.58c0,.54-.21,1.02-.61,1.42Z"/>
  <path class="cls-1" d="M96.5,104.04c-2.22,1.49-4.91,2.24-8.07,2.24h-28.63c-3.17,0-5.86-.75-8.07-2.24s-3.32-3.28-3.32-5.36V12.12c0-2.08,1.11-3.87,3.32-5.36,2.22-1.49,4.91-2.24,8.07-2.24h28.63c3.17,0,5.85.75,8.07,2.24,2.22,1.49,3.32,3.28,3.32,5.36v19.67c0,.54-.2,1.02-.61,1.42-.41.41-.88.61-1.42.61h-18.45c-.54,0-1.02-.2-1.42-.61-.41-.41-.61-.88-.61-1.42v-13.16h-6.38v17.37h16.96c3.8,0,6.74.7,8.82,2.1,2.08,1.4,3.12,3.55,3.12,6.44v54.13c0,2.08-1.11,3.87-3.32,5.36ZM77.3,91.22v-40.84h-6.38v40.84h6.38Z"/>
  <path class="cls-1" d="M94.63,60.76c-.92-.41-1.37-.88-1.37-1.42v-12.21c0-.54.46-1.02,1.37-1.42.91-.41,1.98-.61,3.2-.61h58.57c1.22,0,2.29.2,3.2.61.92.41,1.37.88,1.37,1.42v12.21c0,.54-.46,1.02-1.37,1.42-.91.41-1.98.61-3.2.61h-58.57c-1.22,0-2.29-.2-3.2-.61Z"/>
  <path class="cls-1" d="M204.5,106.07c-.41.41-.88.61-1.42.61h-47.35c-.54,0-1.02-.2-1.42-.61-.41-.41-.61-.88-.61-1.42v-60.82c0-.9.31-1.83.95-2.77.63-.94,1.51-1.78,2.64-2.5,1.13-.72,2.47-1.33,4-1.82,1.54-.5,3.17-.74,4.88-.74h16.41v-16.01h-6.24v11.12c0,.54-.21,1.02-.61,1.42-.41.41-.88.61-1.42.61h-18.59c-.54,0-1.02-.2-1.42-.61-.41-.41-.61-.88-.61-1.42V13.07c0-2.08,1.1-3.89,3.32-5.43,2.22-1.54,4.91-2.31,8.07-2.31h28.63c2.98,0,5.63.77,7.94,2.31,2.3,1.54,3.46,3.35,3.46,5.43v31.34c0,1.81-1.04,3.26-3.12,4.34-2.08,1.08-4.84,1.63-8.28,1.63h-17.36v40.84h6.11v-24.15c0-.54.2-1.02.61-1.42.41-.41.88-.61,1.42-.61h18.59c.54,0,1.02.2,1.42.61.41.41.61.88.61,1.42v37.58c0,.54-.21,1.02-.61,1.42Z"/>
  <path class="cls-1" d="M246.08,104.45c-2.31,1.49-4.95,2.23-7.93,2.23h-28.63c-3.17,0-5.86-.75-8.07-2.24s-3.32-3.28-3.32-5.36v-31.61c0-.54.2-1.02.61-1.42.41-.41.88-.61,1.42-.61h18.59c.54,0,1.02.2,1.42.61.41.41.61.88.61,1.42v25.1h5.7v-43.01h-19.4c-2.35,0-4.43-.68-6.24-2.04-1.81-1.36-2.71-2.94-2.71-4.75V12.67c0-2.08,1.11-3.87,3.32-5.36s4.91-2.24,8.07-2.24h28.63c2.98,0,5.63.75,7.93,2.24,2.31,1.49,3.46,3.27,3.46,5.35v86.44c0,2.08-1.15,3.86-3.46,5.35ZM226.48,35.32v-16.14h-5.83v16.14h5.83Z"/>
</svg>