<?xml version="1.0" encoding="UTF-8"?>
<svg id="Layer_1" data-name="Layer 1" xmlns="http://www.w3.org/2000/svg" viewBox="0 0 153.41 111.55">
  <path d="M36.55,5.83c.14,0,.27.04.45.21.17.17.21.3.21.45v10.56c0,.15-.03.28-.2.45-.17.17-.3.21-.45.21h-10.16v19.39h10.57c.14,0,.27.04.45.21.17.17.2.3.2.45v10.69c0,.15-.03.28-.21.45-.17.17-.3.21-.45.21h-10.57v56.1c0,.15-.03.28-.21.45-.17.17-.3.2-.45.2H6.98c-.14,0-.28-.03-.45-.2-.17-.17-.21-.3-.21-.45V6.48c0-.14.03-.28.2-.45.17-.17.3-.21.45-.21h29.57M36.55,4.42H6.98c-.55,0-1.03.21-1.44.62-.41.41-.62.89-.62,1.44v98.7c0,.55.21,1.03.62,1.44.41.41.89.62,1.44.62h18.76c.55,0,1.03-.21,1.44-.62.41-.41.62-.89.62-1.44v-54.7h9.17c.55,0,1.03-.21,1.44-.62.41-.41.62-.89.62-1.44v-10.69c0-.55-.2-1.03-.62-1.44-.41-.41-.89-.62-1.44-.62h-9.17v-16.59h8.76c.55,0,1.03-.21,1.44-.62.41-.41.62-.89.62-1.44V6.48c0-.55-.21-1.03-.62-1.44-.41-.41-.89-.62-1.44-.62h0Z"/>
  <path d="M64.35,5.64c.14,0,.27.04.45.21.17.17.21.3.21.45v10.56c0,.15-.03.28-.2.45-.17.17-.3.21-.45.21h-10.16v19.39h10.57c.14,0,.27.04.45.21.17.17.2.3.2.45v10.69c0,.15-.03.28-.21.45-.17.17-.3.21-.45.21h-10.57v44.2h11.26c.14,0,.27.04.45.21.17.17.21.3.21.45v11.24c0,.15-.03.28-.2.45-.17.17-.3.21-.45.21h-30.67c-.14,0-.28-.03-.45-.2-.17-.17-.21-.3-.21-.45V6.29c0-.14.03-.28.2-.45.17-.17.3-.21.45-.21h29.57M64.35,4.24h-29.57c-.55,0-1.03.21-1.44.62-.41.41-.62.89-.62,1.44v98.7c0,.55.21,1.03.62,1.44.41.41.89.62,1.44.62h30.67c.55,0,1.03-.21,1.44-.62.41-.41.62-.89.62-1.44v-11.24c0-.55-.21-1.03-.62-1.44-.41-.41-.89-.62-1.44-.62h-9.86v-41.4h9.17c.55,0,1.03-.21,1.44-.62.41-.41.62-.89.62-1.44v-10.69c0-.55-.2-1.03-.62-1.44-.41-.41-.89-.62-1.44-.62h-9.17v-16.59h8.76c.55,0,1.03-.21,1.44-.62.41-.41.62-.89.62-1.44V6.29c0-.55-.21-1.03-.62-1.44-.41-.41-.89-.62-1.44-.62h0Z"/>
  <path d="M109.72,5.91c.14,0,.28.03.45.21.17.17.2.3.2.45v17.11c0,.14-.03.28-.21.45-.17.17-.3.21-.45.21h-18.76c-.14,0-.28-.03-.45-.21-.17-.17-.2-.3-.2-.45v-6.06h-9.24v19.51h19.34c3.13,0,5.71.5,7.64,1.49,1.99,1.02,2.39,2.1,2.45,2.9-.13.34-.13.65-.13.79v57.2c0,1.62-.92,3.04-2.81,4.33-2.03,1.39-4.53,2.09-7.42,2.09h-28.89c-2.89,0-5.36-.7-7.35-2.08-1.85-1.28-2.75-2.7-2.75-4.32v-34.64c0-.14.03-.28.2-.45.17-.17.3-.21.45-.21h18.76c.14,0,.28.03.45.21.17.17.21.3.21.45v28.37h9.1v-44.01h-17.28c-4.1,0-7.15-.85-9.07-2.53-1.89-1.65-2.81-3.32-2.81-5.1V12.17c0-1.62.89-3.01,2.74-4.24,1.99-1.34,4.47-2.02,7.36-2.02h38.47M109.72,4.5h-38.47c-3.2,0-5.91.75-8.15,2.26-2.24,1.51-3.35,3.31-3.35,5.41v29.43c0,2.19,1.1,4.24,3.29,6.16,2.19,1.92,5.52,2.87,9.99,2.87h15.88v41.21h-6.3v-26.97c0-.55-.21-1.03-.62-1.44-.41-.41-.89-.62-1.44-.62h-18.76c-.55,0-1.03.21-1.44.62-.41.41-.62.89-.62,1.44v34.64c0,2.1,1.12,3.93,3.35,5.48,2.24,1.55,4.95,2.33,8.15,2.33h28.89c3.19,0,5.93-.78,8.21-2.33,2.28-1.55,3.42-3.38,3.42-5.49v-57.2c0-.18.02-.3.07-.34.04-.04.07-.11.07-.21,0-1.83-1.07-3.29-3.22-4.39-2.15-1.1-4.91-1.65-8.28-1.65h-17.93v-16.7h6.43v4.65c0,.55.2,1.03.62,1.44.41.41.89.62,1.44.62h18.76c.55,0,1.03-.21,1.44-.62.41-.41.62-.89.62-1.44V6.56c0-.55-.2-1.03-.62-1.44-.41-.41-.89-.62-1.44-.62h0Z"/>
  <path d="M147.15,5.83c.14,0,.28.03.45.21.17.17.21.3.21.45v10.4c0,.14-.03.28-.21.45-.17.17-.3.2-.45.2h-10.16v87.65c0,.15-.03.28-.21.45-.17.17-.3.2-.45.2h-18.34c-.14,0-.28-.03-.45-.2-.17-.17-.21-.3-.21-.45V17.53h-9.89c-.14,0-.28-.03-.45-.2-.17-.17-.21-.3-.21-.45V6.48c0-.14.03-.28.2-.45.17-.17.3-.21.45-.21h39.7M147.15,4.42h-39.7c-.55,0-1.03.21-1.44.62-.41.41-.62.89-.62,1.44v10.4c0,.55.21,1.03.62,1.44.41.41.89.62,1.44.62h8.49v86.24c0,.55.21,1.03.62,1.44.41.41.89.62,1.44.62h18.34c.55,0,1.03-.21,1.44-.62.41-.41.62-.89.62-1.44V18.93h8.76c.55,0,1.03-.21,1.44-.62.41-.41.62-.89.62-1.44V6.48c0-.55-.21-1.03-.62-1.44-.41-.41-.89-.62-1.44-.62h0Z"/>
</svg>