<?xml version="1.0" encoding="UTF-8"?>
<svg id="Layer_1" data-name="Layer 1" xmlns="http://www.w3.org/2000/svg" viewBox="0 0 317.25 111.55">
  <path d="M54.76,5.72c.14,0,.27.04.45.21.17.17.21.3.21.45v98.7c0,.15-.03.28-.21.45-.17.17-.3.21-.45.21h-18.48c-.14,0-.28-.03-.45-.21-.17-.17-.21-.3-.21-.45v-56.16h-9.79v56.16c0,.14-.03.28-.21.45-.17.17-.3.21-.45.21H6.85c-.14,0-.28-.03-.45-.21-.17-.17-.21-.3-.21-.45V6.37c0-.14.03-.28.21-.45.17-.17.3-.21.45-.21h18.34c.14,0,.27.04.45.21.17.17.21.3.21.45v30.6h9.79V6.37c0-.14.03-.28.21-.45.17-.17.3-.21.45-.21h18.48M54.76,4.31h-18.48c-.55,0-1.03.21-1.44.62-.41.41-.62.89-.62,1.44v29.2h-6.98V6.37c0-.55-.21-1.03-.62-1.44-.41-.41-.89-.62-1.44-.62H6.85c-.55,0-1.03.21-1.44.62-.41.41-.62.89-.62,1.44v98.7c0,.55.21,1.03.62,1.44.41.41.89.62,1.44.62h18.34c.55,0,1.03-.21,1.44-.62s.62-.89.62-1.44v-54.76h6.98v54.76c0,.55.21,1.03.62,1.44s.89.62,1.44.62h18.48c.55,0,1.03-.21,1.44-.62s.62-.89.62-1.44V6.37c0-.55-.21-1.03-.62-1.44-.41-.41-.89-.62-1.44-.62h0Z"/>
  <path d="M98.72,5.72c.14,0,.27.04.45.21.17.17.21.3.21.45v98.7c0,.15-.03.28-.21.45-.17.17-.3.21-.45.21h-38.33c-2.72,0-5.16-.68-7.25-2.03-1.92-1.24-2.85-2.62-2.85-4.23v-35.46c0-.14.03-.28.21-.45.17-.17.3-.21.45-.21h18.76c.14,0,.28.03.45.21.17.17.21.3.21.45v29.06h9.1v-44.29h-19.06c-2.9,0-5.37-.68-7.36-2.02-1.84-1.24-2.73-2.63-2.73-4.24V6.37c0-.14.03-.28.21-.45.17-.17.3-.21.45-.21h18.76c.14,0,.28.03.45.21.17.17.21.3.21.45v30.43h8.97V6.37c0-.14.03-.28.21-.45.17-.17.3-.21.45-.21h18.76M98.72,4.31h-18.76c-.55,0-1.03.21-1.44.62-.41.41-.62.89-.62,1.44v29.02h-6.16V6.37c0-.55-.21-1.03-.62-1.44-.41-.41-.89-.62-1.44-.62h-18.76c-.55,0-1.03.21-1.44.62-.41.41-.62.89-.62,1.44v36.14c0,2.1,1.12,3.9,3.35,5.41,2.24,1.51,4.95,2.26,8.15,2.26h17.66v41.48h-6.3v-27.65c0-.55-.21-1.03-.62-1.44-.41-.41-.89-.62-1.44-.62h-18.76c-.55,0-1.03.21-1.44.62-.41.41-.62.89-.62,1.44v35.46c0,2.1,1.16,3.9,3.49,5.41,2.33,1.51,5,2.26,8.01,2.26h38.33c.55,0,1.03-.21,1.44-.62s.62-.89.62-1.44V6.37c0-.55-.21-1.03-.62-1.44-.41-.41-.89-.62-1.44-.62h0Z"/>
  <path d="M142.78,5.72c.14,0,.27.04.45.21.17.17.21.3.21.45v27.42c0,1.05-.02,1.95-.07,2.65-.03.51-.17.95-.41,1.34-.26.43-.71.87-1.33,1.3-.73.51-1.76,1.13-3.07,1.83l-3.13,1.67,3.43.92c1.28.34,2.28.68,2.98,1.01.72.34,1.06.65,1.21.84.18.23.29.56.31,1,.04.71.07,1.6.07,2.66v46.88c0,1.23-.43,2.35-1.32,3.43-.98,1.18-2.36,2.27-4.11,3.23-1.79.98-3.93,1.77-6.35,2.33-2.43.57-5.14.85-8.03.85h-28.48c-.14,0-.28-.03-.45-.21-.17-.17-.21-.3-.21-.45V6.37c0-.14.03-.28.21-.45.17-.17.3-.21.45-.21h47.64M114.69,37.23l1.43-.03,6.3-.14,1.37-.03v-19.61h-9.1v19.81M114.69,93.33h8.83v-41.27h-8.83v41.27M142.78,4.31h-47.64c-.55,0-1.03.21-1.44.62-.41.41-.62.89-.62,1.44v98.7c0,.55.21,1.03.62,1.44s.89.62,1.44.62h28.48c3.01,0,5.79-.3,8.35-.89,2.55-.59,4.79-1.42,6.71-2.47,1.92-1.05,3.42-2.24,4.52-3.56,1.1-1.33,1.64-2.77,1.64-4.32v-46.88c0-1.1-.02-2.01-.07-2.74-.05-.73-.25-1.32-.62-1.78-.37-.46-.94-.87-1.71-1.23-.78-.37-1.85-.73-3.22-1.1,1.37-.73,2.44-1.37,3.22-1.92.77-.55,1.35-1.12,1.71-1.71.36-.59.57-1.26.62-1.99.05-.73.07-1.65.07-2.74V6.37c0-.55-.21-1.03-.62-1.44-.41-.41-.89-.62-1.44-.62h0ZM116.09,35.8v-16.98h6.3v16.84l-6.3.14h0ZM116.09,91.93v-38.47h6.02v38.47h-6.02Z"/>
  <path d="M177.01,5.72c2.71,0,5.15.71,7.23,2.1,1.93,1.29,2.87,2.7,2.87,4.32v21.66c0,1.05-.02,1.95-.07,2.65-.03.51-.17.95-.41,1.34-.26.43-.71.87-1.33,1.3-.73.51-1.76,1.13-3.07,1.83l-3.05,1.63,3.33.95c1.2.34,2.12.66,2.73.95.49.23.85.49,1.07.77.22.28.38.66.48,1.12.12.61.23,1.44.32,2.46l.14,56.28c0,.15-.03.28-.21.45-.17.17-.3.21-.45.21h-18.76c-.14,0-.28-.03-.45-.21-.17-.17-.21-.3-.21-.45v-53.26l-1.37-.03-6.02-.14-1.43-.03v53.46c0,.14-.03.28-.21.45-.17.17-.3.21-.45.21h-19.03c-.14,0-.28-.03-.45-.21-.17-.17-.21-.3-.21-.45V6.37c0-.14.03-.28.21-.45.17-.17.3-.21.45-.21h38.33M158.08,36.79h9.38v-19.23h-9.38v19.23M177.01,4.31h-38.33c-.55,0-1.03.21-1.44.62-.41.41-.62.89-.62,1.44v98.7c0,.55.21,1.03.62,1.44s.89.62,1.44.62h19.03c.55,0,1.03-.21,1.44-.62s.62-.89.62-1.44v-52.02l6.02.14v51.89c0,.55.21,1.03.62,1.44s.89.62,1.44.62h18.76c.55,0,1.03-.21,1.44-.62s.62-.89.62-1.44l-.14-56.34c-.09-1.1-.21-1.99-.34-2.67-.14-.68-.39-1.26-.75-1.71-.37-.46-.89-.84-1.57-1.17-.68-.32-1.67-.66-2.94-1.03,1.37-.73,2.44-1.37,3.22-1.92.77-.55,1.35-1.12,1.71-1.71.36-.59.57-1.26.62-1.99.05-.73.07-1.65.07-2.74V12.13c0-2.1-1.16-3.93-3.49-5.48-2.33-1.55-5-2.33-8.01-2.33h0ZM159.48,35.39v-16.43h6.57v16.43h-6.57Z"/>
  <path d="M222.33,5.72c.14,0,.28.03.45.21s.21.3.21.45v10.4c0,.14-.03.28-.21.45-.17.17-.3.21-.45.21h-10.16v75.64h10.16c.14,0,.28.03.45.21.17.17.21.3.21.45v11.36c0,.14-.03.28-.21.45-.17.17-.3.21-.45.21h-39.7c-.14,0-.28-.03-.45-.21-.17-.17-.21-.3-.21-.45v-11.36c0-.14.03-.28.21-.45.17-.17.3-.21.45-.21h9.89V17.42h-9.89c-.14,0-.28-.03-.45-.21-.17-.17-.21-.3-.21-.45V6.37c0-.14.03-.28.21-.45.17-.17.3-.21.45-.21h39.7M222.33,4.31h-39.7c-.55,0-1.03.21-1.44.62-.41.41-.62.89-.62,1.44v10.4c0,.55.21,1.03.62,1.44.41.41.89.62,1.44.62h8.49v72.83h-8.49c-.55,0-1.03.21-1.44.62-.41.41-.62.89-.62,1.44v11.36c0,.55.21,1.03.62,1.44s.89.62,1.44.62h39.7c.55,0,1.03-.21,1.44-.62s.62-.89.62-1.44v-11.36c0-.55-.21-1.03-.62-1.44-.41-.41-.89-.62-1.44-.62h-8.76V18.83h8.76c.55,0,1.03-.21,1.44-.62.41-.41.62-.89.62-1.44V6.37c0-.55-.21-1.03-.62-1.44-.41-.41-.89-.62-1.44-.62h0Z"/>
  <path d="M266.56,5.72c.14,0,.27.04.45.21.17.17.21.3.21.45l.14,89.51c0,1.24-.42,2.37-1.27,3.45-.93,1.17-2.28,2.25-4.02,3.21-1.79.98-3.93,1.77-6.35,2.33-2.43.57-5.14.85-8.03.85h-28.61c-.14,0-.28-.03-.45-.21-.17-.17-.21-.3-.21-.45V6.37c0-.14.03-.28.21-.45.17-.17.3-.21.45-.21h47.5M238.33,92.92h9.51V17.42h-9.51v75.5M266.56,4.31h-47.5c-.55,0-1.03.21-1.44.62-.41.41-.62.89-.62,1.44v98.7c0,.55.21,1.03.62,1.44s.89.62,1.44.62h28.61c3.01,0,5.79-.3,8.35-.89,2.55-.59,4.79-1.42,6.71-2.47,1.92-1.05,3.4-2.24,4.45-3.56,1.05-1.33,1.57-2.77,1.57-4.32l-.14-89.52c0-.55-.21-1.03-.62-1.44-.41-.41-.89-.62-1.44-.62h0ZM239.73,91.52V18.83h6.71v72.69h-6.71Z"/>
  <path d="M310.55,5.72c.14,0,.27.04.45.21.17.17.21.3.21.45v98.7c0,.15-.03.28-.21.45-.17.17-.3.21-.45.21h-18.76c-.14,0-.28-.03-.45-.21-.17-.17-.21-.3-.21-.45v-55.89h-8.97v55.89c0,.14-.03.28-.21.45-.17.17-.3.21-.45.21h-18.76c-.14,0-.28-.03-.45-.21-.17-.17-.21-.3-.21-.45V11.99c0-1.62.89-3.01,2.74-4.25,1.99-1.34,4.47-2.02,7.36-2.02h38.33M282.18,36.93h8.97v-19.51h-8.97v19.51M310.55,4.31h-38.33c-3.2,0-5.91.76-8.15,2.26-2.24,1.51-3.35,3.31-3.35,5.41v93.08c0,.55.21,1.03.62,1.44s.89.62,1.44.62h18.76c.55,0,1.03-.21,1.44-.62s.62-.89.62-1.44v-54.49h6.16v54.49c0,.55.21,1.03.62,1.44s.89.62,1.44.62h18.76c.55,0,1.03-.21,1.44-.62s.62-.89.62-1.44V6.37c0-.55-.21-1.03-.62-1.44-.41-.41-.89-.62-1.44-.62h0ZM283.58,35.53v-16.7h6.16v16.7h-6.16Z"/>
</svg>