<?xml version="1.0" encoding="UTF-8"?>
<svg id="Layer_1" data-name="Layer 1" xmlns="http://www.w3.org/2000/svg" viewBox="0 0 182.38 111.66">
  <defs>
    <style>
      .cls-1 {
        fill: none;
        stroke: #000;
        stroke-width: 1.42px;
      }
    </style>
  </defs>
  <path class="cls-1" d="M55.03,104.37c-2.26,1.54-4.98,2.31-8.14,2.31H9.04c-.54,0-1.02-.2-1.42-.61-.41-.41-.61-.88-.61-1.42v-56.03c0-.54.2-1.02.61-1.42.41-.41.88-.61,1.42-.61h18.45c.54,0,1.02.2,1.42.61.41.41.61.88.61,1.42v42.73h6.51V6.84c0-.54.2-1.02.61-1.43.41-.41.88-.61,1.42-.61h18.31c.54,0,1.02.21,1.42.61.41.41.61.88.61,1.42v92.1c0,2.08-1.13,3.9-3.39,5.44Z"/>
  <path class="cls-1" d="M102.46,106.07c-.41.41-.88.61-1.42.61h-28.49c-6.24,0-11.28-1.02-15.13-3.06-3.85-2.04-5.76-5.23-5.76-9.58V6.83c0-.54.2-1.02.61-1.42.41-.41.88-.61,1.42-.61h18.45c.54,0,1.02.21,1.42.61.41.41.61.88.61,1.42v84.5h6.24V6.83c0-.54.2-1.02.61-1.42.41-.41.88-.61,1.42-.61h18.59c.54,0,1.02.21,1.42.61.41.41.61.88.61,1.42v97.81c0,.54-.21,1.02-.61,1.43Z"/>
  <path class="cls-1" d="M147.07,106.07c-.41.41-.88.61-1.42.61h-18.45c-.54,0-1.02-.2-1.42-.61-.41-.41-.61-.88-.61-1.42v-61.32c0-2.62-.61-5.24-1.83-7.87-1.22-2.62-2.73-4.7-4.55-6.24v75.43c0,.54-.2,1.02-.61,1.42-.41.41-.88.61-1.42.61h-18.45c-.54,0-1.02-.2-1.42-.61-.41-.41-.61-.88-.61-1.43V6.83c0-.54.2-1.02.61-1.42.41-.41.88-.61,1.42-.61h7.19c2.44,0,4.61.23,6.51.68,1.9.45,3.66,1.04,5.29,1.77,1.63.72,3.12,1.58,4.48,2.58,1.36,1,2.67,2.08,3.93,3.26v-6.25c0-.54.21-1.02.61-1.42.41-.41.88-.61,1.42-.61h17.91c.54,0,1.02.21,1.42.61.41.41.61.88.61,1.42v97.81c0,.54-.2,1.02-.61,1.43Z"/>
  <path class="cls-1" d="M174.46,106.07c-.41.41-.88.61-1.42.61h-30.39c-.54,0-1.02-.2-1.42-.61-.41-.41-.61-.88-.61-1.43V6.83c0-.54.2-1.02.61-1.42.41-.41.88-.61,1.42-.61h29.3c.54,0,1.02.21,1.42.61.41.41.61.88.61,1.42v10.46c0,.54-.2,1.02-.61,1.43-.41.41-.88.61-1.42.61h-8.82v35.73h9.09c.54,0,1.02.2,1.42.61.41.41.61.88.61,1.43v10.6c0,.54-.21,1.02-.61,1.43-.41.41-.88.61-1.42.61h-9.09v21.6h9.9c.54,0,1.02.21,1.42.61.41.41.61.88.61,1.43v11.28c0,.54-.21,1.02-.61,1.43Z"/>
</svg>