<?xml version="1.0" encoding="UTF-8"?>
<svg id="Layer_1" data-name="Layer 1" xmlns="http://www.w3.org/2000/svg" viewBox="0 0 313 352">
  <defs>
    <style>
      .cls-1 {
        fill: #4444d8;
        stroke-width: 0px;
      }
    </style>
  </defs>
  <path class="cls-1" d="m280.36,280.23c-25.54,23.5-55.81,35.25-90.84,35.25-37.06,0-68.69-13.1-94.9-39.32-26.21-26.21-39.32-57.84-39.32-94.9s13.1-68.69,39.32-94.9c26.21-26.21,57.84-39.32,94.9-39.32,19.2,0,37.51,3.84,54.91,11.52-3.17,0-9.38-.28-18.64-.85-9.27-.56-14.91-.85-16.95-.85-22.37,0-43.27,8.47-62.7,25.42-19.44,16.95-29.15,36.04-29.15,57.28,0,6.78,2.48,14.01,7.46,21.69,0,2.71-1.7,7.12-5.08,13.22,3.61,2.94,12.25,11.3,25.93,25.08,13.67,13.78,20.39,21.24,20.17,22.37-.23.91-3.17,2.6-8.81,5.08-7.23,3.62-11.86,6.1-13.9,7.46-.68.68-1.02,1.36-1.02,2.03,0,1.13,1.24,1.69,3.73,1.69,3.61-.22,7.79-.22,12.54,0,2.26,2.03,1.47,4.97-2.37,8.81.9.91,2.93,1.92,6.1,3.05,2.48,1.13,3.73,2.37,3.73,3.73,0,1.13-.34,3-1.02,5.59-.68,2.6-1.02,4.47-1.02,5.59,7.91,16.5,29.49,24.74,64.74,24.74,3.16,0,20.56-3.16,52.2-9.49Zm-26.1,11.52c-15.82,3.17-28.7,4.74-38.64,4.74-2.26,0-4.18-.22-5.76-.68-10.85-1.81-23.39-5.53-37.62-11.19-1.81,1.81-3.62,2.37-5.42,1.7-.23,0-1.36-.9-3.39-2.71l4.07-2.03c.45-2.71-3.51-8.13-11.86-16.27,3.39-3.39,5.08-6.21,5.08-8.47-3.84-3.84-5.99-5.76-6.44-5.76-3.84,2.49-6.33,4.74-7.46,6.78-1.13,2.03-1.81,3.17-2.03,3.39-.91.46-2.03-.11-3.39-1.69-1.36-1.58-1.81-2.71-1.36-3.39,1.36-.45,2.71-1.02,4.07-1.69,2.71-1.58,6.1-5.08,10.17-10.51-6.33.23-11.52-1.69-15.59-5.76-.46-.45-.68-.9-.68-1.36s.39-1.24,1.19-2.37c.79-1.13,1.07-2.26.85-3.39-.68-1.81-.79-3.16-.34-4.07.45-.9,1.47-1.36,3.05-1.36.22.46,1.69.91,4.41,1.36,7.23-2.03,10.62-4.41,10.17-7.12-.68-2.93-6.33-9.37-16.95-19.32-6.33-5.64-12.66-11.41-18.98-17.29-.23,2.49-.57,4.63-1.02,6.44-.23.68,0,1.36.68,2.03,3.16,1.81,7,5.31,11.52,10.51-4.29.46-9.95-.85-16.95-3.9-7.01-3.05-12.09-4.58-15.25-4.58-1.13,0-2.26.12-3.39.34-1.81.46-2.94-.34-3.39-2.37-.46-2.03-.12-3.73,1.02-5.08,2.48-3.16,7-7.57,13.56-13.22,5.87-5.2,9.6-9.15,11.19-11.86-1.81-2.93-4.18-8.02-7.12-15.25-1.58-6.55-1.42-14.12.51-22.71,1.92-8.58,5.36-16.49,10.34-23.73,6.78-9.94,15.47-19.2,26.1-27.79,11.98-9.71,23.16-15.81,33.56-18.3-33.67,1.81-62.14,15.03-85.41,39.66-23.28,24.63-34.91,53.89-34.91,87.79s12.42,65.36,37.28,90.33c24.85,24.97,54.91,37.45,90.16,37.45,23.05,0,44.51-5.76,64.4-17.28Zm-136.25-113.88c-.91.23-3.05,1.24-6.44,3.05-2.49,1.36-3.73,3.17-3.73,5.42,0,1.36.68,2.49,2.03,3.39l5.08,1.36,3.05-13.22Zm14.91,56.6c-5.88,1.13-10.62-2.03-14.23-9.49-1.13-2.03-2.15-4.18-3.05-6.44-.91-1.58-2.71-3.16-5.42-4.75,1.58-1.13,3.05-1.69,4.41-1.69,2.26,0,4.07,1.98,5.42,5.93,1.36,3.96,2.48,6.05,3.39,6.27,1.36.68,3.1.06,5.25-1.86,2.14-1.92,3.56-2.88,4.24-2.88.45,0,.9.12,1.36.34-3.62,3.17-5.42,5.76-5.42,7.8,0,.46,1.36,2.71,4.07,6.78Z"/>
</svg>