<?xml version="1.0" encoding="UTF-8"?>
<svg id="Layer_1" data-name="Layer 1" xmlns="http://www.w3.org/2000/svg" viewBox="0 0 111.74 111.66">
  <g>
    <path d="M5.48,7.79l18.02,18.02c-7.73,8.27-11.97,19.02-11.97,30.37s4.2,22,11.86,30.25l-17.91,17.91V7.79M4.48,5.38v101.39l20.31-20.31c-7.59-7.83-12.26-18.51-12.26-30.27s4.72-22.55,12.37-30.39L4.48,5.38h0Z"/>
    <path d="M104.33,5.51l-18.02,18.02c-8.26-7.66-18.96-11.86-30.25-11.86s-22,4.2-30.25,11.86L7.78,5.51h96.55M106.74,4.51H5.37l20.42,20.42c7.83-7.59,18.51-12.26,30.27-12.26s22.44,4.67,30.27,12.26l20.42-20.42h0Z"/>
    <path d="M86.43,88.74l17.89,17.89H7.79l17.89-17.89c8.27,7.73,19.02,11.97,30.37,11.97s22.1-4.24,30.37-11.97M86.44,87.34c-7.84,7.65-18.56,12.37-30.39,12.37s-22.55-4.72-30.39-12.37l-20.29,20.29h101.35l-20.29-20.29h0Z"/>
    <path d="M106.6,7.82v96.51l-17.88-17.88c7.66-8.26,11.86-18.96,11.86-30.25s-4.24-22.1-11.97-30.37l18-17.99M107.6,5.41l-20.39,20.39c7.65,7.84,12.37,18.56,12.37,30.39s-4.67,22.44-12.26,30.27l20.28,20.28V5.41h0Z"/>
  </g>
  <g>
    <path d="M13.9,57.21c.71-.15,1.47-.09,2.27.01.17-.07.36-.07.45-.07,1.15.07,2.3,0,3.43-.22.66-.42,1.51-.55,2.28-.34l.44.12.11-.02-.14-.22c.07,0,.14-.01.21-.02v-.02h-1.1l-.05-.3c-.02-.11-.05-.21-.08-.32.01.08.02.17.02.25v.37s-2.07,0-2.07,0l.06-.41c.01-.09,0-.19.02-.28h-.02c-.08.01-.17.02-.26.03.01.09.03.17.04.26l.05.4h-1.52l.06-.42s0-.06,0-.09c-.45.04-.91.08-1.36.11l.19.4h-.97l-.02-.36c-.19,0-.38.02-.57.02l.17.33h-.66v.02-.02s0,.02,0,.02h-.12c-.39.02-.8.03-1.2.03-.28,0-.56,0-.85-.03h-.12s0-.03,0-.03h-.3c-.11.14-.17.31-.14.48.02.13.09.23.17.32.16-.05.32-.06.43-.06l1.15.04ZM19.8,56.45h.69c-.88.16-1.77.26-2.66.22.66-.06,1.32-.13,1.97-.22Z"/>
    <path d="M39.81,55.73h-.3c0,.12.01.24,0,.35v.22s0,0,0,0l.32-.29-.03-.28Z"/>
    <path d="M38.96,56.51l.18-.07s.02,0,.03-.01h-1.54l-.03-.32c-.01-.13,0-.25-.02-.37h-.14l-.02.7h-.22l.2.07c.11.04.22.08.32.11.42.06.85.05,1.24-.1Z"/>
    <polygon points="91.88 55.73 91.82 55.73 91.86 55.92 91.88 55.73"/>
    <path d="M40.45,64.47c-.8.16-1.61.34-2.4.26-.36-.03-.72-.12-1.09-.21-.62-.15-1.25-.3-1.93-.22-.31.04-.58.13-.85.21-.33.1-.63.22-.97.19-.2,0-.41-.05-.63-.09-.2-.04-.39-.08-.59-.1-.64-.05-1.24.12-1.83.29-.6.17-1.16.34-1.7.22-.3-.06-.54-.21-.81-.36-.3-.17-.62-.35-1.03-.44-.64-.13-1.27.02-1.87.17-.2.05-.4.1-.59.13-.93.17-1.96.08-2.95,0-.25-.02-.49-.04-.74-.06-1.74-.13-2.99.07-3.79.59l-1.28.75,9.54.26c.37,0,.76.02,1.09.11.15.04.29.1.43.16.19.08.38.16.6.21.22.05.43.07.65.07.51,0,1.01-.12,1.5-.23.51-.12.99-.25,1.47-.22.25,0,.49.04.74.08.24.04.48.07.72.09.55.03,1.07-.06,1.58-.15.15-.03.31-.05.46-.08,1.09-.16,2.24-.15,3.35-.14.47,0,.95,0,1.41,0,2.11-.04,3.64-.37,4.66-1.02l.73-.46-.84-.2c-1.01-.24-2.04-.03-3.04.18ZM18.72,65.18c.49-.05,1.06-.05,1.7,0,.24.02.48.04.73.06.02,0,.03,0,.05,0l-2.47-.07ZM27.22,65.84c-.17-.04-.33-.11-.49-.17-.17-.07-.33-.14-.51-.19-.41-.11-.86-.13-1.26-.14l-1.24-.03c.19-.02.37-.04.56-.08.21-.04.42-.09.63-.14.55-.13,1.07-.26,1.56-.16.3.06.55.2.82.36.3.17.61.35,1.02.44.11.02.21.04.32.05-.49.11-.96.17-1.4.07ZM34.06,65.4c-.16.02-.32.05-.48.08-.49.08-.96.16-1.42.14-.22-.01-.43-.05-.65-.08-.27-.04-.55-.09-.83-.09-.03,0-.05,0-.08,0-.02,0-.04,0-.05,0,.47-.14.93-.24,1.38-.21.17.02.34.05.51.09.24.05.49.1.76.11.42,0,.82-.11,1.19-.23.25-.08.49-.15.73-.18.54-.07,1.09.06,1.67.2.03,0,.06.01.09.02-.91,0-1.89.02-2.81.15Z"/>
    <path d="M32.89,56.33l.13-.03v-.04s-.06-.02-.06-.02c0,0-.01.01-.02.02l-.06.07Z"/>
    <path d="M54.6,66.86c.4,0,.81-.03,1.2-.12.18-.04.36-.1.53-.15.29-.09.57-.18.86-.19.38-.01.73.09,1.11.19.32.09.66.19,1.02.22,1.11.09,2.08-.43,2.94-1l.8-.53-.96-.12c-.69-.09-1.37,0-2.04.08-.73.09-1.42.17-2.06.04-.21-.04-.42-.11-.62-.18-.3-.1-.61-.2-.97-.25-.53-.06-1.04.03-1.54.13-.41.08-.79.15-1.2.13-.25-.01-.5-.06-.76-.11-.31-.06-.63-.13-.97-.13-.43-.02-.82.08-1.2.17-.29.06-.55.12-.83.15-.45.03-.89-.04-1.37-.11-.18-.03-.36-.06-.54-.08-.59-.07-1.4-.09-1.98.23-.17,0-.33,0-.49.02l.03.72h.52s.14-.01.14-.01c.51.02,1.02.12,1.52.22l.34.06c1.76.32,3.59.45,5.36.58.36.03.75.05,1.14.05ZM60.16,65.95c.16-.02.32-.04.47-.06-.39.15-.8.24-1.25.2-.1,0-.19-.02-.29-.04.36-.02.71-.06,1.06-.11ZM50.92,65.74c.35-.08.66-.13,1.03-.15.28,0,.55.06.84.12.28.06.56.11.86.13.48.03.93-.06,1.36-.14.46-.09.89-.17,1.32-.12.2.02.4.08.6.14-.29.04-.56.12-.82.2-.16.05-.32.1-.48.13-.67.16-1.44.1-2.13.05-1.01-.07-2.05-.15-3.07-.26.16-.03.32-.07.48-.1Z"/>
    <path d="M56.06,100.35c11.5,0,22.61-4.53,30.83-12.51l-.51-.51c-8.09,7.84-19,12.31-30.32,12.31s-22.33-4.51-30.38-12.36l-.5.5c8.19,7.98,19.21,12.58,30.88,12.58Z"/>
    <path d="M95.93,56.04h0s0,0,0,0l.03-.09c.02-.07.06-.15.09-.22h-.37c0,.11.02.22.02.33v.37s-1.34,0-1.34,0l-.22-.26-.18.26h-1.4v.02c-.25.03-.49.04-.72.04-.09,0-.18,0-.27,0-.14,0-.28-.02-.42-.03v-.02s-.19,0-.19,0c-.06.08-.11.16-.14.24,0-.04.02-.08.02-.12,0-.04-.01-.08-.01-.12h-.93l-.08-.26c-.04-.14-.08-.29-.11-.44h-.12c.01.07.03.15.05.24l.14.46h-1.35l-.11-.17c-.1-.16-.19-.33-.24-.53h-.59s0,0,0,0c0,.13,0,.26-.02.38l-.04.31h-1.39v-.36c0-.11-.06-.22-.12-.34h-.1c0,.13-.02.26-.04.39l-.05.3h-5.35l.09-.43c.02-.08,0-.1,0-.11-.01-.03-.07-.09-.11-.13,0,0-.01-.01-.02-.02h-.9s-.01.05-.02.07c-.02.06-.03.12-.04.17v.37s-.41.09-.41.09h-.08s-.57-.15-.57-.15l-.15.15h-1.54l.26-.5-.19-.05c-.02.07-.04.15-.04.22l-.03.33h-2.79l-.02-.69c-.08.01-.15.03-.2.06,0,.11,0,.21-.02.32l-.04.31h-1.9v-.36c0-.11,0-.21-.01-.32-.07,0-.13-.01-.2-.02h-.16l-.08.7h-1.64l.1-.44c.02-.09.04-.18.06-.26h-.81c-.03.13-.07.27-.09.4l-.05.3h-1.56l.25-.7h-.2l-.28,2.71-.47-2.3c-.03-.14-.06-.27-.08-.41h-.2l-.12.7h-5.08v.15c0,.17.11.37.39.45-.31.02-.61.05-.91.09.06-.08.1-.18.1-.29,0-.15-.07-.29-.18-.4h-6.32v.12s-.02,0-.03,0c.01-.04.01-.08.02-.11h-9.36l-.12-.69h-.08c-.03.13-.05.27-.08.4l-.06.29h-.62l-.1-.32-.02-.25c-.06,0-.12,0-.18,0,0,0,0,.02,0,.03l.17.48-.49.06h-.97l-.06-.29c-.02-.09-.04-.18-.06-.27-.02,0-.04,0-.06,0-.23.05-.44.13-.64.21l.08.35h-1.58l-.02-.18s-.06,0-.09,0c-.09.01-.17.03-.25.06h-.01s0,.12,0,.12h-.12c-.07.07-.14.15-.24.21h0c-.18.12-.39.17-.58.17-.24,0-.47-.06-.65-.12-.07-.02-.14-.05-.21-.07-.22-.03-.44-.1-.65-.19h-1.94v.02c-.44.04-.89.04-1.33.01h0s-.03.04-.03.04c-.05-.02-.11-.04-.16-.06h-.02s-2.27,0-2.27,0l.15-.47c.02-.06.05-.11.07-.16l-.23-.07h-.45c.05.12.08.24.06.39l-.05.31h-1.47l.05-.4c0-.12-.04-.21-.08-.29h0s0,.09,0,.14c0,.09-.01.18-.04.28l-.07.28h-1.02l-.1-.1c-.17-.16-.27-.38-.34-.6h-.76c0,.11,0,.22,0,.33v.36s-3.3,0-3.3,0l.18-.44c-.15.01-.3.03-.45.04h-.18s-.03.06-.03.06l.12.34h-.26c0,.07,0,.15.03.22.02.06.05.11.09.16-.2.03-.39.09-.55.2l.25-.24-.17-.05-.4.09c-1.52.33-3.1.68-4.71.58-.42-.02-.84-.08-1.26-.13-.08,0-.15-.02-.23-.03-.07.03-.13.06-.19.11-.11.1-.16.23-.17.37,0,.09.02.19.08.28-.25-.04-.47-.11-.59-.3-.05-.08-.11-.19-.21-.27-.2-.17-.46-.18-.61-.18l-.57-.02c-.15.03-.29.05-.43.1-.22.08-.39.14-.59.14h0c-.2,0-.4-.09-.55-.23-.11.03-.22.08-.31.16-.11.11-.18.25-.18.4v.33s.04.5.04.5h0s.03.44.03.44c.02.31.04.61.07.92h0l.05.5h0c.07.71.16,1.42.26,2.12l.02.11h0l.07.41c.27,1.68.63,3.35,1.09,4.98l.09.33.33-.07c1.3-.28,2.8-.19,4.1-.05l.51.05c1.54.16,3.13.33,4.66.05.35-.06.71-.15,1.06-.24.83-.21,1.61-.4,2.39-.28.27.04.53.12.8.2.43.13.87.28,1.39.26.3,0,.59-.07.86-.12.35-.07.68-.14.99-.08.25.05.44.17.66.32.19.12.41.27.67.36.54.19,1.15.15,1.65.11l3.41-.24c.86-.06,1.84-.13,2.69.06.28.06.54.15.81.24.29.1.57.19.88.26,1.18.27,2.46.09,3.69-.07.87-.12,1.71-.23,2.48-.19-1.2.35-2.45.64-3.73.85-.61.1-1.31.2-1.96.1-.32-.05-.62-.15-.94-.26-.25-.08-.5-.16-.76-.22-.94-.22-1.97-.16-2.88-.11l-3.35.19c-.91.05-1.93.11-2.81-.12-.33-.09-.64-.22-.97-.36-.44-.19-.9-.38-1.44-.47-1.13-.19-2.19.14-3.22.45-.72.22-1.46.45-2.21.49-.71.04-1.45-.08-2.17-.2-1.08-.17-2.19-.35-3.22-.02-.31.1-.57.24-.83.37-.29.15-.56.29-.87.37-.55.14-1.18.07-1.61,0l-.59-.09.19.56c1.07,3.11,2.49,6.11,4.23,8.91l.15.24.27-.08c.92-.29,2.1-.37,3.08-.21.39.06.78.16,1.16.26.78.2,1.58.41,2.48.32.54-.05,1.02-.2,1.47-.34.54-.17,1.05-.34,1.63-.31.63.02,1.11.26,1.61.51.57.28,1.15.57,1.97.58h.03c.57,0,1.06-.14,1.53-.28.43-.13.84-.25,1.29-.26.51-.02.95.11,1.43.24.52.14,1.08.28,1.68.27.61-.02,1.1-.21,1.57-.38.43-.16.83-.31,1.31-.34.66-.03,1.25.18,1.85.41.53.2,1.08.41,1.75.47.88.07,1.7-.14,2.49-.35.78-.21,1.52-.41,2.29-.32.24.03.47.08.7.13.37.08.75.18,1.19.16.52-.02.93-.17,1.32-.32.29-.11.56-.21.88-.26.68-.1,1.34.07,2.05.24.35.09.7.17,1.06.23.98.16,2.05.1,3.08.03.81-.05,1.59-.1,2.3-.04-.31.07-.69.13-1.14.16-.38.02-.77.03-1.15.03-.54,0-1.1.01-1.65.07-.39.04-.76.11-1.14.18-.35.06-.7.13-1.06.17-.85.1-1.76.06-2.64.02l-3.98-.18c-.69-.03-1.48-.06-2.22.03-.41.05-.8.15-1.17.23-.49.12-.96.23-1.47.25-.8.03-1.5-.14-2.27-.32-.76-.18-1.53-.35-2.41-.34-.65.02-1.25.16-1.82.29-.69.16-1.34.31-2.03.25-.39-.03-.75-.13-1.13-.23-.47-.13-.95-.26-1.5-.26-.58.03-1.07.12-1.55.25-.42.11-.82.21-1.25.23-.55.03-1.08-.1-1.63-.23-.25-.06-.49-.12-.74-.16-.76-.14-1.59-.17-2.32-.2-1.55-.06-3.15-.11-4.73-.04l-.37.02c-.33.02-.66.04-.99.04h-.66s.37.56.37.56c1.49,2.2,3.16,4.24,4.97,6.11l.51-.51c-1.64-1.68-3.16-3.5-4.52-5.46.12,0,.24-.01.35-.02l.37-.02c1.55-.08,3.14-.02,4.67.04.74.03,1.51.05,2.22.18.24.04.47.1.71.15.57.14,1.17.28,1.83.25.51-.02.97-.14,1.41-.25.46-.12.89-.23,1.37-.23.46,0,.88.12,1.32.24.39.11.8.22,1.26.25.8.07,1.54-.11,2.25-.27.57-.13,1.11-.26,1.68-.27.78-.02,1.48.14,2.22.32.78.18,1.57.38,2.47.34.58-.03,1.1-.15,1.61-.27.37-.09.72-.17,1.1-.22.68-.09,1.43-.06,2.1-.03l3.99.18c.91.04,1.84.08,2.75-.02.38-.04.74-.11,1.11-.17.36-.06.71-.13,1.08-.17.51-.05,1.05-.06,1.58-.07.4,0,.8,0,1.19-.03.73-.04,2.01-.21,2.51-.82l.34-.42-.51-.15c-1.08-.32-2.35-.25-3.58-.17-.99.06-2.02.12-2.92-.03-.34-.05-.67-.14-1-.22-.74-.19-1.51-.38-2.33-.26-.39.06-.71.18-1.02.29-.36.13-.69.26-1.09.27-.35.01-.67-.06-1.02-.14-.25-.06-.51-.11-.78-.14-.91-.1-1.74.12-2.55.34-.76.2-1.48.4-2.24.33-.57-.05-1.05-.23-1.56-.42-.64-.24-1.31-.5-2.14-.45-.59.03-1.06.21-1.52.38-.44.16-.85.32-1.34.33-.53.02-.97-.11-1.47-.24-.51-.14-1.04-.29-1.63-.27-.55.01-1.03.15-1.48.29-.44.13-.86.25-1.33.25h-.02c-.65,0-1.14-.25-1.66-.5-.55-.27-1.12-.55-1.9-.58-.71-.01-1.3.16-1.88.34-.44.14-.85.27-1.32.31-.77.07-1.48-.11-2.23-.31-.4-.1-.8-.2-1.22-.27-1.01-.16-2.16-.11-3.14.15-1.55-2.53-2.83-5.21-3.83-7.99.4.03.86.03,1.31-.08.39-.1.71-.26,1.02-.42.24-.12.47-.24.72-.32.86-.28,1.84-.12,2.88.04.76.12,1.55.25,2.33.2.84-.05,1.62-.29,2.38-.52.99-.3,1.92-.59,2.89-.43.45.08.85.25,1.28.42.33.14.68.29,1.06.39.99.27,2.08.2,3.04.15l3.35-.19c.86-.05,1.84-.1,2.68.1.24.06.47.13.7.21.33.11.67.22,1.06.28.76.12,1.53.01,2.19-.1,1.79-.3,3.52-.74,5.14-1.3l.91-.32-.9-.35c-1.25-.49-2.71-.3-4.12-.11-1.17.16-2.37.32-3.43.08-.28-.06-.54-.15-.81-.24-.29-.1-.57-.19-.88-.26-.95-.22-1.99-.14-2.9-.08l-3.41.24c-.43.03-.96.07-1.36-.07-.18-.06-.35-.17-.52-.28-.25-.16-.53-.35-.92-.42-.44-.09-.86,0-1.27.08-.26.05-.5.1-.74.11-.41.04-.77-.11-1.17-.23-.29-.09-.58-.18-.9-.23-.93-.14-1.81.08-2.67.3-.34.08-.67.17-1.01.23-1.42.26-2.97.1-4.46-.06l-.51-.05c-1.25-.13-2.68-.22-4,0-.37-1.36-.68-2.75-.91-4.15.24.02.5.06.77.11.57.09,1.16.19,1.75.1.23-.03.44-.09.65-.15.26-.07.5-.13.75-.14.37-.03.73.1,1.11.23.13.04.26.09.39.12,1.24.35,2.71.28,3.9.21,1.54-.08,3.12-.22,4.12-.88l1.07-.71-6.13.24c-.52.02-1.1.04-1.6-.07-.25-.06-.47-.15-.71-.25-.38-.15-.77-.31-1.25-.34-.6-.04-1.12.13-1.63.29-.39.13-.76.25-1.16.27-.39.02-.77-.05-1.18-.13-.27-.05-.55-.11-.83-.13-.07,0-.14-.01-.21-.02-.04-.27-.07-.53-.1-.8.11.06.23.1.31.13.36.12.77.26,1.24.3.45.03,1.07-.06,1.36-.41l.31-.36-.07-.03c.35-.03.69-.08,1.02-.14.22-.05.43-.1.65-.15.51-.13.98-.25,1.51-.25.32,0,.63.06.96.12.21.04.42.08.63.1.26.03,1.07.09,1.6-.22l1.63.74.14-.05c.72-.25,1.57-.08,2.48.1.84.17,1.72.34,2.57.19.36-.06.68-.18.99-.29.43-.15.85-.29,1.29-.28.25.01.49.08.74.14.3.08.62.16.97.17.46,0,.89-.13,1.29-.27l.3-.1c.48-.15.99-.16,1.2-.03.07.05.12.12.19.24.1.17.24.42.57.54-.41-.04-.81.09-1.19.21-.19.06-.37.12-.57.16-.39.08-.82.05-1.28.02-.33-.02-.65-.05-.98-.03-.61.03-1.18.18-1.73.32-.59.15-1.15.29-1.69.29l-.38-.03-.08.71c.14.02.28.03.4.03l2.41.21c.67.06,1.5.13,2.23-.05.22-.05.43-.13.64-.2.36-.13.7-.24,1.06-.23.35.02.62.17.94.33.31.16.65.35,1.09.41.65.09,1.23-.11,1.78-.31.34-.12.65-.23.99-.28.72-.1,1.43.09,2.18.3.77.21,1.56.43,2.41.33.48-.06.88-.2,1.28-.35.2-.07.4-.14.61-.2.81-.23,1.72-.25,2.68-.26.86-.02,1.74-.03,2.57-.21l1.61-.35-1.61-.35-.15-.02c-1-.49-2.4-.39-3.64-.26-.69.07-1.41.15-2.06.35-.13.04-.26.09-.39.13-.24.09-.47.17-.72.21-.67.11-1.4-.05-2.15-.24-1.27-.32-2.62-.62-3.9-.37l-.29.06c-.34.08-.67.15-.94.08-.12-.03-.22-.09-.33-.15-.12-.07-.25-.14-.42-.2.31.02.61-.09.92-.21.85-.3,1.92-.33,2.87-.37l4.06-.14c.93-.03,1.76-.04,2.41.2l.2.08c.23.1.49.2.81.21.34,0,.66-.1.93-.2l.14-.05c.97-.34,2.26-.32,3.28-.32l12.67.08.03-.69h.21s.24.1.24.1c.28.1.6.13.91.09.41.02.87-.01,1.39-.11.19-.03.38-.07.57-.11.47-.1.91-.19,1.38-.21.37-.02.74,0,1.13.03.45.03.91.06,1.37.02.31-.03.61-.08.9-.15l1.86.23h.06s.04.01.04.01c1.74.66,3.96.83,5.95.46.21-.04.43-.08.58-.04.06.01.11.04.16.07.08.04.15.07.24.1.39.12.79.03,1.14-.05.13-.03.25-.06.38-.07.45-.06.92.02,1.41.11.09.02.18.03.28.05-.29.01-.58.03-.85.05-2.28.17-4.55.47-6.76.79l-1.12-.86-.22.19c-.06.05-.13.1-.2.15-.39.04-.77.11-1.15.18-.65.12-1.27.25-1.89.21-.27,0-.54-.05-.81-.08-.32-.04-.65-.09-1-.09-.37,0-.72.04-1.07.08-.46.06-.88.11-1.3.05-.29-.04-.55-.12-.83-.21-.35-.11-.72-.23-1.14-.25-.62-.04-1.17.13-1.71.29-.44.13-.85.26-1.29.27-.43.02-.79-.07-1.2-.16-.18-.04-.36-.08-.54-.11-1.05-.18-2.16-.11-3.14-.06-1.1.06-2.45.14-3.58.6,0,0-.01,0-.02,0,0,0-.01,0-.02,0l.34.63c.29-.11.76-.11,1.39,0l.13.02c.52.1,1.12.22,1.68.1.22-.05.42-.12.62-.2.23-.09.43-.17.65-.19.34-.01.68.13,1.02.28.11.05.23.1.34.15.86.35,2.02.41,2.96.16.22-.06.43-.13.64-.2.46-.16.88-.31,1.34-.27.21.02.42.08.63.14.2.06.4.11.61.15.48.07.96.02,1.43-.04l.31-.03c.73-.08,1.49-.07,2.23-.06.5,0,1,0,1.5-.01.92-.04,2.18-.18,3.07-.67.13-.01.27-.02.4-.02l.04.69c1.37.05,2.71-.06,4.02-.18l2.75-.24c.56-.05,1.13-.1,1.66-.01.29.05.57.13.86.22.15.05.3.1.46.14.97.26,2.04.32,2.99.32l.12.35c.52-.14,1.04-.27,1.51-.37,1.74-.06,3.46-.24,5.12-.53.07-.01.14-.03.21-.05.8-.01,1.61.01,2.37.04-.08.54-.16,1.09-.26,1.63-.06,0-.11-.02-.18,0h0c-1.08.08-4.97.11-6.04.05-.54-.03-1.06-.12-1.61-.21-.49-.08-1-.17-1.52-.21-.87-.07-1.75,0-2.59.05l-.57.04c-1.19.07-2.39.09-3.3.09-1.29,0-2.58,0-3.88-.02l-5.93-.06c-1.25-.01-2.53-.03-3.8.01-1.61.05-3.22.19-4.8.42l-.76.11.57.51c.69.62,1.96.57,2.47.52.32-.03.64-.09.96-.14.47-.08.91-.15,1.37-.16.47,0,.9.05,1.37.11.21.03.42.05.63.07.86.08,1.72.07,2.67.05,1.13-.02,2.26-.06,3.39-.1,1.73-.06,3.46-.14,5.19-.21.63-.03,1.28-.05,1.9.02.2.02.39.06.58.1.41.07.83.14,1.28.14.37-.01.72-.09,1.05-.16.23-.05.47-.1.71-.13.69-.08,1.41.06,2.1.19l.27.05c2.51.45,5.2.55,7.77.29.14-.01.28-.03.42-.06-.06.28-.12.57-.19.85-.43.01-.87.04-1.32.07-.95.06-1.93.12-2.85.01-.31-.04-.62-.09-.93-.15-.8-.14-1.62-.29-2.44-.13-.24.05-.47.12-.7.2-.36.12-.7.24-1.06.21-.28-.02-.53-.12-.81-.22-.2-.08-.39-.15-.6-.2-.87-.22-1.75-.03-2.6.15-.64.14-1.3.29-1.93.24-.49-.03-.95-.18-1.44-.33-.65-.2-1.34-.41-2.08-.34-.42.04-.8.16-1.16.28-.35.11-.67.22-1.03.25-.45.04-.9-.06-1.37-.16-.34-.07-.7-.15-1.07-.17-.83-.06-1.6.12-2.35.3-.48.11-.98.23-1.48.28-.63.06-1.27,0-1.95-.05-.33-.03-.67-.05-1-.07-.76-.03-2.11.01-2.91.63l-3.48.82,13.85.03c.67,0,1.36,0,2.04-.1.32-.05.63-.11.93-.18.47-.11.92-.21,1.39-.22.51-.02,1.03.07,1.58.16.52.09,1.01.16,1.61.17.48,0,.94-.08,1.39-.16.29-.05.59-.1.89-.13.6-.06,1.22-.02,1.83,0h.3c1.06.06,2.12.07,3.19.08.97,0,1.94.01,2.91,0,1.46,0,2.91-.04,4.34-.09-.21.8-.45,1.61-.71,2.4-2.33-.06-4.68-.03-6.95,0l-11.79.14c-1.42.02-2.89.04-4.34.09h-.15c-.72.04-1.46.07-2.15-.03-.2-.03-.39-.07-.58-.1-.39-.08-.8-.16-1.23-.16-.53-.03-1.09.13-1.59.26-.46.12-.9.23-1.36.23-.46,0-.91-.09-1.39-.19-.66-.14-1.35-.28-2.04-.14-.37.08-.68.22-.99.36-.39.18-.71.32-1.13.33-.41,0-.74-.18-1.12-.38-.33-.17-.68-.35-1.1-.44-.74-.15-1.42.04-2.09.22-.4.11-.78.21-1.17.25-.66.06-1.33-.08-2.03-.23-.3-.06-.6-.13-.9-.18-.78-.13-2.2-.15-2.85.52h-.02c-.13.01-.27.03-.4.05l.05.71h.49s.24-.01.24-.01l.02-.04c.84,0,1.68.23,2.57.47,1.16.31,2.35.63,3.57.43.22-.04.43-.09.65-.14.45-.11.87-.21,1.27-.14.21.04.4.12.61.21.17.08.35.15.54.21.54.16,1.11.14,1.66.12.17,0,.32-.02.52-.01.77,0,1.28.19,1.39.38l.27.47.33-.43c.5-.66,2.28-.67,2.94-.68l4.77-.04c2.23-.02,4.53-.04,6.79-.01h.94c.85.02,1.7.03,2.54.03,1.54,0,3.1-.06,4.61-.11l8.67-.29c.45-.01.9-.03,1.34-.05-1.82,4.91-4.5,9.4-7.95,13.37-.54-.07-1.15-.1-1.77-.1-.36,0-.73.01-1.09.03-1.01.03-2.06.07-3.01-.1-.35-.06-.69-.15-1.02-.23-.58-.15-1.17-.3-1.84-.32-.72-.02-1.39.1-2.04.22-.64.12-1.24.24-1.88.21-.55-.02-1.06-.14-1.61-.27-.65-.15-1.31-.3-2.05-.28-.7.03-1.29.21-1.86.4-.6.19-1.13.38-1.82.35-.35,0-.68-.07-1.03-.14-.39-.07-.79-.15-1.23-.15h0c-.8,0-1.41.24-2,.47-.44.17-.85.34-1.35.41-.89.13-1.82-.06-2.8-.26-.95-.19-1.94-.39-2.93-.29-.46.05-.87.17-1.27.28-.46.13-.89.25-1.38.27-.55.02-1.1-.08-1.67-.2-.53-.11-1.08-.21-1.66-.21h0c-.83,0-1.52.21-2.19.42-.56.17-1.09.33-1.69.38-.6.05-1.22-.02-1.87-.09-.27-.03-.53-.06-.8-.08-.47-.04-2.06-.11-2.69.49l-.44.42.58.18c2,.62,4.53.52,6.73.33l.69-.06c.94-.08,1.91-.17,2.87-.19,1.04-.03,2.12,0,3.16.03l.81.02c4.92.12,9.9-.12,14.7-.34,1.26-.06,2.52-.12,3.79-.14,2-.04,4.06.01,6.04.07,1.76.04,3.55.08,5.33.06l.16-.16.16.16c.17,0,.34,0,.5,0-.08.09-.17.17-.25.25l.5.5c.29-.3.59-.59.87-.89l.58-.63-.86.03c-2.3.08-4.68.02-6.99-.04-1.99-.05-4.05-.1-6.08-.07-1.27.02-2.54.08-3.81.15-2.64.12-5.33.25-8.03.32,0,0,0,0,0,0,.58-.08,1.05-.27,1.51-.45.55-.22,1.07-.42,1.74-.42h0c.37,0,.72.07,1.09.14.37.07.74.14,1.15.15.78.01,1.43-.19,2.06-.39.55-.17,1.07-.34,1.67-.36.64-.02,1.23.11,1.86.26.55.13,1.13.26,1.75.29.72.02,1.39-.1,2.04-.22.64-.12,1.24-.24,1.88-.21.59.02,1.12.16,1.69.3.35.09.71.18,1.08.24,1.02.17,2.11.14,3.15.11.36-.01.72-.02,1.08-.03.7,0,1.3.04,1.85.12l.2.03.13-.15c3.7-4.21,6.52-9.01,8.4-14.26l.18-.51-.54.03c-.62.04-1.25.06-1.87.08l-8.67.29c-1.5.05-3.06.1-4.58.11-.83,0-1.69,0-2.53-.02h-.94c-2.27-.04-4.58-.02-6.81,0l-4.77.04c-1.2,0-2.49.1-3.22.67-.5-.36-1.31-.41-1.71-.41-.17,0-.36,0-.54.01-.52.02-1.01.04-1.44-.09-.16-.05-.31-.11-.45-.18-.23-.1-.48-.21-.77-.26-.56-.1-1.07.03-1.57.15-.2.05-.4.1-.6.13-1.06.17-2.13-.11-3.26-.42-.47-.13-.95-.26-1.44-.35.32-.02.68,0,1.03.05.29.05.57.11.86.17.72.16,1.48.32,2.25.25.45-.04.88-.16,1.29-.27.61-.17,1.19-.32,1.76-.21.32.06.61.21.91.37.43.22.87.45,1.44.46.59-.01,1.01-.2,1.44-.39.28-.13.54-.25.83-.31.55-.11,1.14,0,1.76.14.5.1,1.05.2,1.55.2.54,0,1.05-.13,1.53-.26.48-.12.93-.26,1.41-.23.36,0,.72.07,1.1.14.21.04.41.08.62.11.76.11,1.54.07,2.28.05h.15c1.43-.06,2.9-.08,4.32-.1l11.79-.14c2.36-.03,4.8-.06,7.19,0h.27s.08-.25.08-.25c.35-1.05.66-2.11.92-3.17l.12-.47h0c.36-1.49.64-3.02.84-4.55l.05-.39h-.39c-.91-.05-1.88-.08-2.86-.07l-.11.02s-.1.03-.16.04c-1.19.21-2.41.35-3.66.44.27-.1.54-.2.81-.29,2.29-.78,4.29-1.06,6.09-.85l.36.04.04-.36c.06-.65.11-1.3.15-1.96v-.09s.05-1.25.05-1.25h0v-.21c0-.17,0-.35.01-.53h-4.52l.13-.38ZM17.9,62.62c.37.02.69.15,1.03.29.25.1.5.2.79.27-.33-.04-.66-.1-.97-.18-.12-.03-.25-.08-.37-.11-.3-.1-.61-.2-.95-.24.15-.02.31-.03.47-.02ZM13.47,60.8s0,.04,0,.06l-.09-.03s-.07-.03-.1-.04c0-.03.02-.07.02-.11,0-.03,0-.09-.01-.15.04,0,.08.01.12.02l.16.02c-.05.07-.08.14-.09.23ZM13.82,58.04c-.2.08-.35.22-.46.33-.08.08-.15.15-.22.17-.1.03-.25-.04-.41-.1l-.09-.03s-.01,0-.02,0c.15-.07.29-.15.43-.23l.38-.25,1.01.04s.15,0,.18.02c0,0,.03.05.05.08.01.02.02.04.04.06-.27-.11-.57-.19-.9-.07ZM33.68,62.72c-.56.14-1.24.1-1.81.05.28-.06.57-.11.85-.12.3-.01.6,0,.9.03h.18s-.08.03-.12.04ZM66.86,58.21h.06c-.03.05-.06.1-.08.15,0,.02-.02.05-.02.07-.14-.04-.27-.07-.36-.14-.04-.03-.05-.06-.07-.06.03-.03.19-.07.47-.03ZM65.7,58.05c-.02.09-.03.19-.01.28l-.5-.05c.18-.07.35-.15.51-.24ZM58.07,56.67v-.04l.74.13c-.26.03-.52.06-.78.09.02-.06.03-.12.03-.18ZM52.03,57.16s-.08.02-.12.03c0-.01-.01-.03-.02-.04.05,0,.09,0,.14,0ZM47.21,58.04c.08-.08.13-.17.18-.24.18.2.49.29.9.26h.09s.26.12.26.12c-.58.06-1.17.08-1.75.06.12-.04.23-.11.32-.2ZM46.77,57.34s.05-.02.07-.03c-.02.03-.03.05-.05.08-.03.06-.06.11-.08.13-.09.09-.36.06-.5.04.2-.07.38-.15.56-.23ZM41.88,57.75l.19-.02.2.03c-.05.02-.1.04-.15.07l-.26.11c.02-.06.03-.12.03-.18ZM42.4,58.48c.15-.07.29-.13.42-.15.2-.04.41-.02.63.03-.22.05-.41.13-.59.21-.08.04-.16.08-.25.11-.33.12-.67.19-1.05.16l.83-.36ZM38.34,58.49c-.64.16-1.25.27-1.73.03-.1-.05-.2-.12-.29-.18-.03-.02-.05-.04-.08-.05.69.14,1.39.19,2.1.2ZM34.91,57.3c.06-.05.1-.1.13-.17l.44.27c-.17-.03-.35-.04-.52-.04-.04,0-.08,0-.13,0l.07-.06ZM34.51,57.4s-.07.02-.11.03c-.09.02-.17.05-.25.09,0-.02-.01-.05-.02-.07,0,0,0,0,0,0l.39-.04ZM33.92,58.46c.22-.14.44-.27.66-.33.11-.03.23-.04.34-.05-.14.07-.25.18-.33.26-.04.04-.09.09-.14.12-.13.08-.36.09-.55.09h-.15c.06-.03.11-.07.17-.1ZM32.11,57.47c.11-.07.2-.16.27-.27-.02.04-.03.08-.03.11-.03.16.02.32.13.44,0,0,0,0,0,0-.1,0-.2,0-.31-.01-.19-.01-.37-.04-.56-.06-.04,0-.07,0-.11-.01.19-.03.41-.09.6-.21ZM27.26,58.31c.28-.01.56.02.86.06.22.03.45.06.67.07.35.01.71-.02,1.06-.05.27-.02.54-.05.81-.05.04,0,.08,0,.12,0-.46.02-.93.07-1.37.27l-.53.57-.07-.64c-.9.04-1.81.05-2.72.03,0,0,.01,0,.02,0,.4-.11.77-.22,1.14-.24ZM25.91,57.37l.19-.3.54.05c-.21.08-.38.2-.53.31-.06.04-.12.08-.18.12-.05.04-.11.07-.17.1h-.11c.1-.08.19-.17.26-.28ZM24.01,58.27v.18c-.29-.02-.56-.04-.84-.05l.84-.14ZM22.42,57.26c-.06.09-.11.2-.13.31h-.13c.05-.1.15-.21.25-.31ZM21.62,58.25c.06.07.13.13.21.17,0,0,.01,0,.02.01-.28.02-.55.06-.83.09.18-.07.36-.15.53-.24l.07-.04ZM20.26,57.63l.13-.06c.33-.23.74-.35,1.15-.36-.03.05-.05.11-.07.17-.03.08-.04.15-.05.23h-.05c-.38.01-.76.02-1.14.02,0,0,.01,0,.02,0ZM22.21,59.7c-.5.13-1.06.03-1.65-.08h.11c.75-.06,1.52-.12,2.3-.11l-.76.19ZM29.91,60.47c-.3.11-.58.21-.88.26-.01,0-.02,0-.04,0,.18-.05.36-.11.53-.17.27-.09.53-.18.8-.24-.14.05-.29.1-.42.15ZM33.18,60.46s-.08,0-.13,0c.23-.02.44-.07.65-.12.14-.03.28-.06.42-.09.02,0,.04,0,.06,0-.34.11-.66.22-1,.22ZM37.12,62.46c.14.08.3.17.52.22.43.11.88,0,1.27-.08l.27-.06c.26-.05.53-.08.8-.08-.31.07-.6.17-.88.27-.49.18-.95.34-1.44.27-.31-.04-.58-.18-.85-.33-.22-.12-.45-.24-.73-.33.26-.07.49-.11.71-.05.11.03.21.09.33.15ZM37.74,60.76l-.09.03c-.22.08-.45.16-.64.13-.13-.02-.16-.07-.26-.25-.05-.1-.12-.21-.23-.32.8.08,1.62.12,2.43.13-.42.06-.83.14-1.21.28ZM49.17,60.49l-.15.05c-.23.08-.45.17-.66.15-.19,0-.37-.08-.56-.16-.06-.03-.12-.05-.19-.08.56,0,1.12,0,1.68-.01-.04.01-.08.02-.11.04ZM51.77,58.81l-.47.89c-1.46.03-2.91.04-4.37.04l-5.6.02c-1.6,0-3.25.01-4.85-.15l-.32-.03c-.7-.08-1.43-.16-2.14-.04-.16.03-.32.06-.47.1-.23.05-.45.1-.68.11-.3.01-.6-.04-.92-.1-.29-.05-.59-.11-.92-.12-.64,0-1.19.17-1.73.35-.34.11-.66.22-1,.28-.41.07-.87.07-1.31.08h-4.4s.75-.73.75-.73c.07,0,.13,0,.2,0,.23.01.46.03.69.05.32.03.63.06.96.07,1.25.03,2.5-.18,3.61-.39l-.11.13,5.22-.11c.27,0,.63-.01.93-.21.09-.06.17-.13.25-.21.06-.06.11-.11.16-.13.09-.04.24-.02.39.06.09.05.18.11.26.16.12.08.24.16.38.23.72.36,1.54.19,2.31,0l.99-.25-.67.29,1.21.19c.81.13,1.82.29,2.74-.05.1-.04.19-.08.29-.12.17-.08.33-.15.49-.17.28-.05.59.05.92.16.14.04.28.09.42.12.67.17,1.38.13,2,.1l1.95-.1c.59-.03,1.18-.06,1.78-.1.48-.03.64-.32.64-.55,0-.12-.06-.42-.53-.52l-1-.22,1.54-.12.5.1c1.84.36,3.71.46,5.58.31.66-.06,1.32-.15,1.98-.24.3-.04.6-.08.91-.12.62-.08,1.27-.14,1.91-.14h0c-.08.06-.15.15-.19.24l-6.98.44c-1.03.07-2.1.13-3.14.37l-.16.04ZM55.22,59.61c-.78,0-1.55.03-2.33.05l-.87.02c.79-.09,1.6-.12,2.39-.12.62,0,1.24.02,1.83.05-.34,0-.69,0-1.03,0ZM59.47,59.1c-.65-.05-1.3-.09-1.95-.13l2.47-.16-.53.29ZM67.83,59.35c-.12.06-.24.12-.37.17-.24.1-.5.17-.68.2-.05,0-.1,0-.15-.01v-.09c-1.72-.39-3.5-.63-5.29-.73l.73-.41c.16.25.45.28.58.29l4.07.38.09-.5c.01.06.03.11.07.17.17.26.47.26.59.26h.95c-.21.08-.41.18-.6.27ZM72.4,57.29c.26-.14.5-.27.73-.27.03,0,.06,0,.1,0-.28.11-.56.2-.85.28,0,0,.02,0,.03-.02ZM72.79,58.67c-.14.03-.28.06-.42.09-.04,0-.09.02-.13.03.05-.1.06-.21.04-.31.99-.11,1.99-.12,2.97-.02-.92,0-1.73.06-2.46.22ZM75.7,56.56c-.25.09-.46.21-.67.33-.05.03-.09.05-.14.08h.01s.13-.15.13-.15l-.04-.19c-.01-.07-.04-.13-.08-.19h1.19c-.14.02-.27.06-.41.11ZM76.79,59.59s.04,0,.07,0l2.96.11c-.97.06-2,0-3.02-.12ZM81.33,59.49c-.31.07-.64.13-.97.17l.04-.44c.34.08.67.16.99.26-.02,0-.04,0-.06.01ZM62.22,61.99s-.05-.02-.07-.03c.08.01.17.02.25.04.17.03.34.07.51.1.27.06.55.12.84.15-.53,0-1.08-.08-1.53-.26ZM73.98,64.3c-.93.02-1.76.03-2.59-.05-.09,0-.18-.02-.27-.03.73,0,1.46,0,2.18.01l2.25.02c-.52.01-1.05.03-1.57.04ZM86.32,64.25c-.06,0-.11,0-.17,0l.31-.02h.2c-.11,0-.22.01-.34.02ZM93.87,64.59c1.03,0,2.42,0,3.5-.02-1.16.08-2.33.09-3.5.02ZM67.23,66.9c.32-.03.68-.05,1.06-.03.19,0,.38.02.57.03h-1.62ZM80.12,66.42c-.53.02-1.04.13-1.52.24-.29.07-.58.13-.88.17-.62.09-1.3.09-1.93.09h-3.9c.35-.07.69-.15,1.03-.23.73-.17,1.42-.33,2.14-.28.32.02.64.09.97.16.51.11,1.03.21,1.58.17.43-.04.82-.16,1.19-.28.34-.11.66-.21,1-.25.62-.05,1.19.13,1.8.32.02,0,.05.02.07.02-.5-.08-1.03-.16-1.55-.14ZM87.47,66.46c-.31-.01-.62-.03-.94-.03.34-.03.68-.03,1,.04h-.06ZM90.94,66.54s.1-.02.15-.03c.53-.11,1.09-.05,1.68.04-.61,0-1.22,0-1.83-.01ZM46.34,86.22c-.78,0-1.54-.04-2.27-.15.29-.02.61-.01.94.01.26.02.52.05.78.08.19.02.38.04.57.06h-.02ZM52.8,85.82c-.98.03-1.96.11-2.91.2l-.69.06c-.2.02-.4.03-.6.05.37-.08.71-.19,1.04-.29.65-.2,1.26-.39,1.98-.39h0c.51,0,1,.1,1.53.2.29.06.59.12.9.16-.42,0-.83,0-1.25.01ZM56.8,85.87l-.81-.02c-.22,0-.45-.01-.67-.02.43-.05.82-.16,1.2-.27.39-.11.75-.21,1.16-.25.88-.1,1.77.08,2.71.28.59.12,1.19.24,1.8.29-1.8.03-3.6.04-5.39,0ZM94.62,56.81s0,0,0,0c-.04.16,0,.31.05.41-.05,0-.17-.03-.29-.06-.11-.03-.21-.06-.32-.1.19-.07.38-.16.55-.25ZM93.42,57.78s.01-.1,0-.14c.18.04.36.09.54.15-.19.02-.38.04-.57.06,0-.02,0-.04.01-.06ZM92.57,57.63s.09.02.12.02c-.01,0-.03.01-.05.02-.08.02-.19,0-.3-.02.08-.01.16-.03.23-.02ZM90.44,57.21c.15-.11.27-.27.34-.44-.02.09-.03.18-.02.27l-.43.25.51.03s.04.07.06.1c-.24-.03-.47-.06-.71-.08.09-.03.17-.08.25-.13ZM90,56.44c.08.02.1.03.11.03h0s-.02.1-.09.14c-.15.1-.39.12-.61.13h-.12s-.35-.31-.35-.31h1.05ZM83.6,57.1l2.07-.1-.43.03c-.88.06-1.77.12-2.66.15l-.25-.12c.44.08.88.06,1.27.04ZM83.38,60c-.29.07-.57.13-.78.06-.05-.02-.1-.04-.14-.06-.09-.04-.18-.08-.29-.11.1-.08.17-.17.21-.29,0,0,0,0,0,0,.07.07.16.12.27.16.13.04.26.05.38.07h.1c.17.03.32.07.48.12-.08.02-.16.03-.24.05ZM81.67,58.42h-.03c.24,0,.47,0,.71-.02.78-.03,1.55-.12,2.3-.21.52-.06,1.03-.12,1.55-.16,1.48-.12,2.97-.09,4.43.08l-4.76.47v-.17c-1.4.03-2.81.04-4.21.01ZM87.04,61.71c-.14-.04-.29-.08-.43-.13-.09-.03-.18-.06-.28-.09.18,0,.36.01.54.03.51.05,1,.15,1.51.26.37.08.74.16,1.13.22-.81-.02-1.69-.08-2.47-.29ZM99.6,56.45s0,.04,0,.07c0-.02-.02-.04-.03-.07h.03ZM96.85,58.99s0,0,0,0h0,0ZM96.34,58.34s0,.07.01.1l-.17-.06s-.07-.02-.1-.03c.09,0,.18,0,.26,0ZM97.73,59.74c.14,0,.35,0,.54-.13.17-.13.26-.33.23-.55-.02-.11-.06-.23-.13-.32l1.15.08c-.02.41-.06.81-.09,1.21-1.81-.15-3.79.16-6.04.92-.38.13-.77.27-1.14.42-.96.07-1.79.05-2.55-.05-.4-.06-.78-.14-1.16-.22-.43-.09-.88-.19-1.34-.25.19-.02.37-.05.55-.08.24-.04.49-.08.73-.1.6-.05,1.19,0,1.82.05.24.02.47.04.71.05,1.17.07,2.04-.05,2.65-.37l1.24-.65-9.23-.2c-.4,0-.86-.02-1.26-.11-.12-.03-.23-.06-.34-.1l1.75-.2.27.11c1.18.46,2.52.32,3.61.21l2.29-.24v.34s5.74.18,5.74.18Z"/>
    <path d="M80,76.13c1.25-.06,2.54-.12,3.79-.02.35.03.69.07,1.04.1.6.07,1.22.14,1.85.14,1.87,0,3.62-.53,5.16-1.01l2.05-.64-19.22-.52c-1.55-.04-3.15-.08-4.69.18-.21.04-.42.08-.64.12-.68.14-1.32.27-1.99.2-.53-.05-1.02-.22-1.55-.4-.65-.23-1.33-.43-2.09-.44-.77.01-1.41.28-2.03.53-.58.24-1.14.46-1.76.48-.61.04-1.18-.17-1.79-.36-.6-.19-1.21-.39-1.89-.4-.66-.01-1.3.16-1.91.33-.59.17-1.16.32-1.75.3-.64-.02-1.21-.26-1.81-.5-.6-.24-1.22-.5-1.95-.55-.74-.05-1.41.11-2.07.27-.44.11-.86.21-1.29.25-.78.07-1.55-.06-2.38-.19-.35-.06-.7-.11-1.05-.15-1.37-.16-2.76-.09-4.11-.01l-6.23.34-4.01-.56,2.77,1.1c1.59.63,3.38,1.34,5.36,1.58.83.1,1.68.11,2.5.13l18.25.29c1.77.03,3.53.06,5.3.06h.25c1.42,0,2.85-.02,4.27-.05,3.05-.07,6.15-.21,9.14-.35l4.49-.21ZM66.35,75.98c-1.5.03-2.98.06-4.5.05-1.76,0-3.52-.03-5.29-.06l-18.25-.29c-.8-.01-1.63-.03-2.42-.12-1.08-.13-2.13-.42-3.11-.75l5.19-.28c1.32-.07,2.68-.14,3.99.01.34.04.68.1,1.02.15.83.13,1.69.27,2.56.19.49-.04.95-.15,1.4-.26.63-.15,1.22-.29,1.85-.25.61.04,1.15.27,1.73.5.63.26,1.29.52,2.05.55.72.03,1.35-.15,1.97-.32.58-.16,1.12-.33,1.7-.3.57.01,1.11.18,1.69.37.64.2,1.3.39,2.03.4.76-.02,1.4-.28,2.02-.53.59-.24,1.15-.46,1.78-.48.65-.03,1.22.19,1.84.41.54.19,1.1.38,1.71.44.77.07,1.49-.07,2.2-.21.21-.04.41-.08.62-.12,1.47-.25,3.04-.21,4.55-.17l14.74.4c-.85.2-1.73.34-2.63.34-.03,0-.05,0-.08,0-.59,0-1.19-.07-1.78-.14-.35-.04-.71-.08-1.06-.11-1.3-.1-2.61-.04-3.88.02l-4.49.21c-2.99.14-6.08.29-9.12.35Z"/>
    <path d="M94.44,55.73h-.52l-.09.06s-.01,0-.02,0l.32.37.31-.44Z"/>
    <polygon points="35.1 55.76 35.22 55.73 35.1 55.73 35.1 55.76"/>
    <path d="M82.04,56.31l-.02-.21c-.03-.12-.08-.24-.14-.37,0,0,0,0,0,0h-.07c.04.08.07.15.09.21l.13.37Z"/>
    <polygon points="31.57 55.73 31.31 55.73 31.31 55.73 31.57 55.73 31.57 55.73"/>
    <rect x="34.69" y="55.73" width=".41" height="0"/>
    <path d="M91.41,29.4l-.05.18c-.05.18-.08.35-.1.52l.15.46c.05.17.13.32.21.46.05.08.09.17.13.26.15.37.14.87.13,1.28,0,.08,0,.17,0,.26.02.13.03.27.03.41,0,.22-.04.42-.09.61-.05.49-.13.97-.29,1.4-.04.1-.08.2-.12.3-.16.38-.34.81-.31,1.31.03.47.25.84.45,1.17.16.28.32.54.35.83.03.33-.1.67-.23,1.02-.14.37-.29.74-.29,1.18,0,.59.25,1.09.47,1.52.21.41.41.8.39,1.23-.02.37-.21.69-.42,1.04-.24.41-.52.88-.51,1.46,0,.54.26.97.47,1.35.19.33.36.64.38.99.01.33-.12.66-.26,1-.12.29-.25.62-.29.97.07.11.13.22.18.36.09.27.09.55.07.82.04.08.08.16.11.23.12.22.23.42.27.64.07.32,0,.68-.06,1.06-.11.66-.2,1.32-.28,1.99h0s.63,0,.63,0v.25s.07,0,.09,0c.22,0,.44.02.66,0,.21-.02.4-.08.55-.17l-.04-.04c-.24-.28-.39-.46-.4-.71,0-.27.14-.47.39-.77.18-.22.39-.48.51-.81.2-.57.1-1.24-.31-2.06l-.08-.16c-.23-.47-.45-.91-.44-1.39.01-.44.22-.84.44-1.27.29-.57.6-1.15.48-1.86-.07-.44-.3-.79-.5-1.09-.2-.3-.37-.56-.39-.88-.03-.38.16-.72.37-1.11.21-.38.45-.8.48-1.32.04-.64-.23-1.16-.5-1.65-.21-.4-.41-.77-.43-1.18-.02-.43.17-.83.36-1.26.23-.5.46-1.01.42-1.62-.03-.51-.25-.92-.46-1.32-.18-.33-.34-.65-.38-1-.04-.42.12-.83.32-1.33l.07-.17-.1-.15c-.51-.81-1.05-1.62-1.61-2.4l-1.3-1.81.06.19c.17.21.34.41.51.63l.11.15ZM92.61,55.71c.02-.17.04-.34.06-.51.03.19.09.36.18.51h-.24ZM93.66,46.85c.08.48-.15.91-.41,1.41-.25.48-.51.98-.53,1.58-.02.66.26,1.23.52,1.73l.08.15c.31.63.4,1.13.27,1.5-.07.21-.22.39-.38.59-.16.19-.33.4-.44.65.03-.21.07-.42.1-.63.07-.4.15-.86.05-1.31-.07-.32-.21-.6-.35-.84-.14-.25-.26-.47-.28-.73-.04-.34.1-.68.25-1.04.16-.38.33-.82.31-1.3-.02-.52-.26-.94-.47-1.31-.19-.34-.37-.65-.38-1.01,0-.38.19-.71.41-1.09.12-.2.24-.42.34-.65,0,.08,0,.16,0,.25.04.51.29.89.51,1.22.18.27.35.52.39.81ZM92.04,35.84c.05-.11.09-.22.13-.33.35-.93.38-1.99.41-2.92,0-.08,0-.17,0-.26.12.18.23.36.35.54-.18.46-.35.94-.3,1.48.04.5.25.89.46,1.28.18.34.35.67.38,1.03.03.43-.16.85-.36,1.28-.22.48-.45.98-.43,1.58.02.58.27,1.05.51,1.5.23.42.44.83.42,1.27-.02.35-.2.68-.39,1.02-.1.18-.21.38-.29.58,0,0,0-.02,0-.02.04-.62-.23-1.14-.46-1.6-.21-.4-.4-.78-.39-1.19,0-.31.12-.61.24-.93.16-.42.32-.85.27-1.35-.05-.45-.26-.81-.45-1.13-.18-.3-.33-.55-.35-.85-.02-.32.11-.64.25-.98Z"/>
    <path d="M92.02,55.97c-.05,0-.09.02-.14.02l.11.43h.56l-.02-.45c-.17,0-.34-.01-.51,0Z"/>
    <path d="M77.85,55.73l.1-.11c.08-.08.1-.11.1-.12h0s-.03-.02-.05-.05l-.19-.05c-.02.11-.03.21-.06.32h.1Z"/>
    <path d="M95.63,55.03l-.15-1.26-.54,1.15c-.13.29-.31.54-.5.8h1.23c-.01-.23-.02-.47-.05-.7Z"/>
    <path d="M94.35,48.12c0,.13.03.26.07.4l.55,1.86.16-1.93c.03-.34.06-.68.1-1.01l.26-2.01-.02-.06-.92,1.86c-.15.3-.21.59-.2.89Z"/>
    <path d="M96.37,37.72l-.68.23c.1.44.3.85.49,1.24.25.51.48.99.51,1.53.02.45-.11.89-.25,1.36-.16.54-.32,1.09-.27,1.69.05.61.31,1.1.56,1.58.24.46.46.89.48,1.38.02.54-.2,1.04-.44,1.58-.28.63-.57,1.28-.48,2.03.06.49.26.87.45,1.25.16.31.31.6.37.92.15.82-.32,1.69-.67,2.33-.18.33-.3.61-.41.88h.38l-.5.31h0s.15-.06.15-.06c.27-.11.55-.19.87-.25h3.38s0,.35,0,.35c0,.11,0,.23,0,.34h.02v-.36c0-6.4-1.34-12.57-3.97-18.34ZM96.83,55.71c.07-.16.16-.33.26-.51.4-.73.94-1.73.75-2.8-.08-.43-.26-.78-.44-1.12-.17-.33-.34-.65-.38-1.01-.07-.56.17-1.09.43-1.66.26-.59.53-1.19.51-1.9-.03-.65-.3-1.18-.57-1.69-.23-.44-.44-.85-.48-1.32-.04-.47.1-.93.24-1.43.04-.14.08-.28.12-.42,1.53,4.43,2.33,9.07,2.36,13.84h-2.8Z"/>
    <path d="M95.49,45.43l.14.42.28-1.25c.14-.64.14-1.15,0-1.61-.12-.37-.32-.66-.51-.94l-.69-1.05-.12.98c-.02.13-.02.27-.02.41.01.61.23,1.17.44,1.7.07.18.14.36.21.55l.25.72.04-.08-.02.14Z"/>
    <path d="M15.97,46.78l.14-.42-.03-.26.07.15.24-.73c.06-.18.13-.36.2-.54.2-.54.41-1.09.42-1.7,0-.14,0-.27-.02-.41l-.12-1.01-.68,1.08c-.19.28-.38.57-.49.94-.14.46-.14.97,0,1.6l.28,1.3Z"/>
    <path d="M16.34,48.31c.04.34.07.67.1,1.01l.16,2,.55-1.93c.04-.13.06-.26.07-.4.02-.3-.05-.59-.19-.88l-.88-1.87-.04.12.24,1.95Z"/>
    <path d="M12.61,55.73h2.26v.38c.17,0,.34-.01.51-.02l-.18-.36c-.33-.64-.79-1.51-.64-2.33.06-.32.2-.61.35-.92.19-.38.38-.76.43-1.25.09-.75-.19-1.4-.46-2.03-.23-.53-.45-1.04-.43-1.58.02-.49.24-.93.47-1.39.24-.48.49-.97.54-1.58.05-.6-.11-1.15-.26-1.69-.13-.45-.25-.88-.24-1.32l.05-2.28-.75,2.16c-1.62,4.67-2.45,9.56-2.45,14.55v.36h.47c.08-.1.18-.19.31-.24l.02-.46ZM14.5,43.11s0,.03.01.05c.14.49.27.96.23,1.43-.04.47-.25.88-.46,1.32-.25.51-.52,1.03-.54,1.68-.03.7.23,1.31.49,1.89.24.56.47,1.1.41,1.66-.04.36-.2.67-.36,1.01-.17.34-.34.69-.42,1.12-.16.9.19,1.75.53,2.43h-1.84c.03-4.3.69-8.53,1.96-12.6Z"/>
    <path d="M13.19,56.11c-.17,0-.38,0-.59.08,0,0,0,0,0,0v.24s2.29,0,2.29,0v-.31c-.57.01-1.13.01-1.7,0Z"/>
    <path d="M16.7,55.91l-.56-1.66-.18,1.78v.04c.27-.01.54-.02.81-.04l-.06-.12Z"/>
    <path d="M19.31,54.6c-.06-.36-.12-.73-.06-1.04.04-.22.15-.43.26-.64.03-.05.06-.12.08-.18-.03-.29-.03-.58.06-.86.05-.16.12-.28.2-.4-.04-.33-.16-.64-.27-.93-.13-.35-.26-.67-.25-1.01.01-.35.18-.66.36-.99.21-.38.44-.81.45-1.35,0-.58-.25-1.05-.48-1.46-.19-.35-.38-.67-.4-1.04-.02-.42.17-.82.37-1.23.22-.46.46-.94.45-1.52,0-.43-.14-.81-.28-1.17-.13-.36-.25-.69-.22-1.03.03-.3.18-.56.34-.83.19-.33.4-.7.43-1.17.03-.49-.14-.92-.3-1.3-.04-.1-.08-.2-.12-.3-.14-.38-.21-.8-.26-1.24-.08-.24-.13-.5-.14-.79,0-.19.02-.36.06-.54,0-.05,0-.09,0-.14-.01-.43-.02-.92.12-1.28.03-.07.06-.13.09-.19l-.62-.36c-.44.66-.87,1.35-1.28,2.04l-.09.15.06.16c.17.46.29.82.26,1.21-.03.35-.19.67-.36,1.01-.2.39-.41.8-.44,1.31-.04.61.19,1.12.4,1.62.19.43.36.83.35,1.26-.01.42-.21.79-.41,1.19-.25.49-.52,1-.48,1.64.03.51.26.94.46,1.32.21.39.39.73.36,1.12-.02.32-.19.58-.38.88-.19.3-.41.65-.48,1.09-.11.71.18,1.29.45,1.85.21.43.42.84.43,1.28.01.48-.2.92-.42,1.39l-.08.16c-.38.8-.48,1.49-.29,2.05.11.33.31.59.49.81.24.3.38.5.37.77,0,0,0,0,0,0,.46-.04.91-.1,1.36-.16-.05-.39-.1-.77-.16-1.16ZM17.92,43.16c-.03-.44.18-.85.4-1.27.23-.45.47-.92.49-1.49.02-.59-.2-1.09-.41-1.58-.19-.44-.37-.85-.34-1.29.02-.36.19-.69.36-1.03.19-.38.4-.78.44-1.27.04-.51-.1-.97-.24-1.36.09-.15.18-.29.26-.44,0,.01,0,.02,0,.03.03.94.06,2,.39,2.92.04.11.08.21.13.32.14.34.27.66.25.98-.02.3-.17.56-.34.86-.18.32-.38.67-.43,1.12-.05.5.11.93.26,1.35.12.32.23.63.23.93,0,.41-.18.79-.38,1.2-.23.47-.46.95-.45,1.53-.08-.18-.16-.34-.25-.5-.18-.34-.35-.66-.38-1.02ZM18.88,52.58c-.12.24-.27.51-.33.84-.09.44-.01.9.05,1.31.03.17.05.35.08.52-.1-.21-.24-.39-.37-.55-.15-.19-.3-.38-.37-.59-.12-.38-.04-.88.26-1.51l.08-.16c.24-.5.51-1.06.49-1.72-.02-.6-.26-1.09-.5-1.58-.25-.5-.47-.94-.39-1.42.05-.3.21-.55.38-.82.21-.33.45-.71.49-1.22,0-.06,0-.11,0-.17.09.2.19.39.29.57.21.38.4.71.39,1.09,0,.36-.18.68-.36,1.01-.2.37-.43.79-.45,1.31-.02.48.14.9.3,1.3.14.36.28.71.24,1.05-.03.26-.14.48-.27.73Z"/>
    <path d="M56.08,12.52c11.48,0,22.21,4.41,30.28,12.26l.5-.5c-8.2-7.98-19.1-12.48-30.77-12.48s-22.71,4.61-30.91,12.6l.51.51c8.07-7.85,18.98-12.39,30.4-12.39Z"/>
    <path d="M20.07,35.81c.21.42.41.82.45,1.27.04.4-.05.82-.15,1.27-.13.61-.27,1.25-.06,1.87.07.22.18.4.27.56.11.19.21.36.24.56.08.43-.16.81-.43,1.24-.26.4-.54.86-.6,1.43-.05.57.14,1.06.32,1.53.15.39.3.76.29,1.15-.01.34-.15.67-.3,1.01-.19.43-.38.88-.35,1.42.02.33.12.63.22.92.12.34.22.64.15.91-.03.14-.11.25-.2.39-.02.04-.05.08-.08.12.02.15.03.29.01.45-.03.32-.15.58-.27.81.02.17.05.34.07.5l.02.12c.13.77.14,1.58.05,2.37h.03s3.12,0,3.12,0l.03.7h.18c0-.08.03-.17.08-.24l.06-.1-.05-.14c-.05-.14-.12-.28-.2-.42-.09-.16-.17-.31-.2-.45-.03-.17.01-.35.08-.55l1.29.13c.06.06.12.38.03.64-.04.13-.1.26-.16.39-.04.08-.07.16-.11.25l-.02.05c1.02-.07,2.04-.15,3.04-.25h.08c0-.15,0-.31,0-.46,0-.37.02-.76.13-1.08.05-.15.13-.29.2-.43.08-.14.16-.3.22-.47,0,.03.01.05.02.08.02.09.05.18.06.27.05.26.03.54.01.84,0,.16-.02.32-.02.47,0,.17.02.48.12.78h1.56s0,0,0,0h1.49c-.07-.15-.16-.28-.25-.38-.07-.08-.15-.17-.16-.23-.01-.04.01-.11.05-.18l1.39.09s.04.12,0,.2c-.04.08-.09.16-.15.23-.06.08-.11.17-.16.26h1.07l-.12-.08,1.19.08h.98c0-.14,0-.28,0-.42,0-.22.01-.45.11-.62.05-.09.12-.17.19-.26.09-.11.19-.23.27-.38,0,.03.02.05.03.08.02.05.04.11.06.16.04.13.02.3,0,.48,0,.11-.02.22-.02.33,0,.21.04.41.12.57l-.23.06h.04,0s.82,0,.82,0h1.37l.17-5.28c.12.41.19.91.19,1.45,0,.52-.06,1.03-.12,1.56-.06.5-.11,1.02-.13,1.55,0,.24.01.48.03.72h1.94c0-.56-.06-1.12-.13-1.66-.03-.19-.05-.38-.07-.57-.06-.48-.08-.91-.06-1.28l.27.76.29,2.75h.33l-.3.28.03.24c.16,0,.32,0,.46.02.11.01.22.03.33.02.23,0,.46-.1.71-.2,0,0,.01,0,.02,0l-.06-.24c-.2-.79-.18-1.72.05-2.48.01-.05.03-.09.04-.13.02.06.05.15.08.27l.51,2.05c.03.1.05.21.07.32.34-.06.66-.04.98-.02h.25s.11.01.17.01c-.18-.51-.33-1.05-.25-1.54.04-.24.19-.36.2-.35.05.1.06.28.08.42l.15,1.47c.16,0,.33-.03.47-.09l.14-.03h.27c.01-.07.03-.15.04-.22l.04.23h.86c.33.12.67.1,1.02.07.44-.03.9-.06,1.34.12l.15.07c.08.03.26.11.29.1.12-.09.16-.13.22-.16.26-.15.55-.13.77-.11h.1c.28.03.55-.01.88-.08h2.62s.85.25.85.25c.34.1.37.36.37.43,0,0,0,0,0,0h.02v-.26s1.32-.15,1.32-.15v-.29h3.19v.27s1.37.24,1.37.24c.11.02.28.05.43.17,0,0,0,.01.01.01h.6s.14-.18.14-.18c.15-.15.37-.16.48-.16l3.58.13c.3.01.6,0,.87-.04v-.44h.14l.09-.52c.04.17.07.35.11.52h.83l.16-1.56c.01-.15.03-.31.07-.45.05,0,.21.14.25.38.09.49-.07,1.04-.27,1.55l-.03.07h1.45c.03-.13.06-.27.09-.4l.53-2.05c.04-.15.07-.24.09-.31.02.04.04.1.07.17.24.76.26,1.69.06,2.48l-.03.11h0s1.55,0,1.55,0l.29-2.66v-.22s.34-.9.34-.9c.02.38,0,.83-.06,1.34-.02.19-.05.38-.08.57-.09.62-.17,1.25-.15,1.89.52.04,1.03.08,1.53.14l.28.03s.1-.09.18-.12c.02-.22.05-.45.05-.67l.13.03.02.58s.02,0,.03,0h3.12c.02-.06.05-.11.07-.17l.1-.32.66.16c0-.05.03-.1.03-.15.03.05.07.1.11.14.01.02.03.04.05.05l.9.22-.05.05h.59c.04-.13.07-.28.06-.45-.03-.29-.18-.51-.32-.7-.06-.08-.11-.15-.15-.23-.04-.07-.02-.17.01-.19l1.46-.1c.04.08.07.14.06.18-.02.06-.1.15-.17.23-.17.19-.4.45-.32.81.04.2.17.34.27.45h1.48s-.04-.09-.07-.15c-.1-.18-.19-.37-.18-.5,0-.07.05-.17.1-.27,0-.02.02-.03.02-.05-.01.07-.02.15-.02.23,0,.28.11.52.21.74h2.2s-.13.03-.13.03c.17.04.3.09.42.14l.56.27-.8-.44h1.67c0-.05.01-.1.01-.16.02.04.05.09.07.13,0,0,0,.02.01.02h1.57c-.02-.36-.16-.66-.29-.93-.06-.13-.12-.25-.17-.39-.09-.26-.03-.57,0-.62l1.42-.13c.07.19.11.36.08.53-.03.15-.11.3-.2.45-.15.26-.34.59-.28.99,0,.03.02.06.03.09h1.51c-.03-.14-.04-.26-.03-.38.01-.16.06-.33.12-.5.01-.04.03-.09.04-.13-.03.17-.06.35-.06.53,0,.16.02.32.05.47h.39c.28.05.43.13.55.25.12.12.17.28.19.45h.13c.04-.05.09-.11.14-.15.02-.01.05-.02.06-.03l.03-.51h.64v-.03c-.25-1.04-.28-2.15-.09-3.22l.02-.13c.03-.17.06-.36.08-.55-.11-.23-.22-.47-.25-.76-.02-.14,0-.28,0-.42-.03-.06-.07-.11-.1-.16-.09-.14-.18-.26-.21-.39-.07-.27.04-.56.16-.9.1-.29.21-.59.23-.93.03-.54-.17-.99-.37-1.42-.15-.34-.3-.67-.31-1.01-.01-.38.14-.75.3-1.14.2-.47.4-.96.34-1.53-.06-.57-.36-1.03-.62-1.43-.28-.43-.53-.8-.45-1.23.04-.19.14-.36.25-.55.1-.16.21-.35.28-.57.22-.63.07-1.26-.06-1.88-.1-.44-.19-.86-.15-1.26.04-.45.25-.85.47-1.27.18-.34.36-.69.46-1.09.03-.35.05-.69.06-1.03-.06-.38-.19-.72-.32-1.05-.12-.3-.23-.59-.28-.88-.04-.25-.03-.52,0-.8l-.46-1.48c-.97-1.23-2.01-2.39-3.08-3.5l-.49.49c1.2,1.23,2.34,2.54,3.4,3.93-.13.51-.16,1.02-.08,1.48.07.37.2.7.32,1.02.16.4.31.79.31,1.19,0,.49-.23.92-.47,1.37-.24.46-.49.94-.55,1.53-.05.51.06,1.01.17,1.48.12.54.23,1.05.08,1.49-.05.15-.13.28-.22.43-.13.22-.28.47-.34.79-.13.71.24,1.27.56,1.76.24.37.47.71.51,1.11.04.39-.12.78-.29,1.19-.18.45-.37.91-.35,1.44.02.48.2.89.38,1.28.17.37.33.72.31,1.09-.01.23-.1.47-.19.73-.14.4-.3.84-.18,1.33.07.26.2.45.31.62.08.12.16.23.2.35.1.28.03.65-.04,1l-.02.13c-.2,1.1-.18,2.26.05,3.35h-.34l-.33-.09c-.03-.12-.04-.24-.04-.36,0-.22.05-.45.11-.7.08-.35.17-.71.11-1.11-.05-.31-.18-.58-.3-.81-.12-.24-.22-.44-.23-.66-.01-.25.09-.51.2-.78.12-.3.26-.65.25-1.04,0-.49-.24-.88-.44-1.22-.16-.28-.32-.54-.35-.82-.02-.26.06-.53.14-.81.1-.33.2-.68.17-1.07-.03-.36-.18-.68-.31-.95-.12-.24-.22-.47-.24-.71-.02-.28.09-.58.2-.89.13-.35.28-.75.24-1.19-.02-.28-.11-.53-.19-.76-.09-.24-.16-.44-.15-.64,0-.17.07-.33.14-.52.07-.18.14-.36.17-.55.07-.37,0-.72-.05-1.06-.02-.1-.03-.2-.05-.31-.06-.48-.03-1.01,0-1.52.05-.91.1-1.85-.33-2.65l-.36-.68-.29.72c-.39.98-.54,2.12-.41,3.21l.03.25c.04.31.08.6.04.86-.03.16-.08.32-.13.47-.03.1-.07.2-.1.31l-.13-4.46-.63,1.03c-.43.7-.85,1.46-.79,2.33.01.23.06.46.11.69.07.34.14.65.06.92-.04.14-.13.27-.22.41-.13.19-.27.4-.33.68l-.29-2.41-.72.02-.21,2.86c-.04.51-.07,1.03-.24,1.48-.05.13-.11.27-.17.4-.19.4-.4.86-.32,1.38.03.21.1.39.16.55.07.17.13.32.12.46,0,.17-.09.35-.2.55-.13.26-.28.55-.27.91.01.39.2.67.37.92.06.09.12.19.17.28.19.38.19.92.19,1.35v.29c0,.49,0,.97,0,1.46v1.09c-.01.35-.01.7.02,1.05.02.22.05.43.08.65.05.31.09.61.09.9,0,.09,0,.19,0,.28h-.29c.03-.46.02-.92,0-1.33,0-.41-.02-.88-.18-1.31-.07-.19-.16-.36-.26-.53-.11-.19-.21-.38-.25-.57-.06-.26-.01-.55.03-.86l.04-.27c.06-.53.05-1.08.04-1.56l-.23-8.94-.6.64c-.72.77-.84,2.01-.9,3.21l-.09,1.76c-.02.45-.05.96.06,1.46.04.17.09.34.15.51.1.3.19.58.16.85-.03.22-.14.43-.26.64l-.11.21c-.25.49-.31.97-.15,1.34.02.04.04.09.06.12-.08-.12-.18-.23-.28-.33-.14-.15-.29-.32-.31-.44-.01-.11.05-.26.13-.42.11-.23.22-.5.18-.81-.04-.29-.2-.51-.34-.7-.1-.14-.2-.27-.21-.38-.01-.12.08-.29.18-.46.14-.25.31-.54.27-.9-.02-.22-.12-.4-.21-.56-.07-.12-.13-.24-.13-.31,0-.06.06-.16.12-.25.07-.12.15-.25.19-.41.08-.29.01-.56-.05-.8-.02-.06-.03-.12-.04-.19-.06-.29-.03-.6,0-.94.05-.6.11-1.29-.36-1.86l-.32-.39-.26.43c-.42.68-.57,1.48-.44,2.23l.03.17c.04.18.07.34.04.47-.02.08-.07.17-.12.26-.04.08-.09.16-.12.26l-.13-2.95-.58.62c-.36.38-.9.96-.84,1.67.02.18.07.35.12.49.07.22.11.36.07.45-.03.06-.11.15-.19.23-.14.14-.31.3-.38.54l-.74-4-.47,4.3c-.04.33-.07.64-.22.89-.05.08-.11.17-.16.25-.2.28-.44.63-.35,1.05.04.16.12.29.19.41.04.07.1.16.1.2,0,.05-.1.17-.16.24-.15.18-.33.41-.31.72.01.33.23.54.41.72.06.06.12.11.16.17.14.19.15.45.16.77,0,.38,0,.76,0,1.15v.71c-.01.24-.01.48.02.72.02.15.05.29.09.44.04.19.08.38.09.55,0,.04,0,.09,0,.13l-.29-.07c.02-.26,0-.51,0-.76-.01-.28-.02-.62-.2-.94-.07-.13-.17-.25-.28-.37-.1-.11-.19-.22-.22-.32-.04-.11,0-.27.04-.45l.04-.18c.07-.36.05-.72.04-1.07l-.24-5.92-.54.38c-.77.54-.89,1.42-.96,2.29l-.08,1.07c-.02.32-.05.67.07,1.03.04.12.1.24.16.35.08.17.16.32.14.43-.02.1-.12.22-.22.34l-.11.14s-.05.07-.08.11l-.1-2.82-.52.3c-.82.48-1.1,1.87-1.09,2.91,0,.56.07,1.1.13,1.63.06.49.12.99.13,1.48,0,.3,0,.61-.03.9h-.57c-.02-.57.06-1.15.15-1.76.03-.2.05-.39.08-.59.15-1.24.07-2.17-.25-2.85l-.37-.78-1.06,2.94-.34,3.02h-.08c.22-.89.18-1.93-.09-2.79-.21-.67-.54-.81-.79-.79-.51.03-.68.68-.75.96l-.34,1.31c0-.14-.01-.29-.04-.44-.1-.51-.46-.92-.87-.96-.32-.04-.59.13-.73.45-.05.11-.08.23-.1.34-.04-.18-.08-.35-.12-.53l-.4-1.73-.51,2.93c-.03-.06-.06-.12-.1-.17-.13-.17-.31-.27-.51-.28h-.32s-.26,1.69-.26,1.69h-.16c-.11-.17-.26-.27-.42-.3-.19-.03-.36.04-.5.19l-.09.1h-16.17c-.09-.04-.18-.07-.28-.08h0c-.1,0-.2.03-.29.09h-.37l-.21-1.48h-.32c-.19.01-.37.11-.49.27-.03.04-.06.09-.09.14l-.5-2.97-.4,1.81c-.03.15-.07.3-.1.45-.02-.09-.05-.18-.08-.27-.14-.32-.41-.48-.72-.46-.4.05-.76.45-.85.97-.02.11-.03.22-.03.32l-.3-1.2c-.07-.28-.23-.93-.74-.96-.23-.02-.56.11-.77.79-.18.58-.25,1.25-.21,1.9l-.26-2.21-1.01-2.9-.37.82c-.3.67-.38,1.6-.24,2.84.02.19.05.39.07.58.07.53.14,1.04.14,1.54h-.53c-.01-.23-.02-.46-.01-.68.01-.49.07-1,.12-1.48.06-.53.12-1.08.13-1.63.01-1.09-.25-2.43-1.04-2.91l-.53-.32-.23,7.02-.46-.17c-.19-.08-.2-.38-.2-.44,0-.09,0-.18.02-.27.02-.22.04-.47-.03-.73-.02-.08-.05-.15-.08-.23-.03-.07-.08-.19-.07-.23.02-.03.11-.09.17-.13.12-.09.28-.19.38-.36.18-.31.13-.7-.16-1.08l-.11-.14c-.1-.13-.2-.25-.21-.35-.02-.11.06-.27.14-.44.06-.12.11-.23.15-.35.12-.36.09-.71.07-1.03l-.08-1.15c-.04-.61-.12-1.63-.92-2.21l-.54-.4-.18,4.54c-.05-.21-.17-.37-.28-.51-.06-.08-.15-.2-.15-.25,0-.04.05-.13.1-.21.07-.12.14-.25.18-.41.09-.42-.14-.77-.33-1.05-.06-.08-.11-.16-.16-.24-.14-.26-.18-.58-.21-.9l-.47-4.4-.71,4.03c-.08-.21-.22-.36-.34-.48-.08-.08-.16-.16-.18-.22-.04-.1,0-.24.07-.47.05-.15.1-.31.11-.49.06-.7-.46-1.28-.8-1.66l-.59-.65-.12,2.91c-.03-.07-.06-.13-.09-.19-.05-.1-.1-.19-.11-.26-.03-.13,0-.3.04-.48l.03-.17c.13-.76-.02-1.55-.42-2.22l-.27-.45-.32.41c-.45.57-.39,1.25-.35,1.85.03.34.05.65,0,.94-.01.06-.03.13-.04.19-.06.23-.12.5-.04.79.04.16.12.29.18.4.06.1.11.2.11.26,0,.08-.06.19-.12.32-.09.16-.18.34-.21.56-.04.35.12.63.25.89.1.18.19.34.17.47-.01.11-.1.24-.2.38-.14.2-.29.42-.32.7-.04.31.08.57.18.8.07.16.14.32.12.43-.02.13-.15.29-.29.45-.06.07-.12.14-.18.22,0,0,0-.01,0-.02.18-.47.02-.98-.15-1.33l-.1-.2c-.12-.22-.22-.43-.25-.65-.03-.27.06-.55.15-.86.05-.17.1-.34.14-.51.11-.49.08-1,.06-1.45l-.08-1.76c-.06-1.2-.17-2.43-.86-3.2l-.6-.68-.17,6.85c-.04-.24-.15-.45-.24-.64-.1-.2-.19-.38-.19-.55,0-.15.05-.3.12-.47.06-.16.13-.34.16-.54.07-.52-.13-.97-.31-1.37-.06-.13-.12-.26-.17-.4-.16-.45-.2-.97-.23-1.48l-.2-2.86-.72-.02-.27,2.33c-.07-.23-.19-.42-.29-.59-.09-.14-.17-.27-.21-.42-.08-.27-.01-.59.06-.92.05-.23.09-.46.11-.69.05-.87-.35-1.63-.76-2.33l-.63-1.08-.12,4.4h0c-.02-.06-.05-.13-.07-.2-.05-.15-.1-.31-.13-.47-.04-.27,0-.56.04-.86l.03-.25c.12-1.09-.02-2.22-.39-3.2l-.29-.75-.37.72c-.41.79-.36,1.73-.31,2.64.03.51.05,1.04,0,1.52-.01.1-.03.2-.04.3-.05.34-.11.69-.05,1.06,0,.05.02.1.03.15-.07-.24-.18-.44-.29-.62-.08-.15-.16-.28-.21-.43-.14-.44-.04-.95.08-1.5.1-.48.21-.97.16-1.48-.05-.59-.29-1.06-.53-1.53-.23-.46-.45-.89-.45-1.38,0-.41.14-.79.29-1.19.12-.32.25-.65.31-1.02.07-.43.06-.9-.05-1.38,1.23-1.69,2.58-3.27,4.02-4.75l-.51-.51c-1.51,1.55-2.92,3.2-4.2,4.97l-.1.14.04.16c.12.43.14.86.08,1.24-.05.3-.16.58-.27.89-.11.29-.22.6-.28.92.01.43.03.88.08,1.32.1.32.25.62.39.91ZM85.7,51.75l-.08,1.83c-.01-.25,0-.5,0-.75v-1.09c0-.39,0-.78,0-1.17.11.36.09.79.08,1.18ZM86.09,49.84c-.06-.12-.12-.23-.17-.36,0-.03-.02-.06-.03-.08.11.21.25.41.38.59.22.3.44.59.45.92.01.26-.1.52-.21.8-.04.08-.07.17-.1.25v-.18c.03-.44.05-1-.12-1.49-.06-.15-.13-.3-.2-.44ZM86.43,53.41c-.03.05-.06.1-.08.16v-.3s.05.09.07.13c0,0,0,.01,0,.02ZM86.68,55.71c-.04-.13-.1-.24-.16-.34-.03-.06-.07-.12-.09-.18-.07-.17-.1-.38-.11-.59,0,.02,0,.03.01.05.05.16.13.31.2.47.1.21.19.4.22.6h-.07ZM88.8,55.71c-.03-.06-.06-.11-.06-.17-.01-.11.02-.21.09-.34,0,.03,0,.07-.01.1-.01.14,0,.28.01.41h-.03ZM89.79,54.26c0-.05,0-.1.01-.15,0-.42-.15-.79-.29-1.12-.12-.28-.24-.55-.23-.82,0-.09.02-.17.04-.26,0,.04,0,.08,0,.11.02.37.17.67.31.94.1.2.2.4.23.6.03.22,0,.46-.06.7ZM89.77,50.17c0,.18-.05.37-.12.56,0-.11,0-.22-.01-.33-.05-.31-.2-.55-.33-.76-.11-.18-.21-.33-.23-.51-.02-.13.01-.27.06-.42.09.21.2.4.31.58.18.3.34.57.34.87ZM88.87,40.04c.02-.17.08-.33.14-.49.05-.13.09-.26.12-.4.04.26.08.51.04.74-.03.15-.08.28-.13.42-.05.12-.1.25-.13.39-.04-.23-.06-.45-.03-.66ZM89.19,42.55c.01.15-.01.3-.06.46-.01-.29-.02-.58-.04-.88.05.14.09.28.1.42ZM88.87,45.18c.05.15.12.28.18.41.11.24.22.47.24.7.02.19-.03.4-.08.61-.07-.12-.15-.23-.22-.33-.13-.18-.24-.33-.28-.51-.06-.27.05-.57.16-.89ZM88.69,47.54s0,.1,0,.14c-.02-.14-.06-.28-.1-.42.05.09.09.18.1.27ZM88.69,50.03c.11.17.21.32.23.49,0,.04,0,.08,0,.12,0-.02-.01-.04-.02-.06-.14-.33-.39-.54-.61-.72-.27-.22-.37-.33-.37-.5,0-.15.1-.26.27-.45.06-.06.12-.13.17-.2-.04.17-.06.34-.03.53.04.33.2.58.34.8ZM88.06,44.02c.02-.17.05-.33.08-.49.03-.18.06-.36.09-.54.07-.56.07-1.12.05-1.67.09.59.12,1.2.14,1.79.02.45.04.96-.08,1.4-.04.14-.09.27-.14.41-.05.14-.11.3-.15.45-.05-.45-.05-.91.01-1.35ZM87.78,47.18c.12.29.24.59.18.82-.04.14-.15.27-.29.41-.2.22-.45.49-.46.91-.02.55.34.85.63,1.09.17.14.33.27.4.44.09.22.03.51-.04.85-.06.29-.12.6-.09.92.03.29.13.56.22.8l-1.26-.32c-.08-.06-.14-.43-.03-.75.04-.12.09-.24.14-.36.14-.32.29-.69.27-1.11-.03-.54-.33-.95-.59-1.31-.24-.33-.46-.62-.43-.96.02-.26.18-.48.37-.73.2-.27.43-.57.5-.98.06-.35,0-.68-.06-.99-.04-.21-.08-.41-.08-.59,0-.21.06-.41.14-.63,0,.83.14,1.67.45,2.41l.04.09ZM87.46,37.88l.03,1.2s0,0,0,0c-.04-.19-.09-.39-.1-.58-.01-.21.01-.41.06-.61ZM87.23,40.95c.11-.16.23-.35.3-.57l.02.73c.02.56.03,1.14-.03,1.71-.07-.21-.18-.4-.27-.58-.16-.29-.29-.54-.26-.8.02-.17.12-.31.23-.49ZM86.62,42.58c.12.23.24.44.27.67.04.31-.07.63-.2.97-.02.06-.05.13-.07.19.01-.32-.02-.63-.06-.91l-.16-1.32c.06.15.14.28.21.41ZM85.99,47.74l.03-.14c.11-.53.21-1.26,0-1.87.18-.12.33-.31.43-.52,0,.02,0,.05,0,.07,0,.26.04.51.09.75.05.26.1.51.06.72-.04.24-.2.45-.37.68-.08.1-.16.21-.23.33,0,0,0-.01,0-.02ZM85.33,43.88c.07-.15.14-.3.19-.45.11-.29.17-.59.21-.89l.12,1.04c.05.38.09.78.01,1.12-.07.29-.23.48-.33.46l-.39-.03c-.04-.1-.07-.19-.08-.29-.05-.31.1-.62.26-.97ZM84.9,47.4c0-.18.09-.35.19-.56.12-.23.25-.48.27-.79.09.34.08.81-.04,1.41l-.03.14c-.03.14-.06.29-.09.44-.02-.03-.04-.06-.06-.09-.13-.19-.24-.36-.25-.55ZM82.65,55.71s-.01-.03-.02-.05l.14.05h-.12ZM83.95,53.31c.11.32.12.7.13,1.08,0,.34.02.7,0,1.05l-.91-.34c.18-.37.21-.8.21-1.02,0-.16,0-.32-.02-.48-.02-.3-.03-.58.01-.84.02-.09.04-.18.07-.27.01-.04.02-.09.03-.13.07.2.17.37.25.52.08.14.16.28.21.43ZM83.12,45.98l.09-1.76c.02-.46.05-.92.13-1.35l.15,5.56c-.03-.27-.11-.52-.19-.74-.05-.15-.1-.29-.13-.44-.09-.4-.07-.84-.04-1.27ZM83.04,49.93l.1-.19c.14-.26.3-.55.34-.9,0-.03,0-.06,0-.08v.53c.03.48.04.98-.02,1.46l-.03.25c-.01.09-.03.18-.04.27-.09-.14-.19-.24-.28-.33-.09-.09-.17-.17-.21-.26-.07-.17-.02-.45.13-.74ZM82.24,52.44c.13-.21.29-.47.28-.78,0-.18-.06-.34-.15-.48.08.11.16.19.24.27.11.11.18.19.21.28.05.15,0,.36-.07.59-.03.11-.06.21-.08.32-.06.35-.04.68-.03,1.01,0,.14.02.29.02.43,0,.42-.11.77-.27.87h-.02c0-.09.05-.22.1-.35.08-.23.19-.52.11-.84-.06-.24-.2-.43-.32-.59-.09-.12-.19-.25-.2-.34,0-.1.08-.25.17-.39ZM78.26,51.59s.07.06.1.09c.18.16.39.35.4.49,0,.1-.09.25-.19.4-.04.07-.09.14-.13.21v-.04c.02-.32.05-.71-.15-1.08-.01-.02-.02-.04-.04-.06ZM78.41,53.78s-.01.02-.02.03c0,0,0,.01,0,.02v-.09s0,0,0,0c0,.01.01.02.02.04ZM78.77,55.47c-.02-.23-.15-.4-.26-.53-.03-.03-.06-.07-.08-.11-.04-.06-.06-.14-.07-.22,0,.02.02.04.03.06.06.11.13.22.21.32.09.13.18.25.19.35,0,.03,0,.08-.02.12ZM80.76,55.15s.04-.07.08-.12c0,.07,0,.13,0,.19-.04-.04-.08-.08-.08-.08ZM81.83,54.28s0-.02,0-.03c0-.1,0-.19-.03-.28h.1c0,.08-.02.19-.07.32ZM81.77,53.88c-.06-.18-.17-.33-.26-.47-.11-.16-.21-.31-.2-.42,0-.04.02-.09.04-.14,0,.02,0,.03,0,.05.03.3.19.52.34.71.08.11.16.21.19.29l-.11-.02ZM81.5,51.23c.15.16.3.32.3.45,0,.08-.05.19-.12.3,0-.07,0-.13-.03-.21-.06-.25-.23-.43-.37-.57-.08-.08-.18-.19-.19-.24,0-.04.02-.11.06-.18.1.17.23.32.35.45ZM80.9,45.1c.02-.08.07-.17.12-.27.05-.1.11-.2.15-.32.04.15.07.29.04.4-.02.06-.06.14-.11.23-.05.09-.12.2-.16.32-.03-.13-.05-.26-.03-.35ZM81.22,46.71c0,.07-.02.15-.06.24,0-.16-.02-.32-.03-.47.05.09.09.17.09.23ZM80.88,48.49s.01-.02.02-.03c.06.12.14.23.21.33.1.14.2.27.21.37.01.08-.03.19-.08.31-.09-.11-.19-.2-.28-.29-.1-.09-.21-.19-.24-.27-.03-.09.06-.26.16-.43ZM80.72,49.99s0,.03,0,.04c0-.03-.01-.06-.02-.09.01.02.02.03.02.05ZM80.6,51.52c-.11-.07-.22-.13-.32-.19-.11-.06-.29-.15-.31-.17.02-.04.15-.13.22-.19.06-.04.13-.09.2-.15-.01.09-.01.18,0,.27.03.17.12.31.21.42ZM80.09,47.69c.02-.1.05-.21.08-.31.03-.12.06-.24.09-.37.07-.37.07-.74.06-1.1.09.37.11.75.14,1.16.02.29.03.58-.06.83-.03.08-.08.17-.13.25-.06.11-.13.23-.18.36-.05-.27-.04-.54.01-.81ZM79.49,43.68l.03.7s0-.02,0-.03c-.04-.12-.08-.24-.09-.34,0-.11.02-.23.07-.34ZM79.21,45.77c.12-.12.26-.25.34-.44v-.02s.03.44.03.44c.02.37.03.73-.03,1.07-.08-.17-.2-.32-.32-.45-.11-.13-.24-.29-.22-.36.01-.06.11-.16.19-.24ZM79.32,49.58c.08-.29,0-.55-.06-.76-.04-.12-.07-.23-.07-.32,0-.11.06-.23.13-.36,0,.57.17,1.14.52,1.69.07.11.19.3.17.36-.02.05-.15.14-.24.21-.21.15-.5.36-.52.72-.03.47.39.69.69.85.14.08.32.17.37.25.04.07,0,.19-.06.39-.06.2-.14.43-.1.69.02.12.06.23.1.33l-1.22-.2c-.03-.05-.03-.16.02-.25.04-.07.09-.15.13-.22.14-.22.32-.5.3-.85-.03-.43-.36-.72-.64-.97-.19-.16-.4-.35-.38-.47.01-.1.18-.25.32-.37.21-.19.46-.4.55-.72ZM78.69,46.83c.11.13.22.26.24.36.03.13-.07.31-.18.49-.03.05-.06.11-.09.16,0-.21-.03-.41-.06-.58l-.14-.74c.07.11.15.21.23.3ZM78.1,48.85c.15-.09.28-.22.38-.35,0,.2.05.37.1.53.04.14.08.27.06.36-.03.11-.18.24-.33.37-.08.07-.16.14-.23.22.07-.24.18-.7.03-1.12ZM77.74,52.68l-.08,1.2c-.01-.16,0-.32,0-.48v-.71c0-.24,0-.48,0-.71,0,0,0,0,0,.01.1.18.09.4.07.69ZM77.33,47.67c.07-.1.14-.21.2-.31.12-.21.19-.44.24-.66l.13.7c.04.22.08.45.02.63-.05.12-.19.23-.35.25l-.42-.02s-.04-.08-.05-.1c-.03-.12.11-.3.23-.48ZM77.13,50.09c-.07-.07-.2-.19-.2-.24,0-.04.1-.17.16-.24.12-.16.27-.34.31-.59.07.14.1.38-.03.83l-.03.09c-.03.09-.06.18-.08.28-.04-.04-.08-.08-.12-.12ZM76.01,55.71h-1.47v-.37s1.47.37,1.47.37h0ZM76.01,53.82c.09.17.1.4.11.62,0,.19.01.38,0,.56l-.82-.2c.08-.17.12-.36.12-.57,0-.11,0-.22-.02-.33-.02-.18-.03-.34,0-.47.01-.05.04-.11.06-.16.01-.03.03-.07.04-.11.08.16.2.3.3.42.07.08.14.16.19.25ZM75.15,48.95l.09-1.15c.02-.31.05-.61.13-.88l.14,3.59c-.03-.21-.13-.39-.21-.55-.04-.09-.09-.18-.12-.26-.07-.22-.06-.48-.04-.75ZM75.03,51.63l.1-.12c.15-.18.33-.39.38-.67,0-.03,0-.06.01-.08v.35c.03.32.04.62-.01.91l-.03.16s-.02.1-.03.15c-.1-.13-.23-.22-.35-.29-.07-.04-.16-.1-.18-.14-.01-.02,0-.12.12-.27ZM74.7,52.64c.06.04.16.1.17.13,0,.04-.04.15-.07.22-.03.08-.06.15-.08.23-.08.26-.05.51-.03.74,0,.09.02.18.02.27,0,.08-.01.34-.2.43l-.08-2.22c.09.09.18.15.27.2ZM73.63,50.15l.16,4.77-.12.05c0-.06,0-.12,0-.19-.01-.53-.07-1.05-.13-1.55-.06-.53-.12-1.04-.13-1.56,0-.57.08-1.11.22-1.53ZM35.41,47.9c.05.24.08.5.1.77l.08,1.15c.02.26.04.53-.03.75-.03.09-.07.18-.11.27-.06.12-.12.25-.16.39l.13-3.33ZM35.25,51.98v-.2c.07.25.22.43.35.6l.09.12c.12.16.13.26.12.28-.02.03-.1.09-.17.14-.1.07-.22.15-.31.26,0-.04-.02-.08-.03-.12l-.03-.16c-.05-.29-.04-.59-.03-.91ZM32.46,55.71h-.02s.05-.08.07-.12c-.01.04-.03.08-.05.12ZM32.57,52.53c-.19.37-.17.77-.15,1.06-.03-.05-.06-.1-.09-.15-.1-.16-.19-.3-.18-.41.01-.14.2-.32.39-.49l.04-.04s0,.01-.01.02ZM33.14,53.56c-.02-.26-.02-.47.04-.64,0,.22,0,.43,0,.65v.72s0,.08,0,.12l-.05-.84ZM34.06,51.65c.04-.06.1-.12.16-.17.13-.14.29-.3.36-.52l-.04,1c-.01.34-.03.7.04,1.06l.04.19c.04.18.07.34.04.46-.03.1-.12.2-.21.32-.1.12-.2.24-.27.37-.17.32-.18.66-.19.94,0,.14,0,.28,0,.42h-.21c.01-.09.03-.18.06-.27.03-.15.06-.29.08-.44.03-.24.03-.48.02-.72v-.71c0-.38,0-.76,0-1.14,0-.32.01-.59.15-.78ZM33.74,50.48c.06.08.15.2.15.25,0,.05-.12.17-.19.24-.03.03-.06.06-.09.1-.02-.09-.05-.17-.07-.25l-.03-.09c-.1-.34-.12-.6-.05-.78.04.22.18.39.29.54ZM32.99,48.27l.11-.62c.04.19.11.39.21.58.06.1.12.21.19.31.13.19.25.37.22.49,0,.03-.02.06-.04.1l-.39.02c-.15,0-.28-.12-.32-.24-.06-.18-.02-.41.02-.64ZM32.77,49.72c-.14.41-.05.84.02,1.09-.06-.06-.13-.12-.19-.18-.14-.13-.28-.26-.32-.37-.02-.09.01-.22.06-.37.04-.14.09-.31.09-.48.09.12.2.23.33.31ZM32.23,47.7c.06-.07.12-.15.18-.23l-.12.68c-.03.16-.06.33-.06.52-.02-.03-.04-.07-.05-.1-.11-.2-.2-.37-.17-.5.02-.1.13-.24.23-.37ZM31.46,44.62c.03.09.04.18.04.27,0,.08-.03.16-.06.26l.02-.53ZM31.37,46.63l.02-.38c.08.16.2.29.31.4.08.08.17.18.19.24.02.08-.11.23-.21.37-.1.12-.2.25-.28.4-.05-.33-.03-.67-.02-1.02ZM31.16,50.63c.29-.48.44-1.02.45-1.57.06.11.1.22.1.31,0,.09-.03.21-.07.33-.06.21-.14.47-.06.75.08.32.32.53.53.72.14.13.3.27.31.37.01.13-.18.31-.37.48-.27.25-.58.54-.62.96-.03.34.15.62.28.84.05.07.09.14.13.22.05.09.04.21,0,.28l-1.12.19c.05-.1.09-.22.11-.34.03-.25-.03-.48-.1-.69-.06-.2-.1-.33-.05-.4.05-.08.21-.17.35-.25.29-.16.69-.39.66-.85-.02-.36-.3-.56-.5-.71-.09-.07-.21-.16-.23-.21-.02-.06.09-.25.2-.43ZM30.54,47.94c.02-.34.04-.67.1-.99,0,.31,0,.62.06.94.02.12.05.25.09.37.03.1.05.21.07.31.05.25.05.5.02.76-.04-.11-.1-.2-.15-.3-.04-.08-.09-.17-.12-.25-.1-.25-.08-.54-.06-.83ZM30.6,51.97c.02-.09.02-.17,0-.24.05.04.11.08.16.12.07.05.19.14.21.16-.03.05-.2.15-.3.2-.09.05-.18.1-.26.16.08-.11.16-.24.19-.4ZM29.84,45.43c.04.1.08.18.12.26.05.1.1.19.11.27.02.09,0,.2-.02.31-.04-.1-.09-.19-.13-.27-.05-.08-.09-.16-.11-.23-.02-.1,0-.22.03-.35ZM29.86,47.42c0,.12-.02.23-.02.35-.02-.07-.04-.13-.03-.18,0-.05.03-.1.06-.17ZM29.9,49.66c.06-.09.13-.19.19-.3t0,0c.09.18.18.34.15.44-.02.07-.13.17-.23.27-.08.08-.17.16-.25.26-.04-.11-.08-.21-.07-.29.01-.11.11-.24.2-.38ZM29.54,52.1c.11-.13.23-.26.32-.42.03.06.05.12.04.16-.01.06-.1.16-.18.25-.13.14-.3.32-.36.57-.01.05-.02.11-.02.15-.05-.1-.09-.18-.09-.25,0-.13.14-.29.29-.45ZM29.35,54.47c.14-.19.29-.4.32-.69,0,.03.01.05.01.07,0,.12-.09.27-.19.43-.09.14-.19.3-.25.48h-.08c.03-.08.1-.18.18-.29ZM29.21,54.86c-.01.06-.02.13-.03.2-.02-.07-.03-.14-.03-.2h.06ZM28.26,52.6c.03-.09.1-.17.2-.28.05-.05.1-.1.15-.16-.05.11-.09.24-.09.38,0,.31.14.56.26.78.09.15.17.3.16.4,0,.09-.1.21-.19.34-.12.17-.26.35-.31.59-.07.31.02.59.11.83.03.08.06.16.07.24h-.07c-.09-.16-.15-.45-.15-.75,0-.14,0-.29.02-.43.02-.33.04-.67-.02-1.01-.02-.11-.05-.21-.07-.32-.06-.22-.11-.44-.06-.59ZM27.77,43.91c.05.38.08.78.1,1.18l.08,1.76c.02.43.04.87-.04,1.27-.03.15-.08.3-.12.44-.05.17-.11.34-.14.52l.13-5.17ZM27.61,50.17v-.34c.07.31.2.56.32.79l.09.18c.15.3.19.58.12.75-.04.09-.11.17-.2.26-.08.08-.17.17-.24.29,0-.08-.02-.15-.03-.23l-.03-.25c-.06-.48-.04-.98-.03-1.46ZM21.82,53.87c-.13.31-.28.66-.28,1.06-.03-.17-.04-.34-.02-.5.03-.2.12-.4.22-.6.13-.26.27-.56.29-.92,0,.05.01.09.01.13,0,.27-.11.54-.22.83ZM24.87,55.71h-.04s.03-.08.05-.13c0,.04,0,.08-.01.13ZM24.81,54.29s0,0,0,0c.01-.02.02-.05.04-.07v.17s-.02-.06-.04-.09ZM25.5,52.63c-.01-.35-.03-.73.04-1.07v2.15c0,.08,0,.15,0,.23l-.05-1.31ZM26.27,50.86c0-.44,0-.98.18-1.36.05-.1.11-.19.17-.29.12-.19.26-.4.32-.66l-.04,1.6c-.01.48-.03,1.03.04,1.56l.03.27c.04.31.09.6.03.86-.04.2-.14.38-.24.57-.09.17-.18.34-.25.53-.15.43-.16.89-.17,1.3,0,.15,0,.3,0,.46h-.2c.01-.1.03-.21.04-.31.03-.21.06-.43.08-.64.03-.35.03-.7.02-1.05v-2.84ZM26.25,48.28c0,.19-.11.36-.24.55-.01.02-.02.04-.03.05-.02-.14-.05-.28-.08-.41l-.02-.13c-.11-.56-.13-1-.06-1.33.04.27.15.49.25.7.1.21.19.39.19.56ZM25.36,44.45l.11-.93c.04.26.1.53.18.78.05.15.12.3.19.45.15.34.3.66.25.98-.01.09-.04.19-.08.28l-.36.03s-.23-.15-.3-.46c-.08-.35-.03-.76,0-1.13ZM25.1,50.72c-.07.14-.14.29-.2.45-.17.49-.14,1.04-.13,1.49v.09c-.02-.05-.04-.11-.06-.16-.11-.28-.22-.54-.21-.81.02-.33.21-.61.43-.92.1-.14.21-.29.3-.45-.04.11-.09.22-.15.32ZM24.8,46.15c.09.18.22.35.38.46-.21.61-.11,1.34,0,1.87l.02.1c-.06-.09-.12-.18-.18-.26-.17-.24-.31-.44-.36-.68-.04-.22,0-.47.06-.73.05-.24.09-.48.09-.75h0ZM24.63,43.45c.05-.1.11-.21.16-.32l-.14,1.23c-.03.26-.06.53-.06.82-.01-.03-.02-.06-.03-.09-.12-.34-.23-.66-.19-.97.03-.22.14-.44.26-.67ZM23.82,38.88c.03.16.04.33.03.49,0,.14-.03.28-.06.42l.03-.91ZM23.73,41.98l.02-.65c.07.19.17.35.26.49.11.17.2.32.23.49.04.26-.1.51-.25.81-.08.16-.17.32-.24.51-.05-.54-.04-1.1-.02-1.64ZM23.51,48.05l.04-.1c.28-.71.42-1.51.43-2.32.06.18.1.36.1.53,0,.19-.03.39-.07.6-.06.31-.12.64-.06.99.07.41.29.71.48.98.18.25.34.47.36.74.02.34-.18.63-.42.97-.25.36-.54.76-.57,1.3-.02.42.13.79.26,1.11.05.12.1.24.14.36.11.33.04.7-.02.75l-1.18.3c.09-.23.18-.49.2-.77.03-.32-.03-.62-.09-.92-.06-.32-.12-.63-.03-.85.06-.17.21-.29.38-.44.28-.24.62-.54.6-1.08-.01-.42-.25-.69-.44-.91-.13-.14-.24-.27-.27-.41-.06-.24.06-.54.17-.83ZM22.9,43.99c.02-.5.04-1.02.1-1.53,0,.46,0,.93.06,1.4.02.18.05.36.08.54.03.16.05.33.08.49.05.42.06.85.02,1.28-.04-.13-.08-.25-.12-.37-.05-.14-.1-.27-.13-.41-.11-.43-.09-.92-.08-1.4ZM22.97,50.11c.02-.17,0-.33-.02-.48.04.05.09.1.13.15.17.19.26.3.26.46,0,.18-.09.28-.35.51-.2.18-.43.38-.57.69,0,0,0-.02,0-.03.03-.17.12-.32.22-.49.13-.22.28-.47.32-.8ZM22.2,40.11c.03.11.06.22.1.32.05.16.11.32.13.49.03.19.01.39-.02.59-.03-.11-.07-.21-.11-.31-.05-.14-.1-.27-.13-.42-.04-.21-.01-.43.02-.67ZM22.22,43.12c-.01.22-.02.44-.03.65-.02-.12-.04-.24-.03-.35,0-.1.03-.2.06-.3ZM22.3,46.46c.05-.12.11-.24.16-.37.11.3.2.59.14.85-.04.18-.14.33-.27.51-.06.09-.13.19-.19.29-.05-.2-.09-.39-.07-.58.02-.24.12-.47.23-.71ZM21.94,50.18c.09-.17.19-.34.27-.54.04.13.06.26.04.38-.02.17-.12.33-.23.51-.13.21-.27.45-.32.75-.01.08-.02.16-.02.23-.05-.16-.09-.31-.09-.47,0-.3.16-.57.33-.87ZM21.01,42.97c.31-.49.66-1.04.53-1.75,0-.04-.01-.07-.02-.11.03.12.07.23.12.34.07.19.13.35.14.52,0,.21-.06.41-.14.65-.08.22-.16.47-.18.75-.03.44.11.84.23,1.19.11.31.21.61.19.89-.02.24-.12.47-.23.71-.12.27-.27.58-.3.95-.03.39.07.73.16,1.07.08.29.16.56.14.82-.03.29-.18.55-.33.83-.19.34-.41.73-.42,1.21,0,.39.12.73.24,1.03.1.27.2.53.19.78-.01.22-.11.43-.22.67-.11.23-.24.5-.28.8-.06.39.02.75.1,1.1.02.1.04.19.06.28h-.48c.08-.82.06-1.67-.08-2.47l-.02-.13c-.06-.36-.13-.73-.04-1.02.04-.12.11-.23.19-.35.11-.17.23-.36.3-.61.12-.48-.03-.92-.17-1.32-.09-.25-.17-.49-.18-.73-.02-.37.13-.72.29-1.09.17-.39.34-.79.36-1.27.02-.53-.16-.99-.34-1.44-.16-.41-.32-.8-.28-1.2.04-.4.26-.74.49-1.11Z"/>
    <polygon points="35.33 56.05 35.33 55.8 35.1 55.85 35.11 56.06 35.33 56.05"/>
    <path d="M36.7,56.25c.12.07.24.12.37.18h.12l-.49-.18Z"/>
    <path d="M39.17,56.43h.23l.12-.11h0c-.12.03-.24.07-.35.11Z"/>
    <path d="M36.18,55.84l-.11-.11h-.82s1.45.52,1.45.52c-.19-.12-.37-.24-.52-.41Z"/>
    <path d="M91.86,56c-.29.03-.52.11-.71.24v.19s.66,0,.66,0l.04-.43Z"/>
    <path d="M33.9,56.1l1.21-.26v-.09s-.42.11-.42.11c0-.05,0-.09,0-.14h-3.12s-.02.05-.03.07l1.43.44s.04-.05.05-.07v.09s.57.17.57.17h1.54l-.02-.37-1.22.04Z"/>
    <path d="M91.86,56s.02,0,.02,0l-.02-.07v.08Z"/>
    <path d="M77.85,55.73l-.14.15.03-.09s0-.04.01-.06h-.77c-.02.06-.05.12-.07.17v.02s.73.18.73.18h0s.69.17.69.17l.53-.55h-1Z"/>
  </g>
</svg>